<?xml version="1.0" encoding="utf-8"?>
<!-- Generator: Adobe Illustrator 16.0.0, SVG Export Plug-In . SVG Version: 6.00 Build 0)  -->
<!DOCTYPE svg PUBLIC "-//W3C//DTD SVG 1.1//EN" "http://www.w3.org/Graphics/SVG/1.1/DTD/svg11.dtd">
<svg version="1.1" id="Layer_1" xmlns="http://www.w3.org/2000/svg" xmlns:xlink="http://www.w3.org/1999/xlink" x="0px" y="0px"
	 width="113.044px" height="55.073px" viewBox="0 0 113.044 55.073" enable-background="new 0 0 113.044 55.073"
	 xml:space="preserve">
<g>
	<path fill="#FFFFFF" d="M17.401,36.711c0,1.541,1.255,2.799,2.799,2.799s2.8-1.258,2.8-2.799c0-1.545-1.256-2.799-2.8-2.799
		S17.401,35.167,17.401,36.711z M20.2,35.961c0.414,0,0.75,0.336,0.75,0.75c0,0.412-0.336,0.75-0.75,0.75
		c-0.413,0-0.749-0.338-0.749-0.75C19.451,36.297,19.787,35.961,20.2,35.961z"/>
	<path fill="#FFFFFF" d="M30.246,43.206c-0.287-0.158-6.924-3.715-15.857-2.697c-0.534-0.785-1.432-1.301-2.449-1.301
		c-1.634,0-2.961,1.326-2.961,2.959s1.327,2.959,2.961,2.959c1.512,0,2.748-1.145,2.924-2.611c3.621-0.373,6.856,0.061,9.337,0.672
		c-1.558,0.412-2.834,1.027-3.624,1.465c-0.27-0.184-0.576-0.318-0.927-0.318c-0.925,0-1.677,0.754-1.677,1.68
		c0,0.922,0.752,1.676,1.677,1.676c0.695,0,1.292-0.424,1.546-1.027c1.055-0.633,4.684-2.559,8.287-1.568
		c0.5,0.129,1.026-0.123,1.221-0.607C30.898,44.006,30.702,43.454,30.246,43.206z M11.939,43.077c-0.504,0-0.912-0.408-0.912-0.91
		c0-0.5,0.408-0.908,0.912-0.908c0.193,0,0.365,0.074,0.513,0.178c-0.026,0.119-0.037,0.246-0.017,0.377
		c0.038,0.252,0.177,0.463,0.359,0.615C12.681,42.801,12.347,43.077,11.939,43.077z M19.297,45.965c-0.001,0.027,0,0.057,0,0.084
		c-0.001-0.016-0.019-0.021-0.019-0.037C19.278,45.993,19.295,45.983,19.297,45.965z"/>
	<path fill="#FFFFFF" d="M92.845,39.51c1.543,0,2.799-1.258,2.799-2.799c0-1.545-1.256-2.799-2.799-2.799
		c-1.545,0-2.8,1.254-2.8,2.799C90.045,38.252,91.3,39.51,92.845,39.51z M92.845,35.961c0.413,0,0.75,0.336,0.75,0.75
		c0,0.412-0.337,0.75-0.75,0.75c-0.414,0-0.751-0.338-0.751-0.75C92.094,36.297,92.431,35.961,92.845,35.961z"/>
	<path fill="#FFFFFF" d="M101.105,39.208c-1.018,0-1.917,0.516-2.45,1.303c-8.932-1.016-15.568,2.535-15.857,2.695
		c-0.455,0.248-0.652,0.801-0.457,1.279c0.195,0.484,0.722,0.738,1.221,0.607c3.6-0.988,7.234,0.941,8.287,1.57
		c0.254,0.602,0.852,1.025,1.546,1.025c0.925,0,1.677-0.754,1.677-1.676c0-0.926-0.752-1.68-1.677-1.68
		c-0.351,0-0.657,0.135-0.927,0.318c-0.791-0.441-2.072-1.059-3.635-1.467c2.477-0.611,5.711-1.049,9.348-0.672
		c0.174,1.469,1.412,2.613,2.925,2.613c1.633,0,2.96-1.326,2.96-2.959S102.738,39.208,101.105,39.208z M93.745,46.051
		c0.002-0.029,0.004-0.059,0.002-0.086c0.002,0.018,0.02,0.027,0.02,0.047C93.767,46.028,93.749,46.036,93.745,46.051z
		 M101.105,43.077c-0.407,0-0.739-0.271-0.855-0.643c0.184-0.154,0.32-0.365,0.36-0.621c0.02-0.131,0.008-0.258-0.018-0.377
		c0.147-0.104,0.318-0.178,0.513-0.178c0.503,0,0.911,0.408,0.911,0.908C102.017,42.668,101.608,43.077,101.105,43.077z"/>
	<path fill="#FFFFFF" d="M84.007,29.624c-0.582-1.537-2.396-2.465-4.399-2.227c-1.931,0.234-6.853,1.941-10.073,3.115
		c3.217-3.764,6.146-8.604,7.988-14.797l0,0c0.129,0.011,0.264,0.041,0.388,0.041h0.002c1.629,0,2.895-0.988,3.761-2.938
		c0.452-1.017,0.437-2.062-0.044-2.801c-0.503-0.777-1.458-1.097-2.455-0.82c-0.384-0.776-1.052-1.633-2.137-1.633
		c-0.746,0-1.468,0.435-2.147,1.292c-0.031,0.043-0.061,0.085-0.087,0.131l-0.309,0.542c-0.033,0.055-0.06,0.117-0.08,0.178
		c-0.474,1.394-0.745,4.142,1.176,5.366c-0.008,0.022-0.024,0.038-0.031,0.059c-0.983,3.303-2.294,6.198-3.792,8.738
		c0.266-2.701,0.527-7.634-0.968-8.583c-0.583-0.368-1.274-0.572-1.945-0.572c-1.478,0-3.153,1.004-3.423,3.815
		c-0.34,3.548,3.965,7.306,4.455,7.722c0.078,0.064,0.166,0.11,0.254,0.146c-4.018,5.718-8.915,9.294-12.637,11.394
		c-4.827-2.914-8.548-6.609-11.351-10.217c1.127-1.021,4.43-4.306,4.129-7.433c-0.27-2.813-1.944-3.815-3.422-3.815
		c-0.672,0-1.363,0.203-1.944,0.571c-1.304,0.828-1.272,4.68-1.067,7.447c-2.99-4.576-4.488-8.516-4.936-9.811
		c1.152-0.819,2.144-2.337,1.154-5.099c-0.453-1.264-1.385-2.049-2.436-2.049c-0.637,0-1.371,0.323-1.871,1.161
		c-0.378-0.139-0.813-0.246-1.244-0.246c-0.779,0-1.258,0.344-1.52,0.632c-0.48,0.526-0.666,1.284-0.57,2.321
		c0.005,0.051,0.014,0.102,0.025,0.152l0.148,0.606c0.017,0.063,0.038,0.125,0.066,0.186c0.15,0.324,1.538,3.157,3.966,3.157
		c0.125,0,0.253-0.019,0.378-0.034c0.676,1.972,2.992,7.975,7.932,14.123c-3.167-1.164-8.647-3.1-10.711-3.347
		c-2.005-0.24-3.816,0.688-4.398,2.226c-0.372,0.98-0.543,3.025,2.486,5.705c1.203,1.063,2.789,1.602,4.713,1.602
		c4.475,0,9.507-2.928,10.318-3.42c2.238,2.375,4.893,4.686,8.029,6.697c-2.103,1.016-3.49,1.436-3.541,1.449
		c-0.543,0.156-0.855,0.725-0.699,1.27c0.129,0.447,0.538,0.738,0.982,0.738c0.095,0,0.189-0.012,0.284-0.039
		c0.062-0.016,2.11-0.633,5.05-2.184c1.387,0.779,2.849,1.504,4.408,2.146c0.128,0.053,0.261,0.076,0.39,0.076
		c0.402,0,0.785-0.236,0.948-0.631c0.216-0.525-0.034-1.125-0.558-1.34c-1.071-0.439-2.096-0.926-3.082-1.439
		c2.172-1.313,4.626-3.07,7.054-5.369c1.091,0.646,5.892,3.348,10.191,3.348c0.001,0,0.001,0,0.001,0
		c1.924,0,3.51-0.539,4.713-1.604C84.548,32.651,84.378,30.604,84.007,29.624z M76.33,10.443l0.212-0.371
		c0.276-0.336,0.442-0.429,0.45-0.459c0.187,0.125,0.489,0.729,0.614,1.227c0.078,0.326,0.313,0.593,0.627,0.715
		c0.312,0.118,0.668,0.08,0.945-0.109c0.41-0.281,0.648-0.305,0.73-0.315c0.047,0.059,0.107,0.369-0.107,0.854
		c-0.688,1.546-1.409,1.722-1.89,1.722c-0.306,0-0.657-0.08-1.044-0.238C75.677,12.98,76.205,10.878,76.33,10.443z M69.748,23.234
		c-1.157-1.3-2.412-3.099-2.278-4.51c0.088-0.893,0.396-1.961,1.384-1.961c0.254,0,0.527,0.075,0.763,0.203
		C70.013,17.732,69.925,20.902,69.748,23.234z M46.096,18.578c0.237-0.127,0.511-0.203,0.764-0.203c0.988,0,1.297,1.067,1.383,1.961
		c0.137,1.427-1.109,3.215-2.275,4.517C45.789,22.519,45.699,19.344,46.096,18.578z M37.031,33.581
		c-1.409,0-2.538-0.365-3.354-1.088c-1.517-1.342-2.237-2.629-1.929-3.445c0.213-0.563,0.959-0.941,1.857-0.941
		c0.125,0,0.252,0.008,0.379,0.023c1.776,0.217,7.047,2.057,10.471,3.318C42.579,32.372,39.635,33.581,37.031,33.581z
		 M34.564,11.414l-0.104-0.421c-0.038-0.517,0.05-0.696,0.056-0.643c0.352,0,0.941,0.272,1.245,0.464
		c0.281,0.182,0.635,0.21,0.946,0.083c0.311-0.128,0.537-0.403,0.607-0.731c0.113-0.531,0.298-0.715,0.313-0.732
		c0.073,0.009,0.332,0.193,0.512,0.691c0.693,1.942,0.063,2.645-1.098,3.098C35.922,13.664,34.895,12.066,34.564,11.414z
		 M80.163,33.795c-0.818,0.723-1.946,1.088-3.355,1.088l0,0c-2.596,0-5.545-1.209-7.422-2.137c3.424-1.258,8.692-3.102,10.469-3.316
		c1.035-0.121,1.992,0.277,2.234,0.92C82.399,31.165,81.679,32.452,80.163,33.795z"/>
	<polygon fill="#FFFFFF" points="10.785,14.603 13.381,20.558 14.432,20.558 16.946,14.794 16.946,21.529 18.571,21.529 
		18.571,12.663 16.346,12.663 13.912,17.936 11.482,12.663 9.174,12.663 9.174,21.529 10.785,21.529 	"/>
	<path fill="#FFFFFF" d="M101.167,20.326c0.838-0.8,1.257-1.875,1.257-3.223c0-1.358-0.419-2.436-1.257-3.239
		c-0.83-0.801-1.918-1.201-3.266-1.201h-2.881v8.866h2.881C99.249,21.529,100.337,21.129,101.167,20.326z M96.644,14.125h1.258
		c0.848,0,1.525,0.278,2.036,0.833c0.49,0.547,0.737,1.262,0.737,2.145c0,0.864-0.247,1.572-0.737,2.116
		c-0.52,0.565-1.198,0.848-2.036,0.848h-1.258V14.125z"/>
</g>
</svg>
