<?xml version="1.0" encoding="utf-8"?>
<!-- Generator: Adobe Illustrator 16.0.0, SVG Export Plug-In . SVG Version: 6.00 Build 0)  -->
<!DOCTYPE svg PUBLIC "-//W3C//DTD SVG 1.1//EN" "http://www.w3.org/Graphics/SVG/1.1/DTD/svg11.dtd">
<svg version="1.1" id="Layer_1" xmlns="http://www.w3.org/2000/svg" xmlns:xlink="http://www.w3.org/1999/xlink" x="0px" y="0px"
	 width="107.75px" height="48.75px" viewBox="0 0 107.75 48.75" enable-background="new 0 0 107.75 48.75" xml:space="preserve">
<circle fill="none" stroke="#000000" stroke-width="2" stroke-linecap="round" stroke-linejoin="round" stroke-miterlimit="10" cx="53.856" cy="9.417" r="0.75"/>
<path fill="none" stroke="#000000" stroke-width="2" stroke-linecap="round" stroke-linejoin="round" stroke-miterlimit="10" d="
	M71.347,38.247c0,0-20.764,1.753-33.887-16.98"/>
<path fill="none" stroke="#000000" stroke-width="2" stroke-linecap="round" stroke-linejoin="round" stroke-miterlimit="10" d="
	M70.205,21.987c0,0-14.147,17.49-34.001,16.305"/>
<path fill="none" stroke="#000000" stroke-width="2" stroke-linecap="round" stroke-linejoin="round" stroke-miterlimit="10" d="
	M60.336,30.209c0,0-4.62-6.453,1.256-10.502C61.592,19.707,64.331,25.936,60.336,30.209z"/>
<path fill="none" stroke="#000000" stroke-width="2" stroke-linecap="round" stroke-linejoin="round" stroke-miterlimit="10" d="
	M47.271,30.209c0,0,4.45-6.567-1.71-9.876C45.561,20.333,43.678,27.533,47.271,30.209z"/>
<path fill="none" stroke="#000000" stroke-width="2" stroke-linecap="round" stroke-linejoin="round" stroke-miterlimit="10" d="
	M75.363,20.118c0,0-2.034,2.165-4.282,2.092c-2.246-0.071-1.242-3.754-1.062-4.921c0.186-1.208,3.209-3.386,3.274,0.375
	C73.294,17.664,78.035,16.947,75.363,20.118z"/>
<path fill="none" stroke="#000000" stroke-width="2" stroke-linecap="round" stroke-linejoin="round" stroke-miterlimit="10" d="
	M37.416,15.658c0,0,1.303,2.668,0.44,4.746c-0.862,2.077-3.952-0.168-4.98-0.75c-1.062-0.601-2.028-4.199,1.513-2.928
	C34.389,16.725,35.397,12.037,37.416,15.658z"/>
<g>
	
		<line fill="none" stroke="#000000" stroke-width="2" stroke-linecap="round" stroke-linejoin="round" stroke-miterlimit="10" x1="95.887" y1="33.847" x2="91.363" y2="29.324"/>
	
		<line fill="none" stroke="#000000" stroke-width="2" stroke-linecap="round" stroke-linejoin="round" stroke-miterlimit="10" x1="95.887" y1="29.325" x2="91.362" y2="33.848"/>
</g>
<g>
	
		<line fill="none" stroke="#000000" stroke-width="2" stroke-linecap="round" stroke-linejoin="round" stroke-miterlimit="10" x1="15.743" y1="33.847" x2="11.22" y2="29.324"/>
	
		<line fill="none" stroke="#000000" stroke-width="2" stroke-linecap="round" stroke-linejoin="round" stroke-miterlimit="10" x1="15.743" y1="29.325" x2="11.219" y2="33.848"/>
</g>
</svg>
