<?xml version="1.0" encoding="utf-8"?>
<!-- Generator: Adobe Illustrator 16.0.0, SVG Export Plug-In . SVG Version: 6.00 Build 0)  -->
<!DOCTYPE svg PUBLIC "-//W3C//DTD SVG 1.1//EN" "http://www.w3.org/Graphics/SVG/1.1/DTD/svg11.dtd">
<svg version="1.1" id="Layer_1" xmlns="http://www.w3.org/2000/svg" xmlns:xlink="http://www.w3.org/1999/xlink" x="0px" y="0px"
	 width="107.75px" height="48.75px" viewBox="0 0 107.75 48.75" enable-background="new 0 0 107.75 48.75" xml:space="preserve">
<circle fill="none" stroke="#000000" stroke-width="2" stroke-linecap="round" stroke-linejoin="round" stroke-miterlimit="10" cx="53.249" cy="38.6" r="0.75"/>
<path fill="none" stroke="#000000" stroke-width="2" stroke-linecap="round" stroke-linejoin="round" stroke-miterlimit="10" d="
	M35.759,9.769c0,0,20.764-1.753,33.887,16.98"/>
<path fill="none" stroke="#000000" stroke-width="2" stroke-linecap="round" stroke-linejoin="round" stroke-miterlimit="10" d="
	M36.9,26.029c0,0,14.147-17.491,34.001-16.305"/>
<path fill="none" stroke="#000000" stroke-width="2" stroke-linecap="round" stroke-linejoin="round" stroke-miterlimit="10" d="
	M46.77,17.807c0,0,4.62,6.454-1.256,10.502C45.514,28.31,42.774,22.08,46.77,17.807z"/>
<path fill="none" stroke="#000000" stroke-width="2" stroke-linecap="round" stroke-linejoin="round" stroke-miterlimit="10" d="
	M59.834,17.807c0,0-4.45,6.568,1.711,9.876C61.545,27.684,63.428,20.483,59.834,17.807z"/>
<path fill="none" stroke="#000000" stroke-width="2" stroke-linecap="round" stroke-linejoin="round" stroke-miterlimit="10" d="
	M31.742,27.898c0,0,2.034-2.164,4.282-2.092c2.246,0.071,1.242,3.755,1.062,4.921c-0.186,1.209-3.209,3.386-3.274-0.375
	C33.812,30.353,29.07,31.069,31.742,27.898z"/>
<path fill="none" stroke="#000000" stroke-width="2" stroke-linecap="round" stroke-linejoin="round" stroke-miterlimit="10" d="
	M69.689,32.358c0,0-1.303-2.668-0.44-4.745s3.952,0.168,4.98,0.75c1.063,0.602,2.028,4.199-1.513,2.928
	C72.717,31.291,71.708,35.979,69.689,32.358z"/>
<g>
	
		<line fill="none" stroke="#000000" stroke-width="2" stroke-linecap="round" stroke-linejoin="round" stroke-miterlimit="10" x1="11.219" y1="14.169" x2="15.742" y2="18.692"/>
	
		<line fill="none" stroke="#000000" stroke-width="2" stroke-linecap="round" stroke-linejoin="round" stroke-miterlimit="10" x1="11.219" y1="18.691" x2="15.743" y2="14.168"/>
</g>
<g>
	
		<line fill="none" stroke="#000000" stroke-width="2" stroke-linecap="round" stroke-linejoin="round" stroke-miterlimit="10" x1="91.362" y1="14.169" x2="95.886" y2="18.692"/>
	
		<line fill="none" stroke="#000000" stroke-width="2" stroke-linecap="round" stroke-linejoin="round" stroke-miterlimit="10" x1="91.362" y1="18.691" x2="95.887" y2="14.168"/>
</g>
</svg>
