<?xml version="1.0" encoding="utf-8"?>
<!-- Generator: Adobe Illustrator 16.0.0, SVG Export Plug-In . SVG Version: 6.00 Build 0)  -->
<!DOCTYPE svg PUBLIC "-//W3C//DTD SVG 1.1//EN" "http://www.w3.org/Graphics/SVG/1.1/DTD/svg11.dtd">
<svg version="1.1" id="Layer_1" xmlns="http://www.w3.org/2000/svg" xmlns:xlink="http://www.w3.org/1999/xlink" x="0px" y="0px"
	 width="202.097px" height="113.607px" viewBox="0 0 202.097 113.607" enable-background="new 0 0 202.097 113.607"
	 xml:space="preserve">
<g>
	<g>
		<path stroke="#334127" stroke-width="0.25" stroke-miterlimit="10" d="M78.958,14.209c1.59-1.296,3.142-0.981,2.945-0.039
			c-0.118,0.472-0.668,0.923-0.825,1.041c-0.098,0.078-0.471-0.275-0.177-0.511c0.511-0.432,0.314-1.002-0.235-0.864
			c-0.393,0.099-1.453,0.806-2.003,1.61c-1.414,2.102,0.746,3.279,3.889,0.491c0.235-0.196,0.196,0.393,0.117,0.491
			c-0.098,0.098-1.453,1.512-2.671,1.669c-1.021,0.157-1.865-0.059-2.258-0.727C77.445,16.841,77.21,15.624,78.958,14.209z"/>
		<path stroke="#334127" stroke-width="0.25" stroke-miterlimit="10" d="M87.01,15.938c0.235-0.196,0.196,0.393,0.098,0.491
			c-0.078,0.098-1.61,1.61-2.848,1.787c-1.001,0.137-1.649-0.217-1.904-0.943c-0.314-0.785,0.117-1.885,1.041-2.729
			c2.18-1.983,3.652-1.139,2.062,0.707c-0.354,0.393-1.964,1.649-2.533,1.905c0.138,0.608,0.825,0.844,2.376,0.078
			C85.812,16.979,86.4,16.488,87.01,15.938z M84.712,15.211c1.375-1.336,0.707-1.669-0.668-0.452
			c-0.511,0.472-0.923,1.14-1.08,1.709C83.356,16.252,84.182,15.722,84.712,15.211z"/>
		<path stroke="#334127" stroke-width="0.25" stroke-miterlimit="10" d="M89.445,15.172c0.413-0.472,0.59-0.786,0.491-0.884
			c-0.118-0.099-0.608,0.157-1.061,0.177c-0.511,0.687-1.197,1.434-1.885,2.101c-0.138,0.118-0.256-0.393-0.177-0.451
			c0.608-0.511,1.197-1.198,1.61-1.729c-0.256-0.138-0.433-0.393-0.334-0.844c0.295-1.237,1.807-1.12,1.453-0.217
			c-0.099,0.236-0.235,0.472-0.393,0.727c0.235-0.059,0.491-0.157,0.647-0.216c0.845-0.314,1.395,0.079,0.57,1.041
			c-0.433,0.53-1.905,2.553-0.845,2.671c0.412,0.039,1.08-0.314,2.553-1.61c0.216-0.196,0.177,0.393,0.099,0.491
			c-0.099,0.098-1.729,1.728-2.671,1.688C88.346,18.079,88.11,16.743,89.445,15.172z M88.994,13.522
			c0.196-0.451-0.412-0.333-0.491,0.157c-0.039,0.216,0.02,0.334,0.157,0.393C88.817,13.817,88.955,13.621,88.994,13.522z"/>
		<path stroke="#334127" stroke-width="0.25" stroke-miterlimit="10" d="M92.727,17.529c0.471,0.039,1.158-0.295,2.631-1.591
			c0.216-0.196,0.177,0.393,0.099,0.491c-0.099,0.098-2.16,2.238-3.358,1.394c-0.628-0.432-0.373-1.492,0.452-2.65
			c0.667-0.982,1.04-1.474,1.178-1.571c0.157-0.118,0.491,0.274,0.314,0.53c-0.138,0.216-1.237,1.649-1.513,2.317
			C92.235,17.116,92.313,17.489,92.727,17.529z M95.004,12.128c-0.313-0.157-0.688,0-0.844,0.313
			c-0.138,0.275-0.118,0.668,0.177,0.767C94.945,13.424,95.534,12.364,95.004,12.128z"/>
		<path stroke="#334127" stroke-width="0.25" stroke-miterlimit="10" d="M101.584,14.209c-0.177-0.314-1.101,0.196-1.808,0.825
			c-0.706,0.628-2.062,2.514-2.316,2.69c-0.138,0.098-0.472,0-0.374-0.216c0.118-0.217,0.825-1.237,1.474-2.416
			c0.667-1.178-0.02-1.08-0.373-0.785c-2.082,1.708-2.867,3.024-3.182,3.397c-0.295,0.373-0.569-0.217-0.373-0.53
			c1.61-2.69,2.435-3.673,2.553-3.79c0.059-0.06,0.295,0.235,0.275,0.393c-0.021,0.235-0.433,0.746-0.727,1.158
			c0.196-0.196,1.021-1.021,1.551-1.335c0.511-0.295,1.532-0.314,1.119,1.158c0.903-0.884,2.181-1.63,2.71-1.119
			c0.295,0.255,0.217,1.179-0.687,2.219c-0.963,1.12-0.472,1.65-0.06,1.689c0.433,0.02,1.08-0.314,2.554-1.61
			c0.235-0.196,0.196,0.393,0.098,0.491c-0.098,0.098-1.61,1.649-2.671,1.688c-0.688,0.02-1.826-0.727-0.589-2.337
			C101.054,15.388,101.8,14.583,101.584,14.209z"/>
		<path stroke="#334127" stroke-width="0.25" stroke-miterlimit="10" d="M106.514,13.424c1.847-0.53,2.593,1.276,0.04,3.889
			c-2.121,2.18-3.869,0.353-2.317-1.905c0.373-0.53,0.863-0.962,1.178-1.198c0-0.02,0-0.059,0.02-0.078
			C105.493,13.916,106.082,13.542,106.514,13.424z M105.964,14.406c-2.337,1.964-1.747,3.319-1.041,3.28
			c0.413-0.04,0.924-0.314,1.61-1.14c2.004-2.435,0.864-3.318-0.569-2.298C106.003,14.308,106.003,14.367,105.964,14.406z
			 M108.596,11.618c0.255-0.236,0.255,0.471,0.255,0.471c-0.177,0.177-0.884,0.825-0.942,0.747
			c-0.098-0.079-0.157-0.314-0.118-0.354C107.85,12.403,108.478,11.735,108.596,11.618z"/>
		<path stroke="#334127" stroke-width="0.25" stroke-miterlimit="10" d="M112.288,13.562c0.55,0.333,0.118,1.374-0.707,2.415
			c-0.727,0.903-0.727,1.532-0.196,1.571c0.433,0.02,1.08-0.314,2.553-1.61c0.236-0.196,0.196,0.393,0.099,0.491
			c-0.079,0.098-1.709,1.728-2.651,1.688c-0.451-0.02-0.962-0.157-0.962-0.903c-0.02-0.864,0.864-1.826,1.178-2.356
			c0.55-0.864-0.078-1.002-1.08-0.118c-0.49,0.433-1.217,1.119-1.767,1.768c-0.394,0.707-0.728,1.257-0.786,1.315
			c-0.255,0.236-0.491-0.255-0.314-0.647c0.452-0.707,1.179-1.886,2.239-3.928c0.078-0.138,0.569,0.02,0.569,0.157
			c0,0.039-0.354,0.688-0.785,1.473C110.266,14.19,111.68,13.189,112.288,13.562z"/>
		<path stroke="#334127" stroke-width="0.25" stroke-miterlimit="10" d="M114.606,17.529c0.471,0.039,1.158-0.295,2.631-1.591
			c0.216-0.196,0.177,0.393,0.099,0.491c-0.099,0.098-2.16,2.238-3.358,1.394c-0.628-0.432-0.373-1.492,0.452-2.65
			c0.667-0.982,1.04-1.474,1.178-1.571c0.157-0.118,0.491,0.274,0.314,0.53c-0.138,0.216-1.237,1.649-1.513,2.317
			C114.115,17.116,114.193,17.489,114.606,17.529z M116.884,12.128c-0.313-0.157-0.688,0-0.844,0.313
			c-0.138,0.275-0.118,0.668,0.177,0.767C116.825,13.424,117.414,12.364,116.884,12.128z"/>
		<path stroke="#334127" stroke-width="0.25" stroke-miterlimit="10" d="M121.637,18.216c-1.001,0.156-1.61-0.53-1.315-1.513
			c-1.473,1.532-2.003,1.669-2.632,1.571c-0.727-0.118-1.217-1.257-0.156-2.77c1.06-1.492,2.493-1.943,3.023-1.943
			c0.472,0,0.884,0.313,0.982,0.805c0.177-0.216,0.314-0.373,0.373-0.393c0.157-0.079,0.569,0.274,0.569,0.373
			c0,0.059-0.511,0.569-0.962,1.061c-1.257,1.925-0.668,2.632,1.139,1.729c0.53-0.256,1.1-0.648,1.729-1.198
			c0.235-0.196,0.196,0.393,0.098,0.491C124.387,16.527,122.874,18.019,121.637,18.216z M120.95,15.172h-0.021
			c0,0,0.354-0.982-0.451-0.982c-1.768,0-3.633,3.123-2.612,3.378c0.963,0.255,2.75-2.003,2.887-2.121L120.95,15.172z"/>
	</g>
	<g>
		<path d="M38.673,29.839h1.108v8.825h-1.108V29.839z"/>
		<path d="M42.882,38.455c-0.561-0.271-0.842-0.688-0.842-1.249c0-0.29,0.11-0.545,0.33-0.765s0.493-0.367,0.82-0.442
			c-0.505-0.448-0.757-1.038-0.757-1.768s0.259-1.318,0.778-1.768s1.134-0.674,1.845-0.674s1.314,0.169,1.81,0.506
			c0.065-0.496,0.265-0.894,0.597-1.193c0.332-0.299,0.77-0.448,1.312-0.448l-0.098,1.094c-0.823,0-1.254,0.347-1.291,1.038
			c0.327,0.402,0.491,0.885,0.491,1.445c0,0.721-0.26,1.312-0.779,1.775c-0.519,0.463-1.166,0.694-1.942,0.694
			c-0.533,0-1.006-0.107-1.417-0.323c-0.188,0.038-0.355,0.124-0.505,0.26c-0.15,0.136-0.225,0.32-0.225,0.555
			c0,0.495,0.411,0.743,1.234,0.743h2.609c0.627,0,1.122,0.133,1.487,0.399c0.364,0.267,0.547,0.639,0.547,1.116
			c0,0.71-0.357,1.332-1.073,1.865s-1.62,0.8-2.715,0.8c-1.094,0-1.955-0.203-2.581-0.61c-0.627-0.406-0.94-0.919-0.94-1.536
			c0-0.402,0.119-0.729,0.358-0.982C42.174,38.735,42.489,38.557,42.882,38.455z M43.051,39.079
			c-0.253,0.21-0.379,0.493-0.379,0.849s0.194,0.661,0.582,0.919c0.388,0.257,0.978,0.386,1.768,0.386s1.45-0.171,1.979-0.512
			c0.528-0.342,0.793-0.741,0.793-1.2c0-0.215-0.077-0.399-0.231-0.554s-0.391-0.231-0.709-0.231h-2.708
			C43.668,38.753,43.303,38.868,43.051,39.079z M46.797,34.224c0-0.481-0.146-0.874-0.436-1.179
			c-0.29-0.304-0.689-0.456-1.199-0.456s-0.91,0.152-1.199,0.456c-0.29,0.305-0.436,0.699-0.436,1.186s0.147,0.887,0.442,1.2
			c0.294,0.313,0.694,0.47,1.199,0.47s0.902-0.159,1.192-0.478C46.651,35.106,46.797,34.706,46.797,34.224z"/>
		<path d="M53.264,32.898c-1.057,0-1.604,0.833-1.641,2.498v3.269h-1.108v-6.721h1.108v1.291c0.336-0.935,0.931-1.402,1.781-1.402
			c0.271,0,0.528,0.042,0.771,0.126l-0.056,1.08C53.84,32.945,53.554,32.898,53.264,32.898z"/>
		<path d="M58.188,37.921c0.927,0,1.455-0.407,1.586-1.221h1.137c-0.104,0.673-0.4,1.194-0.892,1.564
			c-0.491,0.369-1.101,0.554-1.831,0.554c-0.897,0-1.627-0.32-2.188-0.961c-0.561-0.641-0.842-1.494-0.842-2.561
			s0.283-1.917,0.849-2.554c0.566-0.636,1.319-0.954,2.26-0.954c0.939,0,1.641,0.365,2.104,1.095
			c0.464,0.729,0.625,1.618,0.484,2.666h-4.588c0,0.692,0.169,1.26,0.505,1.704C57.107,37.699,57.58,37.921,58.188,37.921z
			 M59.002,32.842c-0.216-0.112-0.478-0.169-0.786-0.169c-0.57,0-1.021,0.194-1.354,0.583c-0.332,0.388-0.526,0.872-0.582,1.452
			h3.577C59.857,33.773,59.572,33.151,59.002,32.842z"/>
		<path d="M62.145,41.148c0.823,0,1.234-0.515,1.234-1.543V31.93h1.108v7.675c0,1.281-0.421,2.071-1.263,2.37
			c-0.262,0.094-0.552,0.141-0.869,0.141c-0.58,0-1.207-0.173-1.881-0.519l0.057-0.969C61.12,40.975,61.658,41.148,62.145,41.148z
			 M63.927,30.373c-0.225,0-0.4-0.063-0.526-0.189c-0.126-0.126-0.189-0.294-0.189-0.505c0-0.21,0.063-0.379,0.189-0.505
			s0.302-0.189,0.526-0.189s0.404,0.063,0.54,0.189c0.135,0.126,0.203,0.295,0.203,0.505c0,0.211-0.068,0.379-0.203,0.505
			C64.331,30.31,64.151,30.373,63.927,30.373z"/>
		<path d="M71.657,34.315c0-0.607-0.127-1.042-0.379-1.305c-0.253-0.262-0.62-0.393-1.102-0.393c-0.482,0-0.87,0.096-1.165,0.288
			c-0.294,0.191-0.441,0.493-0.441,0.904H67.35c0-1.028,0.552-1.664,1.655-1.908c0.337-0.074,0.702-0.112,1.095-0.112
			c0.832,0,1.482,0.211,1.95,0.632s0.701,1.062,0.701,1.922v4.321h-0.954l-0.112-1.122c-0.411,0.851-1.155,1.276-2.23,1.276
			c-0.729,0-1.31-0.201-1.739-0.604c-0.431-0.401-0.646-0.902-0.646-1.501s0.243-1.066,0.729-1.403
			c0.477-0.336,1.075-0.505,1.796-0.505c0.72,0,1.407,0.122,2.063,0.365V34.315z M71.657,35.873c-0.665-0.187-1.244-0.28-1.74-0.28
			s-0.897,0.089-1.206,0.267c-0.31,0.178-0.464,0.458-0.464,0.842c0,0.842,0.478,1.263,1.432,1.263c0.542,0,1.008-0.194,1.396-0.583
			C71.463,36.993,71.657,36.49,71.657,35.873z"/>
		<path d="M83.091,32.955V29.11h1.094v9.555h-0.897l-0.141-1.122c-0.215,0.421-0.5,0.738-0.855,0.954
			c-0.355,0.215-0.744,0.322-1.165,0.322c-0.851,0-1.563-0.327-2.139-0.982c-0.575-0.654-0.863-1.508-0.863-2.561
			c0-1.052,0.283-1.896,0.849-2.532c0.566-0.636,1.281-0.954,2.146-0.954S82.642,32.178,83.091,32.955z M81.183,32.772
			c-0.543,0-0.999,0.229-1.368,0.688s-0.554,1.071-0.554,1.838s0.187,1.382,0.561,1.845s0.823,0.694,1.348,0.694
			c0.523,0,0.97-0.175,1.34-0.525c0.369-0.352,0.563-0.821,0.582-1.41v-1.095c0-0.626-0.183-1.122-0.548-1.487
			C82.179,32.955,81.725,32.772,81.183,32.772z"/>
		<path d="M91.187,34.315c0-0.607-0.127-1.042-0.379-1.305c-0.253-0.262-0.62-0.393-1.102-0.393c-0.482,0-0.87,0.096-1.165,0.288
			c-0.294,0.191-0.441,0.493-0.441,0.904h-1.221c0-1.028,0.552-1.664,1.655-1.908c0.337-0.074,0.702-0.112,1.095-0.112
			c0.832,0,1.482,0.211,1.95,0.632s0.701,1.062,0.701,1.922v4.321h-0.954l-0.112-1.122c-0.411,0.851-1.155,1.276-2.23,1.276
			c-0.729,0-1.31-0.201-1.739-0.604c-0.431-0.401-0.646-0.902-0.646-1.501s0.243-1.066,0.729-1.403
			c0.477-0.336,1.075-0.505,1.796-0.505c0.72,0,1.407,0.122,2.063,0.365V34.315z M91.187,35.873c-0.665-0.187-1.244-0.28-1.74-0.28
			s-0.897,0.089-1.206,0.267c-0.31,0.178-0.464,0.458-0.464,0.842c0,0.842,0.478,1.263,1.432,1.263c0.542,0,1.008-0.194,1.396-0.583
			C90.992,36.993,91.187,36.49,91.187,35.873z"/>
		<path d="M103.272,30.577c0.51,0.491,0.765,1.152,0.765,1.985c0,0.832-0.255,1.489-0.765,1.971s-1.251,0.723-2.224,0.723h-1.74
			v3.409H98.2v-8.825h2.849C102.021,29.839,102.763,30.085,103.272,30.577z M101.049,34.301c0.607,0,1.068-0.154,1.382-0.463
			s0.47-0.731,0.47-1.27s-0.156-0.969-0.47-1.291s-0.774-0.484-1.382-0.484h-1.74v3.508H101.049z"/>
		<path d="M110.154,34.315c0-0.607-0.127-1.042-0.379-1.305c-0.253-0.262-0.62-0.393-1.102-0.393c-0.482,0-0.87,0.096-1.165,0.288
			c-0.294,0.191-0.441,0.493-0.441,0.904h-1.221c0-1.028,0.552-1.664,1.655-1.908c0.337-0.074,0.702-0.112,1.095-0.112
			c0.832,0,1.482,0.211,1.95,0.632s0.701,1.062,0.701,1.922v4.321h-0.954l-0.112-1.122c-0.411,0.851-1.155,1.276-2.23,1.276
			c-0.729,0-1.31-0.201-1.739-0.604c-0.431-0.401-0.646-0.902-0.646-1.501s0.243-1.066,0.729-1.403
			c0.477-0.336,1.075-0.505,1.796-0.505c0.72,0,1.407,0.122,2.063,0.365V34.315z M110.154,35.873c-0.665-0.187-1.244-0.28-1.74-0.28
			s-0.897,0.089-1.206,0.267c-0.31,0.178-0.464,0.458-0.464,0.842c0,0.842,0.478,1.263,1.432,1.263c0.542,0,1.008-0.194,1.396-0.583
			C109.96,36.993,110.154,36.49,110.154,35.873z"/>
		<path d="M116.593,32.898c-1.057,0-1.604,0.833-1.641,2.498v3.269h-1.108v-6.721h1.108v1.291c0.336-0.935,0.931-1.402,1.781-1.402
			c0.271,0,0.528,0.042,0.771,0.126l-0.056,1.08C117.169,32.945,116.883,32.898,116.593,32.898z"/>
		<path d="M121.518,37.921c0.927,0,1.455-0.407,1.586-1.221h1.137c-0.104,0.673-0.4,1.194-0.892,1.564
			c-0.491,0.369-1.101,0.554-1.831,0.554c-0.897,0-1.627-0.32-2.188-0.961c-0.561-0.641-0.842-1.494-0.842-2.561
			s0.283-1.917,0.849-2.554c0.566-0.636,1.319-0.954,2.26-0.954c0.939,0,1.641,0.365,2.104,1.095
			c0.464,0.729,0.625,1.618,0.484,2.666h-4.588c0,0.692,0.169,1.26,0.505,1.704C120.438,37.699,120.91,37.921,121.518,37.921z
			 M122.332,32.842c-0.216-0.112-0.478-0.169-0.786-0.169c-0.57,0-1.021,0.194-1.354,0.583c-0.332,0.388-0.526,0.872-0.582,1.452
			h3.577C123.188,33.773,122.902,33.151,122.332,32.842z"/>
		<path d="M130.82,32.955V29.11h1.094v9.555h-0.897l-0.141-1.122c-0.215,0.421-0.5,0.738-0.855,0.954
			c-0.355,0.215-0.744,0.322-1.165,0.322c-0.851,0-1.563-0.327-2.139-0.982c-0.575-0.654-0.863-1.508-0.863-2.561
			c0-1.052,0.283-1.896,0.849-2.532c0.566-0.636,1.281-0.954,2.146-0.954S130.371,32.178,130.82,32.955z M128.912,32.772
			c-0.543,0-0.999,0.229-1.368,0.688s-0.554,1.071-0.554,1.838s0.187,1.382,0.561,1.845s0.823,0.694,1.348,0.694
			c0.523,0,0.97-0.175,1.34-0.525c0.369-0.352,0.563-0.821,0.582-1.41v-1.095c0-0.626-0.183-1.122-0.548-1.487
			C129.908,32.955,129.454,32.772,128.912,32.772z"/>
		<path d="M137.076,37.921c0.927,0,1.455-0.407,1.586-1.221h1.137c-0.104,0.673-0.4,1.194-0.892,1.564
			c-0.491,0.369-1.101,0.554-1.831,0.554c-0.897,0-1.627-0.32-2.188-0.961c-0.561-0.641-0.842-1.494-0.842-2.561
			s0.283-1.917,0.849-2.554c0.566-0.636,1.319-0.954,2.26-0.954c0.939,0,1.641,0.365,2.104,1.095
			c0.464,0.729,0.625,1.618,0.484,2.666h-4.588c0,0.692,0.169,1.26,0.505,1.704C135.996,37.699,136.469,37.921,137.076,37.921z
			 M137.891,32.842c-0.216-0.112-0.478-0.169-0.786-0.169c-0.57,0-1.021,0.194-1.354,0.583c-0.332,0.388-0.526,0.872-0.582,1.452
			h3.577C138.746,33.773,138.461,33.151,137.891,32.842z"/>
		<path d="M141.511,38.524c-0.141-0.121-0.211-0.285-0.211-0.49c0-0.206,0.072-0.379,0.218-0.52
			c0.145-0.141,0.351-0.211,0.617-0.211s0.488,0.105,0.666,0.316c0.178,0.21,0.267,0.475,0.267,0.792
			c0,0.318-0.103,0.644-0.309,0.976s-0.519,0.601-0.939,0.807l-0.828-0.407c0.58-0.28,0.931-0.631,1.052-1.052
			C141.828,38.716,141.65,38.646,141.511,38.524z"/>
		<path d="M147.543,30.527c0.627-0.084,1.174-0.322,1.642-0.715h0.897v8.853h-1.094V31.13c-0.468,0.3-0.949,0.463-1.445,0.491
			V30.527z"/>
		<path d="M152.187,30.527c0.627-0.084,1.174-0.322,1.642-0.715h0.897v8.853h-1.094V31.13c-0.468,0.3-0.949,0.463-1.445,0.491
			V30.527z"/>
		<path d="M158.668,33.193c0.449-0.936,1.192-1.403,2.23-1.403c0.795,0,1.415,0.263,1.859,0.786s0.666,1.239,0.666,2.146v3.942
			h-1.094v-3.942c0-0.646-0.152-1.132-0.456-1.459c-0.305-0.327-0.741-0.491-1.313-0.491c-0.57,0-1.028,0.241-1.374,0.723
			c-0.347,0.481-0.52,1.148-0.52,1.999v3.171h-1.108V29.11h1.108V33.193z"/>
	</g>
	<g>
		<path stroke="#334127" stroke-width="0.25" stroke-miterlimit="10" d="M70.444,75.238c1.59-1.296,3.142-0.981,2.945-0.039
			c-0.118,0.472-0.668,0.923-0.825,1.041c-0.098,0.078-0.471-0.275-0.177-0.511c0.511-0.432,0.314-1.002-0.235-0.864
			c-0.393,0.099-1.453,0.806-2.003,1.61c-1.414,2.102,0.746,3.279,3.889,0.491c0.235-0.196,0.196,0.393,0.117,0.491
			c-0.098,0.098-1.453,1.512-2.671,1.669c-1.021,0.157-1.865-0.059-2.258-0.727C68.931,77.87,68.696,76.652,70.444,75.238z"/>
		<path stroke="#334127" stroke-width="0.25" stroke-miterlimit="10" d="M76.629,74.453c1.847-0.53,2.593,1.276,0.04,3.889
			c-2.121,2.18-3.869,0.353-2.317-1.905c0.373-0.53,0.863-0.962,1.178-1.198c0-0.02,0-0.059,0.02-0.078
			C75.609,74.944,76.198,74.571,76.629,74.453z M76.08,75.434c-2.337,1.964-1.748,3.319-1.041,3.28
			c0.413-0.04,0.924-0.314,1.61-1.14c2.004-2.435,0.864-3.318-0.569-2.298C76.119,75.336,76.119,75.395,76.08,75.434z"/>
		<path stroke="#334127" stroke-width="0.25" stroke-miterlimit="10" d="M79.812,73.843c0.078-0.137,0.746-0.196,0.647,0.099
			c-0.196,0.589-0.393,1.158-0.589,1.709c0.569-0.53,1.119-0.825,1.571-0.825c1.021,0.02,1.296,1.531,0.02,3.201
			c-1.335,1.747-2.239,1.473-2.69,1.061c-1.041,3.928-2.514,7.854-3.613,7.58c-2.396-0.589,2.435-8.916,3.81-10.094
			C79.36,74.923,79.733,73.961,79.812,73.843z M75.216,84.978c-0.451,3.555,1.61-1.63,1.807-2.18
			c0.491-1.414,1.041-3.063,1.395-4.241c0-0.079,0.039-0.177,0.078-0.275c-0.923,1.336-1.787,2.828-2.277,3.81
			C75.688,83.211,75.295,84.232,75.216,84.978z M78.967,78.341c0.295,0.962,1.434,0.294,2.121-0.747
			c0.845-1.315,0.785-2.101,0.216-2.081c-0.491,0-1.198,0.688-1.964,1.649C79.164,77.654,79.026,78.066,78.967,78.341z"/>
		<path stroke="#334127" stroke-width="0.25" stroke-miterlimit="10" d="M85.507,74.453c1.847-0.53,2.593,1.276,0.04,3.889
			c-2.121,2.18-3.869,0.353-2.317-1.905c0.373-0.53,0.863-0.962,1.178-1.198c0-0.02,0-0.059,0.02-0.078
			C84.487,74.944,85.076,74.571,85.507,74.453z M84.958,75.434c-2.337,1.964-1.747,3.319-1.041,3.28
			c0.413-0.04,0.924-0.314,1.61-1.14c2.004-2.435,0.864-3.318-0.569-2.298C84.997,75.336,84.997,75.395,84.958,75.434z"/>
		<path stroke="#334127" stroke-width="0.25" stroke-miterlimit="10" d="M94.915,77.084c-0.177,0.883-0.02,1.453,0.452,1.492
			c0.432,0.02,1.1-0.314,2.553-1.61c0.235-0.196,0.196,0.393,0.118,0.491c-0.099,0.098-1.729,1.728-2.671,1.688
			c-0.589-0.02-1.061-0.55-1.08-1.512c-0.648,0.569-1.139,0.942-1.336,1.06c-1.688,1.002-2.67-0.647-0.923-2.67
			c1.453-1.67,2.632-1.434,3.044-1.179c0.433-0.805,1.061-1.729,1.925-2.729c4.025-4.674,6.402-3.731,1.473,1.512
			C97.212,74.963,95.936,76.18,94.915,77.084z M92.441,76.495c-1.276,1.964-0.648,2.553,0.805,1.414
			c0.373-0.274,0.727-0.589,1.08-0.884c0.059-0.451,0.196-0.942,0.433-1.492C94.463,74.59,93.049,75.591,92.441,76.495z
			 M98.842,72.351c3.3-3.535,1.414-3.221-1.434,0.157c-1.119,1.355-1.865,2.69-2.258,3.751
			C97.016,74.511,98.489,72.724,98.842,72.351z"/>
		<path stroke="#334127" stroke-width="0.25" stroke-miterlimit="10" d="M102.379,76.966c0.235-0.196,0.196,0.393,0.098,0.491
			c-0.078,0.098-1.61,1.61-2.848,1.787c-1.001,0.137-1.649-0.217-1.904-0.943c-0.314-0.785,0.117-1.885,1.041-2.729
			c2.18-1.983,3.652-1.139,2.062,0.707c-0.354,0.393-1.964,1.649-2.533,1.905c0.138,0.608,0.825,0.844,2.376,0.078
			C101.181,78.007,101.77,77.516,102.379,76.966z M100.082,76.24c1.375-1.336,0.707-1.669-0.668-0.452
			c-0.511,0.472-0.923,1.14-1.08,1.709C98.726,77.281,99.551,76.75,100.082,76.24z"/>
		<path stroke="#334127" stroke-width="0.25" stroke-miterlimit="10" d="M110.726,79.245c-1.001,0.156-1.61-0.53-1.315-1.513
			c-1.473,1.532-2.003,1.669-2.632,1.571c-0.727-0.118-1.217-1.257-0.156-2.77c1.06-1.492,2.493-1.943,3.023-1.943
			c0.472,0,0.884,0.313,0.982,0.805c0.177-0.216,0.314-0.373,0.373-0.393c0.157-0.079,0.569,0.274,0.569,0.373
			c0,0.059-0.511,0.569-0.962,1.061c-1.257,1.925-0.668,2.632,1.139,1.729c0.53-0.256,1.1-0.648,1.729-1.198
			c0.235-0.196,0.196,0.393,0.098,0.491C113.476,77.555,111.963,79.047,110.726,79.245z M110.04,76.201h-0.021
			c0,0,0.354-0.982-0.451-0.982c-1.768,0-3.633,3.123-2.612,3.378c0.963,0.255,2.75-2.003,2.887-2.121L110.04,76.201z
			 M111.001,72.646c0.255-0.236,0.255,0.471,0.255,0.471c-0.177,0.177-0.884,0.825-0.942,0.747
			c-0.098-0.079-0.157-0.314-0.118-0.354C110.255,73.431,110.883,72.763,111.001,72.646z"/>
		<path stroke="#334127" stroke-width="0.25" stroke-miterlimit="10" d="M118.996,74.845c-0.943,0.806-1.709,2.514-2.651,4.399
			c0.962-0.511,1.944-1.08,2.435-1.434c0.295-0.217,0.629-0.491,1.041-0.845c0.216-0.196,0.177,0.393,0.099,0.491
			c-0.06,0.059-0.609,0.608-1.257,1.061c-0.727,0.529-1.67,0.981-2.69,1.453c-0.825,1.57-1.787,3.2-3.083,4.497
			c-0.982,0.942-2.004,1.178-2.475,0.863c-0.746-0.53-0.923-2.729,4.771-5.498c0.138-0.079,0.275-0.138,0.413-0.216
			c0.334-0.629,0.608-1.198,0.863-1.729c-1.217,1.1-2.356,1.748-3.023,0.942c-1.021-1.218,1.473-4.693,3.711-4.222
			c0.394,0.078,0.609,0.412,0.727,0.688c0.157-0.217,0.334-0.433,0.53-0.648C118.543,74.492,119.27,74.61,118.996,74.845z
			 M110.924,84.861c0.177,0.098,1.001-0.039,1.708-0.884c1.159-1.414,1.964-2.612,2.572-3.652
			C111.395,82.17,110.354,84.507,110.924,84.861z M116.776,75.16c-2.141,0.138-3.908,4.045-2.101,3.279
			c1.688-0.727,2.376-1.925,2.769-2.494C117.444,75.494,117.228,75.121,116.776,75.16z"/>
		<path stroke="#334127" stroke-width="0.25" stroke-miterlimit="10" d="M122.354,77.378c-1.473,1.846-2.887,2.22-2.769,0.53
			c0.117-1.708,1.885-3.162,1.963-3.26c0.099-0.099,0.668,0.039,0.433,0.354c-0.216,0.274-1.276,1.375-1.591,2.278
			c-0.334,0.884-0.177,1.394,0.727,0.707c0.884-0.668,2.063-2.16,2.789-3.28c0.098-0.177,0.746-0.059,0.51,0.256
			c-0.235,0.313-1.08,1.512-1.434,2.297c-0.608,1.355,0.275,1.414,0.806,1.198c0.432-0.157,1.041-0.668,1.964-1.492
			c0.235-0.196,0.196,0.393,0.098,0.491c-0.078,0.098-1.669,1.688-2.65,1.688C122.276,79.146,121.824,78.165,122.354,77.378z"/>
		<path stroke="#334127" stroke-width="0.25" stroke-miterlimit="10" d="M130.151,79.245c-1.001,0.156-1.61-0.53-1.315-1.513
			c-1.473,1.532-2.003,1.669-2.632,1.571c-0.727-0.118-1.217-1.257-0.157-2.77c1.061-1.492,2.494-1.943,3.024-1.943
			c0.472,0,0.884,0.313,0.982,0.805c0.177-0.216,0.314-0.373,0.373-0.393c0.157-0.079,0.569,0.274,0.569,0.373
			c0,0.059-0.511,0.569-0.962,1.061c-1.257,1.925-0.668,2.632,1.139,1.729c0.53-0.256,1.1-0.648,1.729-1.198
			c0.235-0.196,0.196,0.393,0.098,0.491C132.901,77.555,131.388,79.047,130.151,79.245z M129.464,76.201h-0.021
			c0,0,0.354-0.982-0.451-0.982c-1.768,0-3.633,3.123-2.612,3.378c0.963,0.255,2.75-2.003,2.887-2.121L129.464,76.201z"/>
	</g>
	<g>
		<path d="M28.326,101.771c-0.374,0.178-0.767,0.267-1.178,0.267c-0.796,0-1.479-0.416-2.049-1.248l-0.659-0.94
			c-1.132-0.019-2.041-0.416-2.729-1.192s-1.031-1.903-1.031-3.381c0-1.479,0.348-2.607,1.045-3.389
			c0.696-0.781,1.62-1.172,2.771-1.172c1.142,0,2.065,0.391,2.771,1.172s1.059,1.915,1.059,3.402c0,1.234-0.247,2.229-0.743,2.981
			s-1.169,1.237-2.021,1.452l0.436,0.617c0.271,0.364,0.594,0.557,0.968,0.575c0.402,0,0.855-0.117,1.36-0.351V101.771z
			 M26.454,92.638c-0.482-0.617-1.135-0.927-1.958-0.927s-1.473,0.31-1.95,0.927c-0.477,0.617-0.715,1.506-0.715,2.665
			c0,1.16,0.238,2.039,0.715,2.638c0.478,0.599,1.127,0.898,1.95,0.898s1.476-0.3,1.958-0.898c0.481-0.599,0.722-1.478,0.722-2.638
			C27.175,94.144,26.935,93.255,26.454,92.638z"/>
		<path d="M35.088,98.362c-0.458,0.973-1.202,1.459-2.23,1.459c-0.758,0-1.368-0.21-1.831-0.631s-0.694-1.071-0.694-1.95v-4.266
			h1.108v4.182c0,1.132,0.523,1.697,1.571,1.697c0.607,0,1.102-0.233,1.48-0.701c0.378-0.468,0.577-1.066,0.596-1.796v-3.382h1.108
			v6.721h-1.108V98.362z"/>
		<path d="M39.648,91.403c-0.225,0-0.399-0.063-0.526-0.189c-0.126-0.126-0.189-0.294-0.189-0.505c0-0.21,0.063-0.379,0.189-0.505
			c0.127-0.126,0.302-0.189,0.526-0.189s0.404,0.063,0.54,0.189s0.204,0.295,0.204,0.505c0,0.211-0.068,0.379-0.204,0.505
			C40.052,91.34,39.873,91.403,39.648,91.403z M39.101,92.974h1.108v6.721h-1.108V92.974z"/>
		<path d="M44.292,94.28c0.439-0.973,1.192-1.46,2.259-1.46c0.795,0,1.414,0.263,1.858,0.786s0.667,1.239,0.667,2.146v3.942h-1.095
			v-3.942c0-0.646-0.152-1.132-0.456-1.459s-0.736-0.491-1.298-0.491c-0.561,0-1.015,0.229-1.36,0.688
			c-0.347,0.458-0.528,1.095-0.547,1.908v3.297h-1.108v-6.706h0.954L44.292,94.28z"/>
		<path d="M55.193,99.499c-0.805,0.374-1.539,0.453-2.203,0.238c-0.477-0.149-0.813-0.463-1.01-0.939
			c-0.104-0.234-0.154-0.515-0.154-0.842v-4.125h-1.081v-0.842h1.081v-1.866h1.094v1.866h2.104v0.842h-2.104v4.11
			c0,0.683,0.318,1.024,0.954,1.024c0.346,0,0.734-0.084,1.165-0.253L55.193,99.499z"/>
		<path d="M61.114,95.345c0-0.607-0.127-1.042-0.379-1.305c-0.253-0.262-0.62-0.393-1.102-0.393c-0.482,0-0.87,0.096-1.165,0.288
			c-0.294,0.191-0.441,0.493-0.441,0.904h-1.221c0-1.028,0.552-1.664,1.655-1.908c0.337-0.074,0.702-0.112,1.095-0.112
			c0.832,0,1.482,0.211,1.95,0.632s0.701,1.062,0.701,1.922v4.321h-0.954l-0.112-1.122c-0.411,0.851-1.155,1.276-2.23,1.276
			c-0.729,0-1.31-0.201-1.739-0.604c-0.431-0.401-0.646-0.902-0.646-1.501s0.243-1.066,0.729-1.403
			c0.477-0.336,1.075-0.505,1.796-0.505c0.72,0,1.407,0.122,2.063,0.365V95.345z M61.114,96.903c-0.665-0.187-1.244-0.28-1.74-0.28
			s-0.897,0.089-1.206,0.267c-0.31,0.178-0.464,0.458-0.464,0.842c0,0.842,0.478,1.263,1.432,1.263c0.542,0,1.008-0.194,1.396-0.583
			C60.919,98.023,61.114,97.52,61.114,96.903z"/>
		<path d="M72.547,93.985V90.14h1.094v9.555h-0.897l-0.141-1.122c-0.215,0.421-0.5,0.738-0.855,0.954
			c-0.355,0.215-0.744,0.322-1.165,0.322c-0.851,0-1.563-0.327-2.139-0.982c-0.575-0.654-0.863-1.508-0.863-2.561
			c0-1.052,0.283-1.896,0.849-2.532c0.566-0.636,1.281-0.954,2.146-0.954S72.098,93.208,72.547,93.985z M70.639,93.802
			c-0.543,0-0.999,0.229-1.368,0.688s-0.554,1.071-0.554,1.838s0.187,1.382,0.561,1.845s0.823,0.694,1.348,0.694
			c0.523,0,0.97-0.175,1.34-0.525c0.369-0.352,0.563-0.821,0.582-1.41v-1.095c0-0.626-0.183-1.122-0.548-1.487
			C71.635,93.985,71.181,93.802,70.639,93.802z"/>
		<path d="M80.643,95.345c0-0.607-0.127-1.042-0.379-1.305c-0.253-0.262-0.62-0.393-1.102-0.393c-0.482,0-0.87,0.096-1.165,0.288
			c-0.294,0.191-0.441,0.493-0.441,0.904h-1.221c0-1.028,0.552-1.664,1.655-1.908c0.337-0.074,0.702-0.112,1.095-0.112
			c0.832,0,1.482,0.211,1.95,0.632s0.701,1.062,0.701,1.922v4.321h-0.954l-0.112-1.122c-0.411,0.851-1.155,1.276-2.23,1.276
			c-0.729,0-1.31-0.201-1.739-0.604c-0.431-0.401-0.646-0.902-0.646-1.501s0.243-1.066,0.729-1.403
			c0.477-0.336,1.075-0.505,1.796-0.505c0.72,0,1.407,0.122,2.063,0.365V95.345z M80.643,96.903c-0.665-0.187-1.244-0.28-1.74-0.28
			s-0.897,0.089-1.206,0.267c-0.31,0.178-0.464,0.458-0.464,0.842c0,0.842,0.478,1.263,1.432,1.263c0.542,0,1.008-0.194,1.396-0.583
			C80.449,98.023,80.643,97.52,80.643,96.903z"/>
		<path d="M89.27,90.87l2.975,5.978l2.946-5.978h1.558v8.825H95.64v-7.253l-3.03,6.145h-0.744l-3.072-6.243v7.352h-1.108V90.87
			H89.27z"/>
		<path d="M104.142,98.362c-0.458,0.973-1.202,1.459-2.23,1.459c-0.758,0-1.368-0.21-1.831-0.631s-0.694-1.071-0.694-1.95v-4.266
			h1.108v4.182c0,1.132,0.523,1.697,1.571,1.697c0.607,0,1.102-0.233,1.48-0.701c0.378-0.468,0.577-1.066,0.596-1.796v-3.382h1.108
			v6.721h-1.108V98.362z"/>
		<path d="M110.82,93.928c-1.057,0-1.604,0.833-1.641,2.498v3.269h-1.108v-6.721h1.108v1.291c0.336-0.935,0.931-1.402,1.781-1.402
			c0.271,0,0.528,0.042,0.771,0.126l-0.056,1.08C111.396,93.975,111.11,93.928,110.82,93.928z"/>
		<path d="M116.937,99.499c-0.805,0.374-1.539,0.453-2.203,0.238c-0.477-0.149-0.813-0.463-1.01-0.939
			c-0.104-0.234-0.154-0.515-0.154-0.842v-4.125h-1.081v-0.842h1.081v-1.866h1.094v1.866h2.104v0.842h-2.104v4.11
			c0,0.683,0.318,1.024,0.954,1.024c0.346,0,0.734-0.084,1.165-0.253L116.937,99.499z"/>
		<path d="M122.858,95.345c0-0.607-0.127-1.042-0.379-1.305c-0.253-0.262-0.62-0.393-1.102-0.393c-0.482,0-0.87,0.096-1.165,0.288
			c-0.294,0.191-0.441,0.493-0.441,0.904h-1.221c0-1.028,0.552-1.664,1.655-1.908c0.337-0.074,0.702-0.112,1.095-0.112
			c0.832,0,1.482,0.211,1.95,0.632s0.701,1.062,0.701,1.922v4.321h-0.954l-0.112-1.122c-0.411,0.851-1.155,1.276-2.23,1.276
			c-0.729,0-1.31-0.201-1.739-0.604c-0.431-0.401-0.646-0.902-0.646-1.501s0.243-1.066,0.729-1.403
			c0.477-0.336,1.075-0.505,1.796-0.505c0.72,0,1.407,0.122,2.063,0.365V95.345z M122.858,96.903c-0.665-0.187-1.244-0.28-1.74-0.28
			s-0.897,0.089-1.206,0.267c-0.31,0.178-0.464,0.458-0.464,0.842c0,0.842,0.478,1.263,1.432,1.263c0.542,0,1.008-0.194,1.396-0.583
			C122.664,98.023,122.858,97.52,122.858,96.903z"/>
		<path d="M126.084,99.554c-0.141-0.121-0.211-0.285-0.211-0.49c0-0.206,0.072-0.379,0.218-0.52
			c0.145-0.141,0.351-0.211,0.617-0.211s0.488,0.105,0.666,0.316c0.178,0.21,0.267,0.475,0.267,0.792
			c0,0.318-0.103,0.644-0.309,0.976s-0.519,0.601-0.939,0.807l-0.828-0.407c0.58-0.28,0.931-0.631,1.052-1.052
			C126.402,99.747,126.224,99.676,126.084,99.554z"/>
		<path d="M132.846,90.87h3.297c0.926,0,1.64,0.221,2.14,0.66s0.751,0.991,0.751,1.655c0,0.505-0.139,0.944-0.414,1.318
			c-0.276,0.375-0.694,0.627-1.256,0.758c0.552,0.094,0.994,0.332,1.326,0.716s0.498,0.818,0.498,1.305
			c0,1.085-0.529,1.819-1.586,2.203c-0.393,0.14-0.874,0.21-1.444,0.21h-3.312V90.87z M133.955,94.812h2.16
			c0.543,0,0.976-0.133,1.298-0.399c0.323-0.267,0.484-0.634,0.484-1.102s-0.157-0.832-0.47-1.094
			c-0.313-0.262-0.751-0.394-1.313-0.394h-2.16V94.812z M136.129,98.727c0.673,0,1.155-0.136,1.445-0.407
			c0.289-0.271,0.435-0.631,0.435-1.08s-0.159-0.807-0.478-1.073c-0.317-0.267-0.785-0.4-1.402-0.4h-2.175v2.961H136.129z"/>
		<path d="M146.132,98.362c-0.458,0.973-1.202,1.459-2.23,1.459c-0.758,0-1.368-0.21-1.831-0.631s-0.694-1.071-0.694-1.95v-4.266
			h1.108v4.182c0,1.132,0.523,1.697,1.571,1.697c0.607,0,1.102-0.233,1.48-0.701c0.378-0.468,0.577-1.066,0.596-1.796v-3.382h1.108
			v6.721h-1.108V98.362z"/>
		<path d="M152.312,92.82c0.791,0,1.42,0.204,1.888,0.61c0.468,0.407,0.771,0.915,0.912,1.522l-1.123,0.099
			c-0.121-0.394-0.317-0.699-0.589-0.919s-0.57-0.33-0.898-0.33c-0.599,0-1.082,0.225-1.452,0.674
			c-0.369,0.448-0.554,1.059-0.554,1.83c0,0.772,0.18,1.392,0.54,1.859s0.809,0.701,1.347,0.701s0.94-0.123,1.207-0.371
			s0.399-0.602,0.399-1.06h1.137c0,0.721-0.25,1.303-0.751,1.747c-0.5,0.444-1.152,0.666-1.957,0.666
			c-0.851,0-1.573-0.322-2.167-0.968c-0.595-0.646-0.892-1.504-0.892-2.575c0-1.07,0.295-1.919,0.884-2.546
			C150.833,93.133,151.522,92.82,152.312,92.82z"/>
		<path d="M159.615,98.952c0.927,0,1.455-0.407,1.586-1.221h1.137c-0.104,0.673-0.4,1.194-0.892,1.564
			c-0.491,0.369-1.101,0.554-1.831,0.554c-0.897,0-1.627-0.32-2.188-0.961c-0.561-0.641-0.842-1.494-0.842-2.561
			s0.283-1.917,0.849-2.554c0.566-0.636,1.319-0.954,2.26-0.954c0.939,0,1.641,0.365,2.104,1.095
			c0.464,0.729,0.625,1.618,0.484,2.666h-4.588c0,0.692,0.169,1.26,0.505,1.704C158.535,98.729,159.007,98.952,159.615,98.952z
			 M160.429,93.873c-0.216-0.112-0.478-0.169-0.786-0.169c-0.57,0-1.021,0.194-1.354,0.583c-0.332,0.388-0.526,0.872-0.582,1.452
			h3.577C161.285,94.803,161,94.181,160.429,93.873z"/>
		<path d="M164.526,90.14h1.108v9.555h-1.108V90.14z"/>
		<path d="M172.607,95.345c0-0.607-0.127-1.042-0.379-1.305c-0.253-0.262-0.62-0.393-1.102-0.393c-0.482,0-0.87,0.096-1.165,0.288
			c-0.294,0.191-0.441,0.493-0.441,0.904h-1.221c0-1.028,0.552-1.664,1.655-1.908c0.337-0.074,0.702-0.112,1.095-0.112
			c0.832,0,1.482,0.211,1.95,0.632s0.701,1.062,0.701,1.922v4.321h-0.954l-0.112-1.122c-0.411,0.851-1.155,1.276-2.23,1.276
			c-0.729,0-1.31-0.201-1.739-0.604c-0.431-0.401-0.646-0.902-0.646-1.501s0.243-1.066,0.729-1.403
			c0.477-0.336,1.075-0.505,1.796-0.505c0.72,0,1.407,0.122,2.063,0.365V95.345z M172.607,96.903c-0.665-0.187-1.244-0.28-1.74-0.28
			s-0.897,0.089-1.206,0.267c-0.31,0.178-0.464,0.458-0.464,0.842c0,0.842,0.478,1.263,1.432,1.263c0.542,0,1.008-0.194,1.396-0.583
			C172.413,98.023,172.607,97.52,172.607,96.903z"/>
		<path d="M176.667,93.311c0.473-0.327,1.111-0.491,1.915-0.491c0.805,0,1.434,0.169,1.888,0.506
			c0.453,0.336,0.689,0.762,0.708,1.276h-1.08c-0.084-0.608-0.599-0.912-1.543-0.912c-0.459,0-0.812,0.104-1.06,0.309
			c-0.248,0.206-0.372,0.428-0.372,0.667c0,0.238,0.094,0.439,0.281,0.603c0.187,0.164,0.485,0.307,0.897,0.429l1.347,0.448
			c0.57,0.178,1.008,0.405,1.313,0.681c0.304,0.276,0.455,0.655,0.455,1.137s-0.247,0.916-0.743,1.305
			c-0.496,0.388-1.188,0.582-2.076,0.582s-1.581-0.198-2.076-0.597c-0.496-0.397-0.758-0.909-0.786-1.536h1.066
			c0.019,0.421,0.189,0.737,0.512,0.947c0.323,0.211,0.728,0.315,1.214,0.315s0.889-0.103,1.206-0.309
			c0.318-0.205,0.478-0.451,0.478-0.736s-0.094-0.503-0.28-0.652c-0.188-0.149-0.491-0.28-0.912-0.393l-1.305-0.436
			c-1.17-0.346-1.754-0.954-1.754-1.823C175.959,94.079,176.196,93.639,176.667,93.311z"/>
	</g>
	<g>
		<g>
			<g>
				<g>
					<g>
						<path d="M104.702,58.718c-0.181,0-0.359-0.069-0.497-0.206l-7.304-7.306c-0.275-0.274-0.275-0.718,0-0.992
							c0.273-0.274,0.717-0.274,0.99,0l7.307,7.306c0.273,0.274,0.273,0.719,0,0.992C105.059,58.649,104.88,58.718,104.702,58.718z"
							/>
					</g>
				</g>
			</g>
			<g>
				<g>
					<g>
						<path d="M97.396,58.718c-0.181,0-0.359-0.069-0.495-0.206c-0.275-0.273-0.275-0.718,0-0.992l7.304-7.306
							c0.274-0.274,0.719-0.274,0.993,0c0.273,0.274,0.273,0.718,0,0.992l-7.307,7.306C97.755,58.649,97.575,58.718,97.396,58.718z"
							/>
					</g>
				</g>
			</g>
		</g>
		<g>
			<g>
				<g>
					<path d="M88.303,55.064H12.542c-0.387,0-0.701-0.314-0.701-0.701c0-0.388,0.314-0.701,0.701-0.701h75.761
						c0.388,0,0.702,0.313,0.702,0.701C89.005,54.75,88.691,55.064,88.303,55.064z"/>
				</g>
			</g>
		</g>
		<g>
			<g>
				<g>
					<path d="M189.554,55.064h-75.762c-0.388,0-0.701-0.314-0.701-0.701c0-0.388,0.313-0.701,0.701-0.701h75.762
						c0.388,0,0.701,0.313,0.701,0.701C190.255,54.75,189.942,55.064,189.554,55.064z"/>
				</g>
			</g>
		</g>
	</g>
</g>
</svg>
