<?xml version="1.0" encoding="utf-8"?>
<!-- Generator: Adobe Illustrator 16.0.0, SVG Export Plug-In . SVG Version: 6.00 Build 0)  -->
<!DOCTYPE svg PUBLIC "-//W3C//DTD SVG 1.1//EN" "http://www.w3.org/Graphics/SVG/1.1/DTD/svg11.dtd">
<svg version="1.1" id="Layer_1" xmlns="http://www.w3.org/2000/svg" xmlns:xlink="http://www.w3.org/1999/xlink" x="0px" y="0px"
	 width="334px" height="391px" viewBox="0 0 334 391" enable-background="new 0 0 334 391" xml:space="preserve">
<g>
	<path fill="#FFFFFF" d="M116.722,154.608l6.848,13.761l6.784-13.761h3.585v20.318h-2.552v-16.7l-6.978,14.148h-1.712L115.624,158
		v16.927h-2.552v-20.318H116.722z"/>
	<path fill="#FFFFFF" d="M148.25,154.608h3.101l6.815,20.318h-2.648l-1.745-5.168h-8.076l-1.744,5.168h-2.681L148.25,154.608z
		 M146.376,167.756h6.751l-3.359-10.014L146.376,167.756z"/>
	<path fill="#FFFFFF" d="M179.647,160.423c0,1.68-0.447,3.036-1.341,4.07c-0.894,1.033-2.213,1.701-3.957,2.003l5.814,8.431h-3.295
		l-5.266-8.302h-3.553v8.302h-2.552v-20.318h7.074c2.282,0,4.032,0.549,5.249,1.647S179.647,158.743,179.647,160.423z
		 M172.379,164.849c1.529,0,2.687-0.372,3.473-1.114c0.786-0.743,1.18-1.723,1.18-2.94c0-1.216-0.383-2.185-1.146-2.907
		c-0.766-0.721-1.869-1.082-3.312-1.082h-4.522v8.044H172.379z"/>
	<path fill="#FFFFFF" d="M185.461,154.608h15.797v2.196h-6.623v18.122h-2.551v-18.122h-6.623V154.608z"/>
	<path fill="#FFFFFF" d="M211.207,154.608h3.101l6.815,20.318h-2.648l-1.744-5.168h-8.076l-1.744,5.168h-2.682L211.207,154.608z
		 M209.333,167.756h6.751l-3.359-10.014L209.333,167.756z"/>
</g>
<g>
	<path fill="#FFFFFF" stroke="#FFFFFF" stroke-width="0.5" stroke-miterlimit="10" d="M135.555,126.298
		c1.744-1.421,3.445-1.077,3.229-0.043c-0.129,0.517-0.732,1.012-0.904,1.141c-0.107,0.086-0.517-0.302-0.193-0.56
		c0.56-0.474,0.344-1.099-0.259-0.947c-0.43,0.107-1.593,0.883-2.196,1.766c-1.55,2.304,0.818,3.595,4.263,0.538
		c0.259-0.216,0.215,0.431,0.129,0.538c-0.107,0.107-1.593,1.658-2.928,1.83c-1.12,0.172-2.045-0.064-2.476-0.797
		C133.897,129.183,133.639,127.848,135.555,126.298z"/>
	<path fill="#FFFFFF" stroke="#FFFFFF" stroke-width="0.5" stroke-miterlimit="10" d="M145.396,130.689
		c-1.098,0.173-1.766-0.581-1.443-1.657c-1.615,1.679-2.196,1.83-2.885,1.722c-0.797-0.129-1.335-1.378-0.172-3.035
		c1.163-1.637,2.734-2.132,3.315-2.132c0.517,0,0.969,0.345,1.077,0.883c0.194-0.236,0.345-0.409,0.409-0.431
		c0.172-0.086,0.625,0.302,0.625,0.409c0,0.064-0.56,0.624-1.055,1.163c-1.378,2.109-0.732,2.885,1.249,1.895
		c0.582-0.28,1.206-0.711,1.895-1.313c0.258-0.216,0.215,0.431,0.107,0.538C148.41,128.838,146.751,130.475,145.396,130.689z
		 M144.642,127.353h-0.021c0,0,0.388-1.076-0.495-1.076c-1.938,0-3.983,3.423-2.863,3.703c1.055,0.279,3.014-2.196,3.165-2.325
		L144.642,127.353z"/>
	<path fill="#FFFFFF" stroke="#FFFFFF" stroke-width="0.5" stroke-miterlimit="10" d="M151.383,126.405
		c-0.129-0.302-0.172-0.603-0.108-0.926c0.151-0.797,1.055-1.464,1.55-1.378s0.517,0.495,0.172,1.141
		c-0.194,0.345-0.56,0.797-0.99,1.271c0.344,0.474,0.861,0.969,0.882,1.787c0.022,0.538-0.064,1.055-0.28,1.485
		c0.474-0.236,1.12-0.71,2.11-1.593c0.258-0.216,0.215,0.431,0.108,0.538c-0.086,0.107-1.636,1.68-2.82,1.852
		c-0.28,0.215-0.603,0.366-0.991,0.431c-1.184,0.15-1.938-1.012-1.895-2.196c0.021-1.119,0.625-1.249,0.818-1.012
		C150.349,127.438,150.888,126.922,151.383,126.405z M149.875,128.623c-0.409,0.603,0.065,1.766,0.883,1.83
		c0.129,0.021,0.237,0,0.345-0.021C150.112,129.979,149.918,128.559,149.875,128.623z M152.244,128.709
		c0-0.711-0.345-1.271-0.625-1.809c-0.495,0.495-1.034,0.99-1.442,1.356c0.323,0.603,0.969,1.571,1.679,1.68
		C152.093,129.635,152.244,129.183,152.244,128.709z M152.524,124.877c-0.043-0.237-0.582-0.173-0.797,0.667
		c-0.064,0.172-0.043,0.345,0.021,0.495C152.222,125.522,152.567,125.049,152.524,124.877z"/>
	<path fill="#FFFFFF" stroke="#FFFFFF" stroke-width="0.5" stroke-miterlimit="10" d="M160.621,130.689
		c-1.098,0.173-1.766-0.581-1.443-1.657c-1.615,1.679-2.196,1.83-2.885,1.722c-0.797-0.129-1.335-1.378-0.172-3.035
		c1.163-1.637,2.734-2.132,3.315-2.132c0.517,0,0.969,0.345,1.077,0.883c0.194-0.236,0.345-0.409,0.409-0.431
		c0.172-0.086,0.625,0.302,0.625,0.409c0,0.064-0.56,0.624-1.055,1.163c-1.378,2.109-0.732,2.885,1.249,1.895
		c0.582-0.28,1.206-0.711,1.895-1.313c0.258-0.216,0.215,0.431,0.107,0.538C163.635,128.838,161.977,130.475,160.621,130.689z
		 M159.867,127.353h-0.021c0,0,0.388-1.076-0.495-1.076c-1.938,0-3.983,3.423-2.863,3.703c1.055,0.279,3.014-2.196,3.165-2.325
		L159.867,127.353z"/>
	<path fill="#FFFFFF" stroke="#FFFFFF" stroke-width="0.5" stroke-miterlimit="10" d="M171.538,126.298
		c-0.194-0.345-1.206,0.215-1.98,0.904c-0.775,0.688-2.261,2.756-2.54,2.949c-0.151,0.107-0.518,0-0.41-0.236
		c0.129-0.237,0.904-1.356,1.615-2.648c0.732-1.292-0.021-1.185-0.409-0.861c-2.282,1.873-3.144,3.315-3.488,3.725
		c-0.323,0.409-0.625-0.237-0.409-0.581c1.766-2.95,2.669-4.026,2.798-4.155c0.065-0.064,0.324,0.258,0.303,0.431
		c-0.021,0.258-0.475,0.817-0.797,1.27c0.215-0.215,1.119-1.119,1.701-1.464c0.559-0.322,1.679-0.345,1.227,1.271
		c0.99-0.969,2.39-1.787,2.971-1.228c0.323,0.28,0.237,1.292-0.753,2.434c-1.056,1.227-0.517,1.809-0.065,1.852
		c0.475,0.021,1.185-0.345,2.799-1.766c0.26-0.216,0.216,0.431,0.108,0.538c-0.108,0.107-1.766,1.809-2.929,1.852
		c-0.753,0.021-2.002-0.797-0.646-2.563C170.957,127.589,171.775,126.707,171.538,126.298z"/>
	<path fill="#FFFFFF" stroke="#FFFFFF" stroke-width="0.5" stroke-miterlimit="10" d="M180.066,128.192
		c0.258-0.216,0.215,0.431,0.107,0.538c-0.086,0.107-1.766,1.766-3.121,1.959c-1.099,0.151-1.809-0.236-2.089-1.033
		c-0.345-0.861,0.129-2.067,1.142-2.993c2.389-2.174,4.004-1.248,2.26,0.775c-0.387,0.431-2.152,1.809-2.777,2.089
		c0.15,0.667,0.904,0.926,2.605,0.086C178.753,129.333,179.398,128.795,180.066,128.192z M177.547,127.396
		c1.508-1.464,0.775-1.83-0.731-0.495c-0.56,0.517-1.013,1.249-1.185,1.873C176.062,128.537,176.966,127.955,177.547,127.396z"/>
	<path fill="#FFFFFF" stroke="#FFFFFF" stroke-width="0.5" stroke-miterlimit="10" d="M185.342,125.587
		c0.604,0.366,0.129,1.507-0.775,2.648c-0.796,0.99-0.796,1.68-0.215,1.723c0.475,0.021,1.185-0.345,2.799-1.766
		c0.259-0.216,0.216,0.431,0.107,0.538c-0.086,0.107-1.873,1.895-2.906,1.852c-0.495-0.021-1.055-0.172-1.055-0.99
		c-0.021-0.947,0.947-2.003,1.292-2.584c0.603-0.947-0.087-1.098-1.185-0.129c-0.538,0.474-1.334,1.228-1.938,1.938
		c-0.431,0.775-0.797,1.378-0.861,1.442c-0.279,0.259-0.538-0.279-0.344-0.71c0.494-0.775,1.291-2.067,2.453-4.307
		c0.087-0.15,0.625,0.021,0.625,0.173c0,0.043-0.388,0.753-0.861,1.614C183.125,126.276,184.675,125.178,185.342,125.587z"/>
	<path fill="#FFFFFF" stroke="#FFFFFF" stroke-width="0.5" stroke-miterlimit="10" d="M193.245,123.907
		c-1.485,1.637-3.38,3.445-4.349,4.328c-0.064,0.302-0.107,0.581-0.107,0.84c0,0.667,0.236,0.861,0.624,0.883
		c0.474,0.021,1.185-0.237,2.799-1.658c0.259-0.215,0.216,0.323,0.107,0.431c-0.086,0.107-1.873,1.895-2.906,1.852
		c-2.282-0.064-1.163-3.553-0.065-5.274c0.26-0.388,0.582-0.84,0.991-1.335c-1.185,0.086-2.003,0.129-2.003,0.129
		c-0.408,0.043-0.021-0.517,0.194-0.538c0.086-0.021,1.033-0.064,2.261-0.151c3.121-3.66,5.598-3.337,3.035-0.193
		c1.701-0.086,3.188-0.15,3.359-0.107c0.15,0.043,0.15,0.581,0,0.581c-0.818-0.021-2.304,0.021-3.832,0.107L193.245,123.907z
		 M192.557,123.843c-0.475,0.021-0.926,0.043-1.356,0.087c-0.603,0.71-1.528,2.023-2.024,3.358
		C190.727,125.803,191.803,124.683,192.557,123.843z M193.073,123.283c1.142-1.335,1.163-1.701,0.969-1.723
		c-0.28-0.021-1.335,0.754-2.347,1.787L193.073,123.283z"/>
	<path fill="#FFFFFF" stroke="#FFFFFF" stroke-width="0.5" stroke-miterlimit="10" d="M196.131,125.437
		c2.024-0.581,2.842,1.399,0.043,4.263c-2.324,2.39-4.24,0.388-2.54-2.088c0.409-0.582,0.947-1.056,1.292-1.313
		c0-0.021,0-0.064,0.021-0.087C195.012,125.975,195.658,125.565,196.131,125.437z M195.528,126.513
		c-2.562,2.153-1.916,3.639-1.142,3.596c0.453-0.043,1.013-0.345,1.766-1.249c2.197-2.67,0.947-3.639-0.624-2.519
		C195.572,126.405,195.572,126.47,195.528,126.513z"/>
</g>
<g>
	<path fill="#FFFFFF" stroke="#FFFFFF" stroke-width="0.5" stroke-miterlimit="10" d="M129.223,267.076
		c0.28-0.087,0.754,0.279,0.452,0.581c-2.325,3.294-4.004,5.899-6.201,9.624c-0.15,0.279-0.646-0.388-0.538-0.56
		c1.485-2.648,3.725-6.266,5.296-8.419c0.064-0.086-0.129-0.129-0.56-0.172c-0.086-0.021,0-0.431,0.15-0.452
		C128.685,267.593,129.137,267.098,129.223,267.076z"/>
	<path fill="#FFFFFF" stroke="#FFFFFF" stroke-width="0.5" stroke-miterlimit="10" d="M135.834,274.052
		c-0.689,0.99-1.572,2.282-1.766,2.67c-0.043,0.064-0.021,0.365-0.215,0.452c-0.28,0.172-0.689-0.151-0.517-0.539
		c0.129-0.301,0.796-1.356,1.593-2.562c-2.412,0.064-3.725,0.366-4.263,0.517c-0.474,0.15-0.56-0.732-0.28-1.012
		c2.562-2.648,5.361-4.436,8.914-6.244c0.732-0.366,1.098-0.043,0.904,0.28c-0.215,0.301-3.122,4.607-3.574,5.274l-0.366,0.517
		c0.667,0,1.12,0.021,1.271,0.043c0.689,0.022,0.753,0.646,0.538,0.625C137.255,274.052,136.501,274.03,135.834,274.052z
		 M138.439,268.971c0.301-0.345,0.086-0.431-0.172-0.28c-3.1,1.658-5.146,3.187-5.942,3.983c-0.581,0.56-1.206,1.227-0.818,1.141
		c1.356-0.258,2.734-0.344,3.854-0.388C136.716,271.403,138.288,269.164,138.439,268.971z"/>
	<path fill="#FFFFFF" stroke="#FFFFFF" stroke-width="0.5" stroke-miterlimit="10" d="M151.748,266.624
		c0.452-0.431,0.947-0.818,1.486-1.12c2.39-1.356,4.78-0.818,4.78,2.003c0,0.452-0.129,1.012-0.366,1.614
		c-1.163,3.187-5.06,8.074-8.117,8.074c-1.895,0-3.165-1.637-3.165-3.295c-0.021-3.725,4.263-7.794,4.93-7.707
		C151.511,266.236,151.683,266.43,151.748,266.624z M151.209,267.184c-1.464,1.033-4.069,3.789-4.069,6.416
		c0,1.723,0.969,2.949,2.325,2.949c2.304,0,5.555-3.466,7.041-6.48c2.196-4.543-1.012-5.942-4.069-3.208
		c-1.184,1.055-2.11,2.39-2.433,3.058c-0.086,0.215-0.452-0.086-0.302-0.452C149.875,269.014,150.391,268.088,151.209,267.184z"/>
	<path fill="#FFFFFF" stroke="#FFFFFF" stroke-width="0.5" stroke-miterlimit="10" d="M158.919,274.978
		c-1.615,2.023-3.165,2.433-3.036,0.581c0.129-1.873,2.067-3.467,2.153-3.574c0.107-0.107,0.732,0.043,0.474,0.388
		c-0.237,0.302-1.399,1.507-1.744,2.498c-0.366,0.969-0.194,1.528,0.797,0.774c0.969-0.731,2.261-2.368,3.057-3.596
		c0.108-0.193,0.818-0.064,0.56,0.28c-0.259,0.345-1.185,1.658-1.572,2.519c-0.667,1.486,0.301,1.551,0.883,1.313
		c0.474-0.172,1.141-0.731,2.153-1.636c0.258-0.216,0.215,0.431,0.107,0.538c-0.086,0.107-1.83,1.852-2.906,1.852
		C158.833,276.915,158.338,275.839,158.919,274.978z"/>
	<path fill="#FFFFFF" stroke="#FFFFFF" stroke-width="0.5" stroke-miterlimit="10" d="M167.662,270.24
		c-1.486,1.637-3.38,3.445-4.349,4.328c-0.065,0.302-0.108,0.581-0.108,0.84c0,0.667,0.237,0.861,0.625,0.883
		c0.474,0.021,1.184-0.237,2.799-1.658c0.258-0.215,0.215,0.323,0.107,0.431c-0.086,0.107-1.874,1.895-2.907,1.852
		c-2.282-0.064-1.163-3.553-0.065-5.274c0.259-0.388,0.582-0.84,0.991-1.335c-1.184,0.086-2.002,0.129-2.002,0.129
		c-0.409,0.043-0.021-0.517,0.194-0.538c0.086-0.021,1.033-0.064,2.261-0.151c3.122-3.66,5.597-3.337,3.036-0.193
		c1.7-0.086,3.187-0.15,3.358-0.107c0.15,0.043,0.15,0.581,0,0.581c-0.818-0.021-2.303,0.021-3.832,0.107L167.662,270.24z
		 M166.973,270.176c-0.474,0.021-0.926,0.043-1.356,0.087c-0.603,0.71-1.529,2.023-2.024,3.358
		C165.143,272.136,166.219,271.016,166.973,270.176z M167.49,269.616c1.141-1.335,1.162-1.701,0.969-1.723
		c-0.28-0.021-1.336,0.754-2.348,1.787L167.49,269.616z"/>
	<path fill="#FFFFFF" stroke="#FFFFFF" stroke-width="0.5" stroke-miterlimit="10" d="M184.156,266.537
		c1.615-0.043,2.304,1.766-0.431,4.759c-1.055,1.141-2.647,2.713-4.22,3.961c0.797,0.431,1.485,0.904,2.045,0.883
		c1.206-0.064,1.938-0.969,2.153-1.184c0.173-0.151,0.388,0.172,0.259,0.279c-0.021,0.043-1.055,1.486-2.412,1.615
		c-0.775,0.064-1.723-0.624-2.67-1.099c-1.012,0.754-1.98,1.335-2.777,1.551c-1.098,0.279-1.119-0.969-0.883-1.442
		c0.518-1.056,1.637-1.228,2.024-1.271c0.581-0.043,1.142,0.129,1.679,0.366c1.938-1.572,4.221-3.854,4.975-4.952
		c2.131-3.036,0.129-3.488-1.809-2.196c-1.852,1.249-2.885,2.972-3.036,3.144c-0.194,0.237-0.474-0.474-0.409-0.581
		C179.506,268.733,182.176,266.603,184.156,266.537z M176.492,275.537c-1.465,0.904-0.969,1.464,0.258,0.904
		c0.409-0.193,0.947-0.538,1.529-0.969C177.654,275.235,177.051,275.192,176.492,275.537z"/>
	<path fill="#FFFFFF" stroke="#FFFFFF" stroke-width="0.5" stroke-miterlimit="10" d="M186.031,275.106
		c0.043-2.411,2.261-5.921,4.35-7.17c1.658-0.99,3.121-0.387,2.842,1.658c-0.279,2.002-2.088,5.899-3.811,7.127
		C187.711,277.927,185.988,277.26,186.031,275.106z M190.596,268.647c-1.205,0.84-2.433,2.584-2.842,3.294
		c-2.39,4.198,0.495,7.148,3.381,1.464c0.861-1.679,1.248-2.863,1.398-3.66C192.792,268.109,191.931,267.7,190.596,268.647z"/>
	<path fill="#FFFFFF" stroke="#FFFFFF" stroke-width="0.5" stroke-miterlimit="10" d="M200.178,267.076
		c0.281-0.087,0.754,0.279,0.453,0.581c-2.326,3.294-4.005,5.899-6.201,9.624c-0.15,0.279-0.646-0.388-0.538-0.56
		c1.485-2.648,3.725-6.266,5.296-8.419c0.064-0.086-0.129-0.129-0.559-0.172c-0.087-0.021,0-0.431,0.15-0.452
		C199.641,267.593,200.092,267.098,200.178,267.076z"/>
	<path fill="#FFFFFF" stroke="#FFFFFF" stroke-width="0.5" stroke-miterlimit="10" d="M208.706,267.291
		c0.688-0.043,0.84,0.28,0.064,1.163c-2.54,2.863-4.759,5.662-7.147,8.654c-0.323,0.302-0.646-0.474-0.432-0.796
		c2.046-2.799,4.65-5.663,6.762-7.837c0.408-0.431,0.279-0.452-0.237-0.431c-1.292,0.043-2.777,0.279-3.358,0.388
		c-0.28,0.064-0.13-0.711,0.086-0.754C205.219,267.507,208.297,267.313,208.706,267.291z"/>
</g>
<g>
	<path fill="#FFFFFF" d="M174.512,197.437c-0.969,2.95-2.208,5.341-3.715,7.171l1.389,1.195c0.431,0.366,0.813,0.636,1.146,0.808
		c0.334,0.173,0.765,0.258,1.293,0.258c0.527,0,1.001-0.198,1.421-0.597s0.662-1.083,0.728-2.052h2.39
		c-0.087,1.551-0.489,2.751-1.212,3.602c-0.721,0.852-1.771,1.276-3.148,1.276c-0.84,0-1.615-0.173-2.326-0.517
		c-0.711-0.345-1.486-0.894-2.326-1.647l-0.84-0.711c-2.153,1.917-4.608,2.875-7.365,2.875c-2.261,0-4.156-0.565-5.685-1.696
		c-1.529-1.13-2.293-2.492-2.293-4.086s0.511-2.794,1.534-3.602c1.022-0.808,2.525-1.373,4.506-1.696l-0.452-0.42
		c-1.659-1.442-2.487-3.025-2.487-4.748c0-1.357,0.565-2.487,1.696-3.392c1.13-0.905,2.627-1.357,4.49-1.357
		c1.862,0,3.348,0.452,4.458,1.357c1.108,0.904,1.663,1.997,1.663,3.278s-0.42,2.386-1.26,3.311
		c-0.84,0.927-2.207,1.799-4.102,2.617l5.104,4.49c1.465-1.766,2.67-3.995,3.617-6.688L174.512,197.437z M157.924,200.634
		c-0.787,0.582-1.179,1.39-1.179,2.423c0,1.034,0.447,1.922,1.341,2.665c0.893,0.743,2.266,1.114,4.119,1.114
		c1.852,0,3.65-0.71,5.395-2.132l-6.009-5.265C159.932,199.654,158.71,200.053,157.924,200.634z M166.598,192.979
		c0-0.775-0.297-1.421-0.889-1.938c-0.592-0.517-1.421-0.775-2.487-0.775c-1.066,0-1.895,0.297-2.487,0.889
		c-0.592,0.593-0.888,1.233-0.888,1.922c0,0.689,0.14,1.304,0.42,1.842c0.28,0.538,0.743,1.087,1.389,1.647l0.872,0.808
		c2.24-1.034,3.531-2.11,3.877-3.23C166.533,193.775,166.598,193.388,166.598,192.979z"/>
</g>
<g>
	<path fill="#FFFFFF" d="M120.803,222.408c3.058,0,5.508,0.921,7.349,2.762c1.841,1.842,2.762,4.308,2.762,7.397
		c0,3.091-0.92,5.556-2.762,7.397c-1.841,1.841-4.292,2.762-7.349,2.762h-5.976v-20.318H120.803z M117.379,240.498h3.424
		c2.261,0,4.059-0.748,5.395-2.245c1.335-1.497,2.003-3.397,2.003-5.702c0-2.304-0.673-4.193-2.019-5.669
		c-1.346-1.475-3.139-2.212-5.378-2.212h-3.424V240.498z"/>
	<path fill="#FFFFFF" d="M139.442,222.408h2.552v20.318h-2.552V222.408z"/>
	<path fill="#FFFFFF" d="M158.888,222.053c2.627,0,4.753,0.899,6.38,2.697c1.625,1.799,2.439,4.415,2.439,7.85
		c0,3.436-0.809,6.041-2.423,7.817c-1.615,1.776-3.747,2.665-6.396,2.665c-2.648,0-4.775-0.899-6.379-2.697
		c-1.605-1.798-2.407-4.398-2.407-7.801c0-3.425,0.802-6.035,2.407-7.834C154.112,222.952,156.239,222.053,158.888,222.053z
		 M163.394,226.479c-1.109-1.422-2.611-2.132-4.506-2.132s-3.392,0.71-4.49,2.132c-1.099,1.421-1.647,3.468-1.647,6.138
		s0.549,4.694,1.647,6.072c1.098,1.379,2.595,2.067,4.49,2.067s3.397-0.688,4.506-2.067c1.109-1.378,1.664-3.402,1.664-6.072
		S164.503,227.899,163.394,226.479z"/>
	<path fill="#FFFFFF" d="M188.38,239.238c-0.904,2.563-2.659,3.844-5.265,3.844c-2.606,0-4.744-0.947-6.412-2.843
		c-1.67-1.895-2.504-4.446-2.504-7.655s0.91-5.761,2.729-7.656c1.819-1.895,4.087-2.843,6.8-2.843c1.594,0,2.988,0.323,4.184,0.97
		c1.195,0.646,2.223,1.68,3.084,3.101l-2.455,0.84c-1.399-1.744-3.036-2.616-4.91-2.616c-1.873,0-3.461,0.765-4.764,2.293
		c-1.304,1.529-1.955,3.517-1.955,5.96c0,2.444,0.561,4.409,1.68,5.896c1.12,1.485,2.627,2.229,4.523,2.229
		c1.55,0,2.799-0.517,3.746-1.55c0.947-1.034,1.422-2.563,1.422-4.588v-0.064l-5.104-0.193v-1.68h7.591v10.046h-2.067
		L188.38,239.238z"/>
	<path fill="#FFFFFF" d="M207.051,222.053c2.627,0,4.753,0.899,6.379,2.697c1.626,1.799,2.439,4.415,2.439,7.85
		c0,3.436-0.808,6.041-2.423,7.817s-3.747,2.665-6.396,2.665s-4.775-0.899-6.38-2.697s-2.407-4.398-2.407-7.801
		c0-3.425,0.803-6.035,2.407-7.834C202.275,222.952,204.402,222.053,207.051,222.053z M211.557,226.479
		c-1.109-1.422-2.611-2.132-4.506-2.132c-1.896,0-3.393,0.71-4.49,2.132c-1.099,1.421-1.647,3.468-1.647,6.138
		s0.549,4.694,1.647,6.072c1.098,1.379,2.595,2.067,4.49,2.067c1.895,0,3.396-0.688,4.506-2.067
		c1.109-1.378,1.664-3.402,1.664-6.072S212.666,227.899,211.557,226.479z"/>
</g>
<g>
	<path fill="#FFFFFF" d="M139.141,199.206H85.472c-0.552,0-1-0.447-1-1s0.448-1,1-1h53.669c0.552,0,1,0.447,1,1
		S139.693,199.206,139.141,199.206z"/>
</g>
<g>
	<path fill="#FFFFFF" d="M242.105,199.206h-53.67c-0.553,0-1-0.447-1-1s0.447-1,1-1h53.67c0.553,0,1,0.447,1,1
		S242.658,199.206,242.105,199.206z"/>
</g>
<g>
	<g>
		<path fill="#FFFFFF" d="M169.389,76.03c-0.256,0-0.512-0.098-0.707-0.293l-7.009-7.01c-0.391-0.391-0.391-1.023,0-1.414
			s1.023-0.391,1.414,0l7.009,7.01c0.391,0.391,0.391,1.023,0,1.414C169.9,75.932,169.645,76.03,169.389,76.03z"/>
	</g>
	<g>
		<path fill="#FFFFFF" d="M162.379,76.03c-0.256,0-0.512-0.098-0.707-0.293c-0.391-0.391-0.391-1.023,0-1.414l7.009-7.01
			c0.391-0.391,1.023-0.391,1.414,0s0.391,1.023,0,1.414l-7.009,7.01C162.891,75.932,162.635,76.03,162.379,76.03z"/>
	</g>
</g>
<g>
	<g>
		<path fill="#FFFFFF" d="M169.389,329.711c-0.256,0-0.512-0.098-0.707-0.293l-7.009-7.01c-0.391-0.391-0.391-1.023,0-1.414
			s1.023-0.391,1.414,0l7.009,7.01c0.391,0.391,0.391,1.023,0,1.414C169.9,329.613,169.645,329.711,169.389,329.711z"/>
	</g>
	<g>
		<path fill="#FFFFFF" d="M162.38,329.711c-0.256,0-0.512-0.098-0.707-0.293c-0.391-0.391-0.391-1.023,0-1.414l7.009-7.01
			c0.391-0.391,1.023-0.391,1.414,0s0.391,1.023,0,1.414l-7.009,7.01C162.892,329.613,162.636,329.711,162.38,329.711z"/>
	</g>
</g>
<g>
	<path fill="#FFFFFF" d="M60.749,270.495c-0.32,0-0.635-0.153-0.828-0.438c-14.435-21.24-22.065-46.086-22.065-71.852
		c0-25.765,7.63-50.611,22.065-71.853c0.31-0.456,0.933-0.575,1.389-0.265c0.457,0.311,0.576,0.933,0.265,1.389
		c-14.209,20.909-21.719,45.366-21.719,70.729c0,25.362,7.511,49.819,21.72,70.727c0.311,0.457,0.192,1.079-0.265,1.39
		C61.138,270.439,60.942,270.495,60.749,270.495z"/>
</g>
<g>
	<path fill="#FFFFFF" d="M271.021,270.495c-0.193,0-0.389-0.056-0.562-0.173c-0.456-0.311-0.575-0.933-0.265-1.39
		c14.209-20.905,21.72-45.362,21.72-70.727c0-25.365-7.511-49.823-21.72-70.729c-0.311-0.457-0.191-1.079,0.265-1.389
		c0.46-0.31,1.079-0.192,1.39,0.265c14.436,21.24,22.065,46.086,22.065,71.854c0,25.767-7.63,50.612-22.065,71.852
		C271.655,270.342,271.341,270.495,271.021,270.495z"/>
</g>
<g>
	<g>
		<path fill="#FFFFFF" d="M160.002,376.146c-0.434,0-0.833-0.285-0.96-0.723c-0.153-0.53,0.153-1.085,0.684-1.238
			c0.175-0.051,17.556-5.288,23.376-24.859c0.158-0.529,0.715-0.826,1.244-0.674c0.529,0.158,0.831,0.715,0.674,1.244
			c-6.143,20.651-24.556,26.158-24.742,26.211C160.187,376.133,160.094,376.146,160.002,376.146z"/>
	</g>
	<g>
		<path fill="#FFFFFF" d="M169.986,376.146c-0.127,0-0.256-0.024-0.381-0.075c-18.676-7.695-24.456-26.417-24.692-27.21
			c-0.158-0.529,0.143-1.086,0.671-1.244c0.53-0.153,1.086,0.143,1.245,0.671c0.056,0.186,5.764,18.611,23.538,25.934
			c0.511,0.211,0.754,0.795,0.544,1.306C170.752,375.912,170.379,376.146,169.986,376.146z"/>
	</g>
	<g>
		<path fill="#FFFFFF" d="M145.135,369.511c-1.894,0-3.455-0.531-4.638-1.578c-2.98-2.636-2.812-4.646-2.447-5.609
			c0.573-1.511,2.366-2.429,4.324-2.188c2.865,0.346,12.448,4.001,12.854,4.157c0.354,0.135,0.602,0.46,0.638,0.837
			c0.037,0.378-0.144,0.744-0.466,0.945C155.176,366.215,149.841,369.511,145.135,369.511z M141.756,362.098
			c-0.887,0-1.625,0.375-1.836,0.934c-0.306,0.808,0.405,2.079,1.902,3.403c0.807,0.714,1.922,1.076,3.313,1.076
			c2.575,0,5.489-1.2,7.337-2.114c-3.373-1.241-8.584-3.063-10.339-3.275C142.006,362.105,141.88,362.098,141.756,362.098z"/>
	</g>
	<g>
		<path fill="#FFFFFF" d="M153.146,362.097c-0.115,0-0.231-0.02-0.342-0.061c-0.337-0.123-0.583-0.417-0.644-0.771
			c-0.015-0.088-1.295-8.899,0.745-10.194c0.573-0.362,1.251-0.562,1.912-0.562c1.452,0,3.098,0.985,3.363,3.751
			c0.335,3.49-3.903,7.189-4.387,7.6C153.609,362.015,153.379,362.097,153.146,362.097z M154.058,352.712
			c-0.391,0.747-0.302,3.901-0.128,6.21c1.154-1.285,2.395-3.059,2.259-4.471c-0.084-0.887-0.392-1.942-1.372-1.942
			C154.565,352.509,154.293,352.582,154.058,352.712z"/>
	</g>
	<g>
		<path fill="#FFFFFF" d="M184.325,370.793C184.324,370.793,184.324,370.793,184.325,370.793
			c-4.707-0.001-10.042-3.296-10.267-3.436c-0.322-0.201-0.503-0.567-0.466-0.944c0.036-0.378,0.283-0.703,0.638-0.838
			c0.407-0.156,9.989-3.812,12.854-4.16c1.965-0.232,3.752,0.679,4.324,2.189c0.365,0.964,0.532,2.974-2.448,5.61
			C187.778,370.262,186.218,370.793,184.325,370.793z M176.989,366.678c1.85,0.914,4.767,2.115,7.335,2.115h0.001
			c1.391,0,2.504-0.362,3.311-1.076c1.498-1.324,2.209-2.597,1.903-3.404c-0.241-0.637-1.185-1.039-2.214-0.911
			C185.572,363.614,180.362,365.437,176.989,366.678z"/>
	</g>
	<g>
		<path fill="#FFFFFF" d="M179.504,359.164c-0.233,0-0.463-0.082-0.646-0.237c-0.484-0.41-4.722-4.11-4.386-7.601
			c0.266-2.766,1.91-3.751,3.361-3.751c0.66,0,1.339,0.2,1.911,0.563c2.053,1.299,0.76,10.113,0.744,10.201
			c-0.063,0.353-0.309,0.645-0.646,0.766C179.732,359.145,179.618,359.164,179.504,359.164z M177.833,349.575
			c-1.03,0-1.301,1.217-1.371,1.942c-0.136,1.413,1.106,3.188,2.262,4.475c0.177-2.305,0.267-5.459-0.131-6.213
			C178.357,349.648,178.085,349.575,177.833,349.575z"/>
	</g>
	<g>
		<path fill="#FFFFFF" d="M144.74,349.534c-2.386,0-3.75-2.789-3.898-3.107c-0.027-0.058-0.048-0.118-0.063-0.181l-0.147-0.596
			c-0.012-0.049-0.021-0.099-0.025-0.148c-0.094-1.02,0.088-1.766,0.558-2.28c0.258-0.283,0.726-0.621,1.491-0.621
			c0.427,0,0.857,0.108,1.23,0.244c0.49-0.826,1.214-1.146,1.839-1.146c1.03,0,1.946,0.771,2.392,2.014
			c1.289,3.604-0.849,5.056-2.238,5.601C145.504,349.46,145.122,349.534,144.74,349.534z M142.694,345.663
			c0.284,0.56,1.14,1.871,2.046,1.871c0.132,0,0.266-0.026,0.407-0.082c1.148-0.451,1.772-1.145,1.086-3.065
			c-0.18-0.5-0.438-0.68-0.512-0.688c-0.021,0.016-0.204,0.197-0.318,0.729c-0.069,0.32-0.29,0.587-0.593,0.713
			c-0.302,0.126-0.647,0.096-0.924-0.081c-0.3-0.189-0.883-0.46-1.231-0.46c-0.007-0.033-0.104,0.119-0.064,0.646L142.694,345.663z"
			/>
	</g>
	<g>
		<path fill="#FFFFFF" d="M185.413,349.929L185.413,349.929c-0.563,0-1.165-0.129-1.787-0.384c-2.46-1.006-2.155-4.08-1.651-5.564
			c0.021-0.061,0.047-0.118,0.078-0.174l0.305-0.535c0.025-0.044,0.054-0.086,0.085-0.126c0.667-0.842,1.376-1.269,2.107-1.269
			c1.068,0,1.725,0.844,2.102,1.608c0.975-0.272,1.92,0.038,2.416,0.803c0.471,0.725,0.486,1.753,0.043,2.75
			C188.258,348.956,187.014,349.929,185.413,349.929z M183.846,344.7c-0.122,0.427-0.648,2.509,0.536,2.993
			c0.382,0.156,0.729,0.235,1.031,0.235l0,0c0.478,0,1.19-0.177,1.869-1.703c0.217-0.486,0.153-0.794,0.105-0.851
			c-0.088,0.008-0.324,0.03-0.733,0.309c-0.271,0.185-0.615,0.223-0.922,0.106c-0.306-0.118-0.535-0.379-0.612-0.697
			c-0.125-0.5-0.427-1.1-0.61-1.218c-0.007,0.025-0.174,0.115-0.454,0.456L183.846,344.7z"/>
	</g>
	<g>
		<path fill="#FFFFFF" d="M165.723,362.953c-1.324,0-2.401-1.078-2.401-2.402c0-1.323,1.077-2.4,2.401-2.4s2.402,1.077,2.402,2.4
			C168.125,361.875,167.047,362.953,165.723,362.953z M165.723,360.15c-0.221,0-0.401,0.18-0.401,0.4
			c0,0.226,0.176,0.402,0.401,0.402c0.222,0,0.402-0.181,0.402-0.402C166.125,360.33,165.944,360.15,165.723,360.15z"/>
	</g>
	<g>
		<path fill="#FFFFFF" d="M169.987,370.288c-0.09,0-0.181-0.012-0.271-0.037c-0.204-0.057-4.994-1.477-4.994-8.298
			c0-0.553,0.448-1,1-1c0.553,0,1,0.447,1,1c0,5.321,3.498,6.362,3.533,6.372c0.532,0.148,0.843,0.7,0.693,1.232
			C170.826,369.999,170.424,370.288,169.987,370.288z"/>
	</g>
</g>
<g>
	<path fill="#FFFFFF" d="M180.755,35.912c-0.315,0-0.625-0.148-0.82-0.426c-12.426-17.738-32.208-16.286-32.41-16.27
		c-0.549,0.052-1.034-0.362-1.081-0.913s0.362-1.034,0.913-1.081c0.21-0.018,21.138-1.553,34.216,17.115
		c0.316,0.452,0.207,1.076-0.245,1.393C181.153,35.853,180.953,35.912,180.755,35.912z"/>
</g>
<g>
	<path fill="#FFFFFF" d="M148.563,35.204c-0.221,0-0.443-0.073-0.629-0.223c-0.429-0.347-0.495-0.977-0.148-1.406
		c0.581-0.718,14.469-17.581,34.262-16.396c0.552,0.033,0.972,0.506,0.938,1.058c-0.032,0.552-0.509,0.98-1.058,0.938
		c-18.739-1.096-32.452,15.491-32.588,15.659C149.143,35.077,148.854,35.204,148.563,35.204z"/>
</g>
<g>
	<path fill="#FFFFFF" d="M157.031,37.446c-0.091,0-0.183-0.013-0.273-0.038c-0.287-0.082-0.522-0.287-0.643-0.56
		c-0.121-0.274-2.907-6.78,1.419-11.408c0.204-0.219,0.497-0.337,0.795-0.315c0.299,0.02,0.574,0.172,0.748,0.416
		c0.098,0.137,2.398,3.4,1.778,6.952c-0.333,1.91-1.43,3.517-3.257,4.777C157.43,37.385,157.232,37.446,157.031,37.446z
		 M158.146,27.934c-1.426,2.389-1.04,5.196-0.623,6.803c0.738-0.759,1.195-1.626,1.363-2.589
		C159.165,30.554,158.637,28.977,158.146,27.934z"/>
</g>
<g>
	<path fill="#FFFFFF" d="M172.791,36.83c-0.163,0-0.325-0.04-0.473-0.119c-1.916-1.029-3.111-2.458-3.553-4.249
		c-0.833-3.383,1.418-6.758,1.514-6.9c0.153-0.226,0.392-0.379,0.661-0.425c0.271-0.047,0.546,0.021,0.764,0.184
		c4.028,2.998,2.137,10.446,2.055,10.762c-0.078,0.296-0.287,0.541-0.568,0.664C173.063,36.802,172.927,36.83,172.791,36.83z
		 M171.33,27.81c-0.475,1.043-0.998,2.66-0.62,4.183c0.21,0.843,0.668,1.563,1.39,2.176C172.375,32.28,172.447,29.52,171.33,27.81z"
		/>
</g>
<g>
	<path fill="#FFFFFF" d="M146.493,41.597c-0.579,0-1.102-0.225-1.474-0.634c-0.359-0.396-0.565-0.926-0.623-1.607
		c-1.099-0.109-2.216-0.468-2.596-1.423c-0.516-1.299,0.757-2.5,1.175-2.894c0.141-0.122,2.671-2.209,5.249-1.824
		c0.912,0.134,1.4,0.633,1.649,1.029c0.774,1.231,0.322,2.994-0.208,4.693c-0.056,0.178-0.104,0.334-0.139,0.458
		C149.218,40.526,147.744,41.597,146.493,41.597z M145.406,37.394c0.276,0,0.541,0.114,0.73,0.316
		c0.197,0.21,0.294,0.495,0.267,0.781c-0.086,0.892,0.096,1.126,0.098,1.128l-0.008-0.021c0.383,0,1.015-0.488,1.108-0.738
		c0.037-0.135,0.092-0.313,0.156-0.517c0.211-0.678,0.772-2.479,0.424-3.034c-0.018-0.028-0.055-0.087-0.248-0.115
		c-1.729-0.256-3.608,1.322-3.625,1.337c-0.325,0.307-0.483,0.524-0.559,0.655c0.257,0.103,0.792,0.211,1.51,0.211l0.114-0.001
		C145.384,37.394,145.396,37.394,145.406,37.394z"/>
</g>
<g>
	<path fill="#FFFFFF" d="M183.895,42.427c-0.716,0-1.437-0.411-2.27-1.293c-0.125-0.146-2.208-2.645-1.824-5.249
		c0.091-0.619,0.532-2.06,2.662-2.06c1.076,0,2.271,0.372,3.062,0.619c0.178,0.056,0.333,0.104,0.457,0.138
		c1.117,0.306,2.37,1.933,2.183,3.327c-0.053,0.398-0.37,1.638-2.219,1.803c-0.075,0.731-0.28,1.63-0.813,2.181
		C184.796,42.242,184.367,42.427,183.895,42.427z M182.463,35.825c-0.632,0-0.657,0.17-0.684,0.351
		c-0.249,1.694,1.321,3.607,1.337,3.626c0.309,0.326,0.526,0.484,0.657,0.56c0.133-0.327,0.229-1.037,0.209-1.625
		c-0.011-0.288,0.104-0.567,0.314-0.764c0.209-0.198,0.497-0.298,0.781-0.267c0.16,0.016,0.308,0.023,0.442,0.023
		c0.533,0,0.683-0.119,0.685-0.12c0.042-0.228-0.446-0.983-0.76-1.101c-0.135-0.037-0.313-0.092-0.516-0.155
		C184.254,36.143,183.234,35.825,182.463,35.825z"/>
</g>
<g>
</g>
</svg>
