<?xml version="1.0" encoding="utf-8"?>
<!-- Generator: Adobe Illustrator 16.0.0, SVG Export Plug-In . SVG Version: 6.00 Build 0)  -->
<!DOCTYPE svg PUBLIC "-//W3C//DTD SVG 1.1//EN" "http://www.w3.org/Graphics/SVG/1.1/DTD/svg11.dtd">
<svg version="1.1" id="Layer_1" xmlns="http://www.w3.org/2000/svg" xmlns:xlink="http://www.w3.org/1999/xlink" x="0px" y="0px"
	 width="83.334px" height="26.333px" viewBox="0 0 83.334 26.333" enable-background="new 0 0 83.334 26.333" xml:space="preserve">
<g>
	<path stroke="#000000" stroke-width="0.5" stroke-miterlimit="10" d="M12.629,12.508c1.59-1.296,3.142-0.981,2.945-0.039
		c-0.118,0.472-0.668,0.923-0.825,1.041c-0.098,0.078-0.471-0.275-0.177-0.511c0.511-0.432,0.314-1.002-0.235-0.864
		c-0.393,0.099-1.453,0.806-2.003,1.61c-1.414,2.102,0.746,3.279,3.889,0.491c0.235-0.196,0.196,0.393,0.117,0.491
		c-0.098,0.098-1.453,1.512-2.671,1.669c-1.021,0.157-1.865-0.059-2.258-0.727C11.116,15.14,10.881,13.922,12.629,12.508z"/>
	<path stroke="#000000" stroke-width="0.5" stroke-miterlimit="10" d="M18.814,11.723c1.847-0.53,2.593,1.276,0.04,3.889
		c-2.121,2.18-3.869,0.353-2.317-1.905c0.373-0.53,0.863-0.962,1.178-1.198c0-0.02,0-0.059,0.02-0.078
		C17.794,12.214,18.383,11.841,18.814,11.723z M18.265,12.704c-2.337,1.964-1.747,3.319-1.041,3.28
		c0.413-0.04,0.924-0.314,1.61-1.14c2.004-2.435,0.864-3.318-0.569-2.298C18.304,12.606,18.304,12.665,18.265,12.704z"/>
	<path stroke="#000000" stroke-width="0.5" stroke-miterlimit="10" d="M24.589,11.86c0.55,0.333,0.118,1.374-0.707,2.415
		c-0.727,0.903-0.727,1.532-0.196,1.571c0.433,0.02,1.08-0.314,2.553-1.61c0.236-0.196,0.196,0.393,0.099,0.491
		c-0.079,0.098-1.709,1.728-2.651,1.688c-0.451-0.02-0.962-0.157-0.962-0.903c-0.02-0.864,0.864-1.826,1.178-2.356
		c0.55-0.864-0.078-1.002-1.08-0.118c-0.49,0.433-1.217,1.119-1.767,1.768c-0.394,0.707-0.728,1.257-0.786,1.315
		c-0.255,0.236-0.491-0.255-0.314-0.647c0.452-0.707,1.179-1.886,2.239-3.928c0.078-0.138,0.569,0.02,0.569,0.157
		c0,0.039-0.354,0.688-0.785,1.473C22.566,12.488,23.98,11.487,24.589,11.86z"/>
	<path stroke="#000000" stroke-width="0.5" stroke-miterlimit="10" d="M28.066,16.161c1.1-0.334,2.455-1.336,3.122-1.925
		c0.217-0.196,0.197,0.393,0.099,0.491c-0.845,0.844-2.022,1.728-3.201,1.924c-0.059,1.179-0.668,2.73-1.904,4.419
		c-2.063,2.769-5.027,3.142-3.516-0.746c0.785-2.023,6.52-11.037,9.309-13.374c2.18-1.807,3.024-0.667,1.374,1.591
		c-0.727,1.021-4.025,4.772-6.107,6.226C27.752,15.061,28.008,15.591,28.066,16.161z M23.608,19.892
		c-0.255,0.55-0.962,2.2-0.53,2.573c0.433,0.373,1.296-0.256,1.944-0.982c1.807-2.062,2.376-3.691,2.436-4.771
		c-0.629-0.02-1.198-0.256-1.493-0.845C24.846,17.634,23.981,19.126,23.608,19.892z M27.163,15.395
		c-0.412-0.589-1.061,0.157-0.354,0.727c0.157,0.138,0.393,0.177,0.648,0.177C27.418,15.886,27.301,15.571,27.163,15.395z
		 M32.662,8.561c2.16-2.769,0.255-2.18-1.65,0.157c-1.296,1.61-2.67,3.516-3.868,5.322C28.558,13.019,30.658,11.094,32.662,8.561z"
		/>
	<path stroke="#000000" stroke-width="0.5" stroke-miterlimit="10" d="M31.857,15.827c0.471,0.039,1.158-0.295,2.631-1.591
		c0.216-0.196,0.177,0.393,0.099,0.491c-0.099,0.098-2.16,2.238-3.358,1.394c-0.628-0.432-0.373-1.492,0.452-2.65
		c0.667-0.982,1.04-1.474,1.178-1.571c0.157-0.118,0.491,0.274,0.314,0.53c-0.138,0.216-1.237,1.649-1.513,2.317
		C31.366,15.414,31.444,15.787,31.857,15.827z M34.135,10.427c-0.313-0.157-0.688,0-0.844,0.313
		c-0.138,0.275-0.118,0.668,0.177,0.767C34.076,11.723,34.665,10.662,34.135,10.427z"/>
	<path stroke="#000000" stroke-width="0.5" stroke-miterlimit="10" d="M36.924,13.471c0.413-0.472,0.59-0.786,0.491-0.884
		c-0.118-0.099-0.608,0.157-1.061,0.177c-0.511,0.687-1.197,1.434-1.885,2.101c-0.138,0.118-0.256-0.393-0.177-0.451
		c0.608-0.511,1.197-1.198,1.61-1.729c-0.256-0.138-0.433-0.393-0.334-0.844c0.295-1.237,1.807-1.12,1.453-0.217
		c-0.099,0.236-0.235,0.472-0.393,0.727c0.235-0.059,0.491-0.157,0.647-0.216c0.845-0.314,1.395,0.079,0.57,1.041
		c-0.433,0.53-1.905,2.553-0.845,2.671c0.412,0.039,1.08-0.314,2.553-1.61c0.216-0.196,0.177,0.393,0.099,0.491
		c-0.099,0.098-1.729,1.728-2.671,1.688C35.824,16.377,35.589,15.041,36.924,13.471z M36.473,11.82
		c0.196-0.451-0.412-0.333-0.491,0.157c-0.039,0.216,0.02,0.334,0.157,0.393C36.296,12.115,36.434,11.919,36.473,11.82z"/>
	<path stroke="#000000" stroke-width="0.5" stroke-miterlimit="10" d="M45.763,12.508c-0.177-0.314-1.101,0.196-1.808,0.825
		c-0.706,0.628-2.062,2.514-2.316,2.69c-0.138,0.098-0.472,0-0.374-0.216c0.118-0.217,0.825-1.237,1.474-2.416
		c0.667-1.178-0.02-1.08-0.373-0.785c-2.082,1.708-2.867,3.024-3.182,3.397c-0.295,0.373-0.569-0.217-0.373-0.53
		c1.61-2.69,2.435-3.673,2.553-3.79c0.059-0.06,0.295,0.235,0.275,0.393c-0.021,0.235-0.433,0.746-0.727,1.158
		c0.196-0.196,1.021-1.021,1.551-1.335c0.511-0.295,1.532-0.314,1.119,1.158c0.903-0.884,2.181-1.63,2.71-1.119
		c0.295,0.255,0.217,1.179-0.687,2.219c-0.963,1.12-0.472,1.65-0.06,1.689c0.433,0.02,1.08-0.314,2.554-1.61
		c0.235-0.196,0.196,0.393,0.098,0.491c-0.098,0.098-1.61,1.649-2.671,1.688c-0.688,0.02-1.826-0.727-0.589-2.337
		C45.232,13.687,45.979,12.881,45.763,12.508z"/>
	<path stroke="#000000" stroke-width="0.5" stroke-miterlimit="10" d="M52.499,16.515c-1.001,0.156-1.61-0.53-1.315-1.513
		c-1.473,1.532-2.003,1.669-2.632,1.571c-0.727-0.118-1.217-1.257-0.157-2.77c1.061-1.492,2.494-1.943,3.024-1.943
		c0.472,0,0.884,0.313,0.982,0.805c0.177-0.216,0.314-0.373,0.373-0.393c0.157-0.079,0.569,0.274,0.569,0.373
		c0,0.059-0.511,0.569-0.962,1.061c-1.257,1.925-0.668,2.632,1.139,1.729c0.53-0.256,1.1-0.648,1.729-1.198
		c0.235-0.196,0.196,0.393,0.098,0.491C55.249,14.825,53.736,16.317,52.499,16.515z M51.813,13.471h-0.021
		c0,0,0.354-0.982-0.451-0.982c-1.768,0-3.633,3.123-2.612,3.378c0.963,0.255,2.75-2.003,2.887-2.121L51.813,13.471z"/>
	<path stroke="#000000" stroke-width="0.5" stroke-miterlimit="10" d="M55.23,15.67c-0.295-0.53-0.53-1.748,1.218-3.162
		c1.59-1.296,3.142-0.981,2.945-0.039c-0.118,0.472-0.668,0.923-0.825,1.041c-0.098,0.078-0.471-0.275-0.177-0.511
		c0.511-0.432,0.314-1.002-0.235-0.864c-0.393,0.099-1.453,0.806-2.003,1.61c-1.414,2.102,0.746,3.279,3.889,0.491
		c0.235-0.196,0.196,0.393,0.117,0.491c-0.098,0.098-1.453,1.512-2.671,1.669c-0.059,0.02-0.098,0.02-0.157,0.02
		c0,0.059-0.039,0.216-0.078,0.255c-0.039,0.079-0.039,0.06-0.196,0.079c-0.412,0.078-0.393,0.628,0.098,0.255
		c0.079-0.078,0.177,0.079,0.138,0.118c-0.628,0.628-1.119-0.334-0.255-0.55c0.039,0,0.059-0.079,0.059-0.138
		C56.251,16.494,55.584,16.259,55.23,15.67z"/>
	<path stroke="#000000" stroke-width="0.5" stroke-miterlimit="10" d="M67.289,14.728c-0.098,0.098-1.61,1.59-2.848,1.787
		c-1.001,0.156-1.61-0.53-1.315-1.513c-1.473,1.532-2.003,1.669-2.632,1.571c-0.727-0.118-1.217-1.257-0.156-2.77
		c1.06-1.492,2.493-1.943,3.023-1.943c0.472,0,0.884,0.313,0.982,0.805c0.177-0.216,0.314-0.373,0.373-0.393
		c0.157-0.079,0.569,0.274,0.569,0.373c0,0.059-0.511,0.569-0.962,1.061c-1.257,1.925-0.668,2.632,1.139,1.729
		c0.53-0.256,1.1-0.648,1.729-1.198C67.427,14.04,67.388,14.629,67.289,14.728z M63.755,13.471h-0.021c0,0,0.354-0.982-0.451-0.982
		c-1.768,0-3.633,3.123-2.612,3.378c0.963,0.255,2.75-2.003,2.887-2.121L63.755,13.471z M65.168,10.466
		c-0.884-0.393-1.394,0.216-2.101-0.039c-0.06-0.02-0.157,0.412-0.02,0.451c0.962,0.334,0.903-0.294,1.807,0.02
		C65.051,10.977,65.306,10.524,65.168,10.466z"/>
	<path stroke="#000000" stroke-width="0.5" stroke-miterlimit="10" d="M69.784,11.723c1.847-0.53,2.593,1.276,0.04,3.889
		c-2.121,2.18-3.869,0.353-2.317-1.905c0.373-0.53,0.863-0.962,1.178-1.198c0-0.02,0-0.059,0.02-0.078
		C68.764,12.214,69.353,11.841,69.784,11.723z M69.234,12.704c-2.337,1.964-1.748,3.319-1.041,3.28
		c0.413-0.04,0.924-0.314,1.61-1.14c2.004-2.435,0.864-3.318-0.569-2.298C69.273,12.606,69.273,12.665,69.234,12.704z"/>
</g>
</svg>
