<?xml version="1.0" encoding="utf-8"?>
<!-- Generator: Adobe Illustrator 16.0.0, SVG Export Plug-In . SVG Version: 6.00 Build 0)  -->
<!DOCTYPE svg PUBLIC "-//W3C//DTD SVG 1.1//EN" "http://www.w3.org/Graphics/SVG/1.1/DTD/svg11.dtd">
<svg version="1.1" id="Layer_1" xmlns="http://www.w3.org/2000/svg" xmlns:xlink="http://www.w3.org/1999/xlink" x="0px" y="0px"
	 width="330px" height="280px" viewBox="0 0 330 280" enable-background="new 0 0 330 280" xml:space="preserve">
<g>
	<rect x="67.313" y="140.666" fill="none" width="198.305" height="32.302"/>
</g>
<g enable-background="new    ">
	<path fill="#FFFFFF" d="M116.654,142.345l6.848,13.761l6.784-13.761h3.585v20.318h-2.552v-16.7l-6.978,14.148h-1.712l-7.074-14.375
		v16.927h-2.552v-20.318H116.654z"/>
	<path fill="#FFFFFF" d="M144.951,142.345h3.101l6.815,20.318h-2.648l-1.745-5.168h-8.076l-1.744,5.168h-2.681L144.951,142.345z
		 M143.077,155.492h6.751l-3.359-10.014L143.077,155.492z"/>
	<path fill="#FFFFFF" d="M173.119,148.159c0,1.68-0.447,3.036-1.342,4.07c-0.893,1.033-2.212,1.701-3.957,2.003l5.814,8.431h-3.295
		l-5.265-8.302h-3.553v8.302h-2.552v-20.318h7.075c2.281,0,4.031,0.549,5.248,1.647S173.119,146.479,173.119,148.159z
		 M165.851,152.585c1.528,0,2.687-0.372,3.473-1.114c0.786-0.743,1.179-1.723,1.179-2.94c0-1.216-0.383-2.185-1.146-2.907
		c-0.765-0.721-1.869-1.082-3.311-1.082h-4.523v8.044H165.851z"/>
	<path fill="#FFFFFF" d="M175.702,142.345h15.796v2.196h-6.622v18.122h-2.552v-18.122h-6.622V142.345z"/>
	<path fill="#FFFFFF" d="M198.217,142.345h3.102l6.815,20.318h-2.648l-1.745-5.168h-8.075l-1.744,5.168h-2.681L198.217,142.345z
		 M196.344,155.492h6.751l-3.359-10.014L196.344,155.492z"/>
</g>
<g>
	<rect x="67.313" y="174.48" fill="none" width="198.305" height="22.879"/>
</g>
<g enable-background="new    ">
	<path fill="#FFFFFF" d="M175.09,185.173c-0.97,2.95-2.209,5.341-3.715,7.171l1.389,1.195c0.43,0.366,0.813,0.636,1.146,0.808
		c0.334,0.173,0.764,0.258,1.292,0.258c0.527,0,1.001-0.198,1.421-0.597s0.662-1.083,0.728-2.052h2.39
		c-0.086,1.551-0.49,2.751-1.211,3.602c-0.722,0.852-1.771,1.276-3.149,1.276c-0.84,0-1.615-0.173-2.325-0.517
		c-0.711-0.345-1.486-0.894-2.326-1.647l-0.84-0.711c-2.154,1.917-4.609,2.875-7.365,2.875c-2.261,0-4.156-0.565-5.685-1.696
		c-1.529-1.13-2.293-2.492-2.293-4.086s0.511-2.794,1.534-3.602c1.022-0.808,2.525-1.373,4.506-1.696l-0.452-0.42
		c-1.659-1.442-2.487-3.025-2.487-4.748c0-1.357,0.565-2.487,1.696-3.392c1.13-0.905,2.627-1.357,4.49-1.357
		c1.862,0,3.348,0.452,4.457,1.357c1.109,0.904,1.664,1.997,1.664,3.278s-0.42,2.386-1.26,3.311
		c-0.84,0.927-2.207,1.799-4.103,2.617l5.104,4.49c1.463-1.766,2.67-3.995,3.617-6.688L175.09,185.173z M158.502,188.37
		c-0.787,0.582-1.179,1.39-1.179,2.423c0,1.034,0.447,1.922,1.341,2.665c0.893,0.743,2.266,1.114,4.119,1.114
		c1.852,0,3.649-0.71,5.394-2.132l-6.007-5.265C160.51,187.391,159.288,187.789,158.502,188.37z M167.176,180.715
		c0-0.775-0.297-1.421-0.889-1.938c-0.593-0.517-1.421-0.774-2.488-0.774c-1.066,0-1.895,0.296-2.487,0.888
		c-0.592,0.593-0.888,1.233-0.888,1.922c0,0.689,0.14,1.304,0.42,1.842c0.28,0.538,0.743,1.088,1.389,1.647l0.872,0.808
		c2.239-1.034,3.532-2.11,3.876-3.23C167.111,181.512,167.176,181.124,167.176,180.715z"/>
</g>
<g>
	<rect x="65.967" y="208.465" fill="none" width="198.304" height="32.303"/>
</g>
<g enable-background="new    ">
	<path fill="#FFFFFF" d="M121.381,210.145c3.058,0,5.508,0.921,7.349,2.762c1.841,1.842,2.762,4.308,2.762,7.397
		c0,3.091-0.92,5.556-2.762,7.397c-1.841,1.841-4.292,2.762-7.349,2.762h-5.976v-20.318H121.381z M117.957,228.234h3.424
		c2.261,0,4.059-0.748,5.395-2.245c1.335-1.497,2.003-3.397,2.003-5.701c0-2.305-0.673-4.194-2.019-5.67
		c-1.346-1.475-3.139-2.212-5.378-2.212h-3.424V228.234z"/>
	<path fill="#FFFFFF" d="M136.79,210.145h2.552v20.318h-2.552V210.145z"/>
	<path fill="#FFFFFF" d="M153.005,209.789c2.627,0,4.753,0.899,6.38,2.697c1.625,1.799,2.439,4.415,2.439,7.85
		c0,3.436-0.808,6.041-2.423,7.817s-3.747,2.665-6.396,2.665s-4.775-0.899-6.379-2.697c-1.605-1.798-2.407-4.398-2.407-7.801
		c0-3.425,0.802-6.035,2.407-7.834C148.23,210.688,150.356,209.789,153.005,209.789z M157.511,214.215
		c-1.109-1.422-2.611-2.132-4.506-2.132s-3.392,0.71-4.49,2.132c-1.099,1.421-1.647,3.468-1.647,6.138s0.549,4.694,1.647,6.072
		c1.098,1.379,2.595,2.067,4.49,2.067s3.397-0.688,4.506-2.067c1.109-1.378,1.664-3.402,1.664-6.072S158.62,215.636,157.511,214.215
		z"/>
	<path fill="#FFFFFF" d="M179.267,226.975c-0.904,2.563-2.659,3.844-5.265,3.844c-2.606,0-4.744-0.947-6.412-2.843
		c-1.67-1.895-2.504-4.446-2.504-7.655s0.91-5.761,2.729-7.656c1.819-1.895,4.087-2.843,6.8-2.843c1.594,0,2.988,0.323,4.184,0.97
		c1.195,0.646,2.223,1.68,3.084,3.101l-2.455,0.84c-1.399-1.744-3.036-2.616-4.91-2.616c-1.873,0-3.461,0.765-4.764,2.293
		c-1.304,1.529-1.955,3.517-1.955,5.96c0,2.444,0.561,4.409,1.68,5.896c1.12,1.485,2.627,2.229,4.523,2.229
		c1.55,0,2.799-0.517,3.746-1.55c0.947-1.034,1.422-2.563,1.422-4.588v-0.064l-5.104-0.193v-1.68h7.591v10.046h-2.067
		L179.267,226.975z"/>
	<path fill="#FFFFFF" d="M194.707,209.789c2.627,0,4.754,0.899,6.38,2.697c1.626,1.799,2.438,4.415,2.438,7.85
		c0,3.436-0.807,6.041-2.422,7.817s-3.748,2.665-6.396,2.665s-4.775-0.899-6.379-2.697c-1.605-1.798-2.407-4.398-2.407-7.801
		c0-3.425,0.802-6.035,2.407-7.834C189.932,210.688,192.059,209.789,194.707,209.789z M199.213,214.215
		c-1.109-1.422-2.611-2.132-4.506-2.132s-3.392,0.71-4.49,2.132c-1.098,1.421-1.646,3.468-1.646,6.138s0.549,4.694,1.646,6.072
		c1.099,1.379,2.596,2.067,4.49,2.067s3.396-0.688,4.506-2.067c1.109-1.378,1.664-3.402,1.664-6.072
		S200.323,215.636,199.213,214.215z"/>
</g>
<g>
	<path fill="#FFFFFF" d="M139.719,186.943H86.05c-0.552,0-1-0.447-1-1s0.448-1,1-1h53.669c0.552,0,1,0.447,1,1
		S140.271,186.943,139.719,186.943z"/>
</g>
<g>
	<path fill="#FFFFFF" d="M242.684,186.943h-53.67c-0.553,0-1-0.447-1-1s0.447-1,1-1h53.67c0.553,0,1,0.447,1,1
		S243.237,186.943,242.684,186.943z"/>
</g>
<g>
	<g>
		<path fill="#FFFFFF" d="M169.967,63.767c-0.256,0-0.512-0.098-0.707-0.293l-7.009-7.01c-0.391-0.391-0.391-1.024,0-1.414
			c0.391-0.391,1.023-0.391,1.414,0l7.009,7.01c0.391,0.391,0.391,1.024,0,1.414C170.479,63.669,170.223,63.767,169.967,63.767z"/>
	</g>
	<g>
		<path fill="#FFFFFF" d="M162.958,63.767c-0.256,0-0.512-0.098-0.707-0.293c-0.391-0.39-0.391-1.023,0-1.414l7.009-7.01
			c0.391-0.391,1.023-0.391,1.414,0c0.391,0.39,0.391,1.023,0,1.414l-7.009,7.01C163.47,63.669,163.214,63.767,162.958,63.767z"/>
	</g>
</g>
<g>
	<path fill="#FFFFFF" d="M61.328,258.232c-0.32,0-0.635-0.153-0.828-0.438c-14.436-21.24-22.066-46.086-22.066-71.852
		s7.63-50.612,22.065-71.854c0.311-0.456,0.934-0.575,1.389-0.265c0.457,0.311,0.576,0.933,0.265,1.389
		c-14.209,20.908-21.72,45.366-21.72,70.729s7.511,49.82,21.721,70.727c0.311,0.457,0.192,1.079-0.265,1.39
		C61.718,258.177,61.522,258.232,61.328,258.232z"/>
</g>
<g>
	<path fill="#FFFFFF" d="M271.599,258.232c-0.193,0-0.389-0.056-0.562-0.173c-0.456-0.311-0.575-0.933-0.265-1.39
		c14.21-20.906,21.721-45.363,21.721-70.727c0-25.365-7.511-49.823-21.721-70.73c-0.311-0.457-0.191-1.079,0.265-1.389
		c0.46-0.31,1.079-0.191,1.39,0.265c14.436,21.24,22.066,46.087,22.066,71.854c0,25.766-7.631,50.611-22.066,71.852
		C272.234,258.079,271.919,258.232,271.599,258.232z"/>
</g>
<g>
	<path fill="none" stroke="#FFFFFF" stroke-width="2" stroke-linecap="round" stroke-linejoin="round" stroke-miterlimit="10" d="
		M349.775,147.229"/>
</g>
<g>
	<path fill="#FFFFFF" d="M181.333,23.648c-0.315,0-0.625-0.148-0.82-0.426C168.112,5.518,148.301,6.935,148.102,6.953
		c-0.554,0.046-1.034-0.364-1.079-0.914c-0.046-0.55,0.362-1.033,0.912-1.08c0.21-0.017,21.137-1.555,34.217,17.115
		c0.316,0.452,0.207,1.076-0.245,1.393C181.732,23.589,181.531,23.648,181.333,23.648z"/>
</g>
<g>
	<path fill="#FFFFFF" d="M149.141,22.94c-0.221,0-0.443-0.073-0.629-0.223c-0.429-0.347-0.495-0.977-0.148-1.406
		c0.581-0.719,14.464-17.588,34.262-16.396c0.552,0.033,0.972,0.506,0.938,1.058c-0.032,0.552-0.521,0.974-1.058,0.938
		c-18.78-1.117-32.453,15.49-32.588,15.658C149.721,22.813,149.432,22.94,149.141,22.94z"/>
</g>
<g>
	<path fill="#FFFFFF" d="M157.609,25.182c-0.398,0-0.76-0.24-0.919-0.606c-0.12-0.275-2.879-6.797,1.423-11.4
		c0.204-0.219,0.5-0.334,0.795-0.315c0.299,0.02,0.574,0.172,0.748,0.416c0.098,0.137,2.399,3.4,1.778,6.952
		c-0.333,1.91-1.43,3.517-3.258,4.776C158.009,25.121,157.811,25.182,157.609,25.182z M158.723,15.67
		c-1.428,2.39-1.041,5.197-0.624,6.804c0.738-0.759,1.196-1.626,1.364-2.589C159.742,18.29,159.215,16.713,158.723,15.67z"/>
</g>
<g>
	<path fill="#FFFFFF" d="M173.366,24.564c-0.161,0-0.323-0.039-0.469-0.117c-1.917-1.029-3.112-2.458-3.553-4.25
		c-0.833-3.383,1.417-6.758,1.513-6.9c0.153-0.226,0.392-0.379,0.661-0.425c0.271-0.047,0.546,0.021,0.764,0.184
		c3.904,2.906,2.259,9.955,2.059,10.749c-0.075,0.299-0.284,0.548-0.566,0.673C173.645,24.536,173.505,24.564,173.366,24.564z
		 M171.908,15.545c-0.475,1.043-0.998,2.66-0.62,4.183c0.21,0.844,0.669,1.564,1.392,2.177
		C172.978,19.903,173.001,17.215,171.908,15.545z"/>
</g>
<g>
	<path fill="#FFFFFF" d="M147.071,29.334c-0.579,0-1.103-0.226-1.474-0.635c-0.358-0.395-0.565-0.925-0.623-1.607
		c-1.099-0.109-2.216-0.468-2.595-1.423c-0.516-1.299,0.757-2.5,1.176-2.894c0.141-0.122,2.667-2.209,5.249-1.825
		c0.912,0.134,1.4,0.633,1.649,1.029c0.775,1.232,0.321,2.996-0.209,4.697c-0.055,0.177-0.104,0.332-0.138,0.456
		C149.797,28.263,148.322,29.333,147.071,29.334z M146.985,26.138c0,0.03-0.002,0.06-0.005,0.089
		c-0.086,0.891,0.096,1.125,0.098,1.127l-0.007-0.021c0.383,0,1.014-0.488,1.108-0.738c0.037-0.136,0.092-0.313,0.155-0.515
		c0.212-0.679,0.774-2.482,0.426-3.037c-0.018-0.028-0.055-0.086-0.247-0.115c-1.741-0.252-3.608,1.322-3.626,1.337
		c-0.325,0.308-0.483,0.525-0.56,0.656c0.257,0.103,0.792,0.211,1.509,0.211l0.112-0.001c0.027-0.001,0.056,0,0.085,0
		c0.533,0.026,0.952,0.465,0.952,0.999C146.985,26.133,146.985,26.135,146.985,26.138z"/>
</g>
<g>
	<path fill="#FFFFFF" d="M184.473,30.164c-0.716,0-1.437-0.411-2.27-1.292c-0.125-0.146-2.208-2.645-1.824-5.249
		c0.091-0.619,0.531-2.061,2.661-2.061c1.077,0,2.272,0.373,3.064,0.62c0.177,0.055,0.332,0.104,0.456,0.138
		c1.116,0.305,2.369,1.933,2.182,3.326c-0.053,0.399-0.37,1.64-2.223,1.803C186.275,29.883,185.031,30.164,184.473,30.164z
		 M183.04,23.562c-0.631,0-0.656,0.17-0.683,0.351c-0.208,1.416,0.896,3.099,1.339,3.628c0.308,0.325,0.525,0.483,0.655,0.558
		c0.132-0.322,0.228-1.018,0.209-1.616c-0.002-0.036-0.001-0.073,0.001-0.109c0.035-0.539,0.478-0.97,1.032-0.934
		c0.033,0.001,0.068,0.004,0.104,0.008c0.145,0.013,0.277,0.019,0.401,0.019c0.532,0,0.683-0.119,0.684-0.12
		c0.042-0.227-0.446-0.983-0.76-1.1c-0.136-0.037-0.313-0.092-0.515-0.155C184.833,23.88,183.813,23.562,183.04,23.562z"/>
</g>
</svg>
