<?xml version="1.0" encoding="utf-8"?>
<!-- Generator: Adobe Illustrator 16.0.0, SVG Export Plug-In . SVG Version: 6.00 Build 0)  -->
<!DOCTYPE svg PUBLIC "-//W3C//DTD SVG 1.1//EN" "http://www.w3.org/Graphics/SVG/1.1/DTD/svg11.dtd">
<svg version="1.1" id="Layer_1" xmlns="http://www.w3.org/2000/svg" xmlns:xlink="http://www.w3.org/1999/xlink" x="0px" y="0px"
	 width="83.334px" height="26.333px" viewBox="0 0 83.334 26.333" enable-background="new 0 0 83.334 26.333" xml:space="preserve">
<g>
	<g>
		<path d="M20.522,11.271c0.893-1.368,1.709-2.527,2.564-3.419c-1.425-0.513-3.172-1.501-5.243-1.463
			c-2.355,0.038-2.925,2.375-2.831,3.419c0.038,0.342-0.646-0.171-0.627-0.57c0.114-2.299,1.596-3.306,3.496-3.363
			c2.526-0.076,4.16,0.893,5.737,1.463c0.76-0.684,1.558-1.14,2.488-1.311c2.014-0.399,2.546,1.311,0.779,2.014
			C26.297,8.27,25.29,8.479,23.771,8.08c-0.95,0.95-1.862,2.204-2.546,3.211c0.646,0.038,1.178,0.076,1.33,0.114
			c0.228,0.076,0.057,0.589,0,0.57c-0.304-0.076-0.874-0.114-1.71-0.133l-0.133,0.209c-0.817,1.235-2.717,5.547-6.136,5.396
			c-2.812-0.133-3.078-3.458-2.698-4.37c0.247-0.627,0.779-0.304,0.703-0.133c-0.437,0.95-0.247,3.933,2.223,4.009
			c2.394,0.057,4.407-3.705,5.319-5.072l0.019-0.038c-0.665,0-1.444,0.019-2.356,0.038c-0.304,0.076,0.038-0.475,0.342-0.551
			C18.413,11.252,19.496,11.252,20.522,11.271z M26.221,7.719c1.425-0.209,1.558-1.368,0.171-1.254
			c-0.684,0.076-1.387,0.494-2.09,1.102C24.929,7.738,25.537,7.814,26.221,7.719z"/>
		<path d="M14.751,17.7c-0.062,0-0.124-0.001-0.187-0.004c-1.05-0.05-1.893-0.53-2.437-1.39c-0.725-1.145-0.744-2.693-0.48-3.326
			c0.186-0.472,0.518-0.523,0.651-0.523c0.193,0,0.38,0.096,0.476,0.244c0.071,0.109,0.084,0.234,0.035,0.344
			c-0.247,0.537-0.256,1.821,0.287,2.698c0.379,0.613,0.957,0.936,1.715,0.959h0c1.975,0,3.748-2.817,4.7-4.331
			c0.061-0.097,0.119-0.189,0.174-0.277c-0.452,0.005-0.952,0.016-1.503,0.027l-0.392,0.008c-0.22,0.001-0.351-0.104-0.371-0.264
			c-0.034-0.274,0.317-0.697,0.647-0.78c0.119-0.031,0.401-0.075,1.439-0.075c0.281,0,0.582,0.003,0.881,0.008
			c0.701-1.07,1.455-2.166,2.262-3.064c-0.22-0.086-0.446-0.18-0.68-0.277c-1.176-0.487-2.508-1.04-4.01-1.04l-0.112,0.001
			c-0.747,0.012-1.356,0.274-1.809,0.778c-0.619,0.688-0.836,1.71-0.777,2.369c0.016,0.139-0.035,0.23-0.081,0.281l-0.075,0.083
			l-0.165,0.021c-0.216,0-0.428-0.198-0.509-0.283c-0.094-0.099-0.312-0.36-0.297-0.661c0.11-2.221,1.473-3.533,3.738-3.601
			c2.036-0.058,3.53,0.548,4.83,1.083c0.293,0.121,0.578,0.238,0.861,0.344c0.801-0.693,1.619-1.109,2.497-1.271
			c1.085-0.216,1.988,0.173,2.126,0.899c0.091,0.477-0.171,1.18-1.21,1.593c-0.885,0.342-1.95,0.37-3.13,0.083
			c-0.658,0.675-1.37,1.565-2.167,2.711c0.534,0.035,0.814,0.063,0.935,0.094c0.101,0.033,0.365,0.158,0.292,0.606
			c-0.027,0.17-0.11,0.457-0.35,0.457l-0.083-0.013c-0.232-0.057-0.715-0.096-1.496-0.117l-0.057,0.09
			c-0.119,0.18-0.258,0.421-0.421,0.703C19.527,14.569,17.714,17.7,14.751,17.7z M12.298,12.957c-0.065,0-0.136,0.079-0.188,0.211
			c-0.192,0.461-0.208,1.847,0.44,2.871c0.459,0.726,1.145,1.115,2.037,1.157c0.066,0.004,0.133,0.003,0.199,0.004
			c-0.949-0.047-1.66-0.458-2.116-1.193c-0.626-1.011-0.615-2.363-0.365-3.05C12.303,12.957,12.301,12.957,12.298,12.957z
			 M20.142,11.591h0.404l-0.215,0.427c-0.115,0.172-0.247,0.383-0.396,0.619c-0.96,1.526-2.499,3.97-4.388,4.473
			c2.225-0.507,3.693-3.043,4.521-4.474c0.169-0.292,0.313-0.541,0.435-0.724l0.206-0.324l0.141,0.003
			c0.74,0.017,1.238,0.048,1.563,0.1c0.004-0.021,0.006-0.042,0.007-0.06c-0.158-0.022-0.568-0.054-1.21-0.092l-0.44-0.025
			l0.248-0.365c0.958-1.409,1.8-2.471,2.576-3.247l0.102-0.102l0.139,0.037c0.904,0.239,1.733,0.28,2.446,0.125
			c-0.007,0.001-0.015,0.002-0.022,0.003c-0.663,0.093-1.279,0.044-2.021-0.158l-0.453-0.124l0.355-0.307
			c0.545-0.471,1.051-0.797,1.529-0.984c-0.651,0.203-1.258,0.569-1.882,1.131l-0.111,0.1l-0.141-0.051
			c-0.335-0.121-0.672-0.26-1.02-0.403c-1.255-0.517-2.694-1.109-4.625-1.045c-1.159,0.035-3.122,0.487-3.253,3.125
			c-0.003,0.07,0.051,0.165,0.119,0.246c0.019-0.748,0.292-1.724,0.912-2.414c0.55-0.612,1.281-0.93,2.173-0.944l0.121-0.001
			c1.602,0,2.983,0.572,4.202,1.078c0.353,0.146,0.689,0.286,1.01,0.401l0.362,0.13l-0.266,0.278
			c-0.905,0.945-1.754,2.185-2.536,3.383l-0.076,0.116l-0.138-0.002c-0.341-0.006-0.689-0.011-1.011-0.011
			c-0.951,0-1.231,0.037-1.314,0.059c-0.031,0.008-0.065,0.028-0.099,0.054l0.078-0.003C18.92,11.605,19.573,11.591,20.142,11.591z
			 M26.862,6.227c0.519,0.079,0.73,0.373,0.75,0.65c0.016,0.216-0.087,0.451-0.307,0.649c0.319-0.247,0.435-0.531,0.392-0.751
			C27.64,6.476,27.32,6.271,26.862,6.227z M24.858,7.438c0.46,0.083,0.871,0.097,1.329,0.033c0.676-0.099,0.938-0.412,0.927-0.557
			c-0.009-0.119-0.262-0.233-0.701-0.2C25.946,6.766,25.433,7.004,24.858,7.438z"/>
	</g>
	<g>
		<path d="M23.334,12.753c1.786-0.513,2.508,1.235,0.038,3.761c-2.052,2.109-3.743,0.342-2.242-1.842
			c0.361-0.514,0.836-0.932,1.14-1.159c0-0.019,0-0.057,0.019-0.076C22.347,13.228,22.917,12.867,23.334,12.753z M22.803,13.704
			c-2.261,1.898-1.691,3.21-1.007,3.172c0.399-0.038,0.893-0.304,1.558-1.102c1.938-2.356,0.836-3.211-0.551-2.223
			C22.84,13.608,22.84,13.665,22.803,13.704z"/>
		<path d="M21.621,17.711c-0.498,0-0.912-0.244-1.136-0.671c-0.349-0.663-0.185-1.602,0.439-2.51
			c0.386-0.549,0.866-0.961,1.117-1.157c0.006-0.017,0.014-0.034,0.023-0.051c0.149-0.357,0.848-0.713,1.203-0.811
			c0.852-0.245,1.58-0.003,1.838,0.613c0.363,0.863-0.218,2.196-1.556,3.564C22.729,17.534,22.048,17.711,21.621,17.711z
			 M22.354,13.764c-0.207,0.162-0.665,0.549-1.019,1.052c-0.607,0.884-0.609,1.608-0.408,1.992c0.344,0.651,1.355,0.467,2.266-0.468
			c1.406-1.438,1.661-2.526,1.453-3.022c-0.12-0.285-0.378-0.378-0.609-0.399c0.239,0.052,0.425,0.194,0.525,0.406
			c0.266,0.562-0.095,1.488-1.016,2.608c-0.634,0.761-1.183,1.14-1.727,1.191c-0.002,0-0.003,0-0.005,0
			c-0.391,0-0.679-0.218-0.806-0.566C20.905,16.273,20.714,15.262,22.354,13.764z M23.079,13.666
			c-0.007,0.079-0.04,0.153-0.097,0.212c-1.371,1.152-1.664,2.069-1.504,2.509c0.055,0.149,0.163,0.239,0.289,0.239
			c0.404-0.038,0.858-0.369,1.395-1.013c0.904-1.1,1.076-1.805,0.949-2.075c-0.017-0.035-0.067-0.142-0.286-0.142
			C23.619,13.397,23.353,13.494,23.079,13.666z"/>
	</g>
	<g>
		<path d="M29.642,11.404c-1.311,1.444-2.983,3.04-3.837,3.819c-0.057,0.266-0.095,0.513-0.095,0.74c0,0.59,0.209,0.76,0.551,0.779
			c0.418,0.02,1.045-0.209,2.47-1.463c0.228-0.189,0.19,0.285,0.095,0.38c-0.076,0.095-1.653,1.672-2.565,1.634
			c-2.014-0.057-1.026-3.135-0.057-4.654c0.228-0.342,0.513-0.741,0.874-1.178c-1.045,0.076-1.767,0.114-1.767,0.114
			c-0.361,0.038-0.019-0.456,0.171-0.475c0.076-0.019,0.912-0.057,1.995-0.133c2.755-3.229,4.939-2.944,2.679-0.171
			c1.501-0.076,2.812-0.133,2.963-0.095c0.133,0.038,0.133,0.513,0,0.513c-0.722-0.019-2.033,0.019-3.381,0.095L29.642,11.404z
			 M29.034,11.347c-0.418,0.019-0.817,0.038-1.197,0.076c-0.532,0.627-1.349,1.786-1.786,2.964
			C27.419,13.076,28.369,12.088,29.034,11.347z M29.49,10.854c1.007-1.178,1.026-1.501,0.855-1.52
			c-0.247-0.019-1.178,0.665-2.071,1.577L29.49,10.854z"/>
		<path d="M26.293,17.544l-0.043-0.001c-0.713-0.021-1.053-0.383-1.212-0.684c-0.603-1.137,0.266-3.275,0.955-4.355
			c0.175-0.263,0.353-0.512,0.537-0.754c-0.733,0.049-1.206,0.074-1.206,0.074c-0.294,0.008-0.414-0.167-0.421-0.324
			c-0.013-0.266,0.293-0.624,0.555-0.649c0.022-0.008,0.139-0.016,0.71-0.051c0.32-0.019,0.729-0.044,1.188-0.076
			c1.236-1.427,2.534-2.345,3.324-2.345c0.383,0,0.541,0.212,0.601,0.339c0.218,0.46-0.147,1.172-0.598,1.801
			c1.121-0.055,1.819-0.081,2.177-0.081c0.2,0,0.272,0.008,0.32,0.02c0.246,0.069,0.316,0.376,0.281,0.633
			c-0.038,0.274-0.201,0.372-0.342,0.372c-0.739-0.02-1.957,0.017-3.272,0.089l-0.027,0.027c-1.296,1.428-2.961,3.016-3.786,3.772
			c-0.05,0.247-0.073,0.442-0.073,0.61c0,0.512,0.153,0.521,0.315,0.529c0.001,0,0.001,0,0.002,0c0.319,0,0.864-0.147,2.288-1.4
			c0.218-0.181,0.462-0.11,0.549,0.097c0.078,0.188,0.021,0.515-0.112,0.647l0,0C29.003,15.836,27.383,17.544,26.293,17.544z
			 M27.642,11.17l-0.372,0.451c-0.305,0.37-0.586,0.748-0.858,1.157c-0.679,1.064-1.383,2.997-0.933,3.848
			c0.144,0.271,0.401,0.407,0.788,0.418l0.026,0.251v-0.25c0.144,0,0.314-0.051,0.496-0.135c-0.195,0.066-0.349,0.084-0.481,0.084
			l0,0c-0.848-0.046-0.848-0.787-0.848-1.03c0-0.211,0.029-0.451,0.092-0.751l-0.113,0.108l0.378-1.021
			c0.429-1.155,1.226-2.327,1.83-3.039l0.063-0.074L27.65,11.19l0.445-0.455c0.65-0.665,1.784-1.653,2.239-1.653l0.029,0.001
			c0.137,0.015,0.241,0.093,0.287,0.209c0.036,0.09,0.044,0.208-0.037,0.405c0.234-0.429,0.257-0.676,0.215-0.765
			c-0.017-0.035-0.067-0.053-0.149-0.053c-0.527,0-1.694,0.704-3.012,2.249l-0.035,0.041L27.642,11.17z M27.963,11.663
			c-0.342,0.413-0.739,0.966-1.086,1.572c0.584-0.579,1.106-1.116,1.563-1.607C28.277,11.637,28.119,11.648,27.963,11.663z
			 M32.859,10.939c-0.274,0-0.744,0.016-1.259,0.039c0.532-0.016,1.004-0.023,1.367-0.017c0-0.007,0-0.015-0.001-0.021
			C32.937,10.939,32.901,10.939,32.859,10.939z M30.025,9.745c-0.263,0.17-0.655,0.471-1.104,0.885l0.448-0.021
			C29.715,10.2,29.913,9.925,30.025,9.745z"/>
	</g>
	<g>
		<path d="M31.238,12.753c1.786-0.513,2.508,1.235,0.038,3.761c-2.052,2.109-3.743,0.342-2.242-1.842
			c0.361-0.514,0.836-0.932,1.14-1.159c0-0.019,0-0.057,0.019-0.076C30.25,13.228,30.82,12.867,31.238,12.753z M30.707,13.704
			c-2.261,1.898-1.691,3.21-1.007,3.172c0.399-0.038,0.893-0.304,1.558-1.102c1.938-2.356,0.836-3.211-0.551-2.223
			C30.744,13.608,30.744,13.665,30.707,13.704z"/>
		<path d="M29.525,17.711c-0.498,0-0.912-0.244-1.136-0.671c-0.349-0.663-0.185-1.602,0.439-2.51
			c0.386-0.549,0.866-0.961,1.117-1.157c0.006-0.017,0.014-0.034,0.023-0.051c0.149-0.357,0.848-0.713,1.203-0.811
			c0.852-0.245,1.579-0.003,1.838,0.613c0.363,0.863-0.218,2.196-1.556,3.564C30.633,17.534,29.952,17.711,29.525,17.711z
			 M30.258,13.764c-0.207,0.162-0.665,0.549-1.019,1.052c-0.607,0.884-0.609,1.608-0.408,1.992c0.344,0.651,1.355,0.467,2.266-0.468
			c1.406-1.438,1.661-2.526,1.453-3.022c-0.12-0.285-0.378-0.378-0.609-0.399c0.239,0.052,0.425,0.194,0.525,0.406
			c0.266,0.562-0.095,1.488-1.016,2.608c-0.634,0.761-1.183,1.14-1.727,1.191c-0.388,0.003-0.684-0.216-0.812-0.566
			C28.809,16.273,28.618,15.262,30.258,13.764z M30.983,13.666c-0.007,0.079-0.04,0.153-0.097,0.212
			c-1.371,1.152-1.664,2.069-1.504,2.509c0.055,0.149,0.163,0.239,0.289,0.239c0.404-0.038,0.858-0.369,1.395-1.013
			c0.904-1.1,1.076-1.805,0.949-2.075c-0.017-0.035-0.067-0.142-0.286-0.142C31.523,13.397,31.257,13.494,30.983,13.666z"/>
	</g>
	<g>
		<path d="M38.458,13.133c-0.912,0.779-1.653,2.432-2.564,4.256c0.931-0.494,1.88-1.045,2.355-1.388
			c0.285-0.209,0.608-0.475,1.007-0.817c0.209-0.189,0.171,0.381,0.095,0.476c-0.057,0.058-0.589,0.589-1.216,1.026
			c-0.703,0.512-1.615,0.949-2.603,1.405c-0.798,1.521-1.729,3.097-2.983,4.351c-0.95,0.912-1.938,1.14-2.394,0.836
			c-0.722-0.514-0.893-2.641,4.616-5.319c0.133-0.076,0.266-0.134,0.399-0.209c0.323-0.608,0.589-1.159,0.836-1.672
			c-1.178,1.063-2.28,1.69-2.925,0.912c-0.988-1.179,1.425-4.541,3.59-4.084c0.38,0.076,0.589,0.399,0.703,0.665
			c0.152-0.209,0.323-0.418,0.513-0.627C38.021,12.791,38.724,12.905,38.458,13.133z M30.65,22.822
			c0.171,0.095,0.969-0.038,1.652-0.854c1.121-1.368,1.9-2.527,2.489-3.534C31.105,20.219,30.099,22.479,30.65,22.822z
			 M36.311,13.437c-2.071,0.133-3.781,3.913-2.033,3.173c1.634-0.703,2.298-1.861,2.678-2.413
			C36.957,13.76,36.748,13.399,36.311,13.437z"/>
		<path d="M30.641,23.655c-0.246,0-0.455-0.057-0.624-0.169c-0.336-0.239-0.51-0.666-0.47-1.146
			c0.069-0.824,0.825-2.521,5.115-4.606c0.058-0.033,0.129-0.069,0.201-0.105c0.041-0.021,0.081-0.041,0.122-0.063
			c0.105-0.199,0.205-0.393,0.299-0.58c-1.083,0.76-1.876,0.788-2.395,0.163c-0.381-0.454-0.38-1.188,0.004-2.011
			c0.571-1.225,1.946-2.525,3.368-2.525c0.156,0,0.312,0.016,0.462,0.048c0.27,0.054,0.501,0.21,0.683,0.458
			c0.094-0.116,0.192-0.23,0.296-0.344c0.108-0.125,0.294-0.151,0.431-0.151c0.084,0,0.508,0.014,0.614,0.299
			c0.019,0.052,0.067,0.234-0.127,0.4c-0.753,0.644-1.403,1.952-2.152,3.469c0.707-0.394,1.303-0.755,1.634-0.994
			c0.254-0.186,0.561-0.435,0.99-0.804c0.17-0.154,0.422-0.112,0.517,0.086c0.09,0.188,0.056,0.586-0.063,0.735
			c-0.078,0.08-0.625,0.626-1.268,1.075c-0.703,0.512-1.612,0.951-2.564,1.392c-0.75,1.423-1.691,3.039-2.988,4.336
			C32.049,23.269,31.271,23.655,30.641,23.655z M32.389,19.599c-1.975,1.348-2.307,2.347-2.343,2.783
			c-0.025,0.302,0.07,0.561,0.255,0.691c0.2,0.135,0.659,0.093,1.095-0.114c-0.439,0.18-0.709,0.168-0.867,0.081
			c-0.115-0.071-0.287-0.233-0.268-0.593C30.293,21.835,30.911,20.734,32.389,19.599z M34.108,19.072
			c-2.447,1.375-3.319,2.852-3.348,3.402c-0.005,0.096,0.017,0.133,0.021,0.136c0.276-0.012,0.843-0.223,1.329-0.803
			C32.875,20.874,33.534,19.971,34.108,19.072z M34.887,18.761c-0.665,1.111-1.449,2.214-2.392,3.364
			c-0.041,0.049-0.083,0.096-0.124,0.141c0.001-0.002,0.003-0.003,0.004-0.005C33.414,21.224,34.223,19.958,34.887,18.761z
			 M38.086,16.414c-0.431,0.28-1.053,0.644-1.745,1.019c0.614-0.301,1.182-0.61,1.646-0.948
			C38.021,16.46,38.053,16.438,38.086,16.414z M36.262,13.113c-1.171,0-2.402,1.138-2.915,2.236
			c-0.294,0.631-0.322,1.184-0.074,1.48c0.411,0.494,1.081,0.285,2.109-0.546c-0.29,0.201-0.622,0.392-1.005,0.556
			c-0.185,0.079-0.344,0.116-0.485,0.116l0,0c-0.35,0-0.575-0.234-0.586-0.611c-0.031-0.949,1.365-3.052,2.99-3.157l0.078-0.003
			c0.499,0,0.833,0.407,0.833,1.013v0.078l-0.148,0.218c-0.167,0.249-0.394,0.589-0.721,0.949l0.448-0.404l-0.126,0.262
			c0.469-0.897,0.926-1.659,1.44-2.174c-0.033,0.002-0.052,0.007-0.057,0.01c-0.152,0.177-0.319,0.381-0.466,0.583l-0.259,0.354
			l-0.173-0.403c-0.128-0.3-0.304-0.475-0.521-0.518C36.504,13.125,36.383,13.113,36.262,13.113z M36.373,13.434l-0.041,0.252
			c-1.37,0.088-2.55,1.949-2.528,2.643c0.004,0.127,0.034,0.127,0.087,0.127c0.05,0,0.141-0.013,0.289-0.076
			c1.423-0.612,2.073-1.584,2.462-2.165l0.062-0.09c-0.012-0.159-0.069-0.44-0.331-0.44V13.434z"/>
	</g>
	<g>
		<path d="M41.612,14.444c0.399-0.456,0.57-0.76,0.475-0.855c-0.114-0.095-0.589,0.152-1.025,0.171
			c-0.494,0.664-1.159,1.387-1.824,2.032c-0.133,0.114-0.247-0.38-0.171-0.437c0.589-0.494,1.159-1.159,1.558-1.672
			c-0.247-0.133-0.418-0.38-0.323-0.817c0.285-1.197,1.748-1.083,1.406-0.209c-0.095,0.228-0.228,0.456-0.38,0.703
			c0.228-0.057,0.475-0.152,0.627-0.209c0.816-0.304,1.349,0.076,0.551,1.007c-0.418,0.514-1.843,2.47-0.817,2.584
			c0.399,0.038,1.045-0.305,2.469-1.559c0.209-0.189,0.172,0.381,0.096,0.476c-0.096,0.095-1.672,1.672-2.584,1.634
			C40.548,17.255,40.32,15.963,41.612,14.444z M41.175,12.848c0.19-0.437-0.399-0.323-0.475,0.152
			c-0.038,0.209,0.019,0.323,0.152,0.38C41.004,13.133,41.137,12.943,41.175,12.848z"/>
		<path d="M41.702,17.544l-0.043-0.001c-0.5-0.018-0.889-0.259-1.067-0.662c-0.295-0.669,0.015-1.641,0.831-2.6
			c0.154-0.177,0.255-0.308,0.32-0.403c-0.003,0.001-0.006,0.002-0.01,0.003c-0.156,0.043-0.345,0.096-0.539,0.119
			c-0.577,0.759-1.283,1.486-1.782,1.972l-0.073,0.07l-0.142,0.017c-0.092,0.001-0.261-0.042-0.355-0.325
			c-0.042-0.126-0.118-0.434,0.075-0.578c0.522-0.438,1.029-1.024,1.354-1.427c-0.172-0.175-0.312-0.462-0.213-0.915
			c0.177-0.743,0.75-1.079,1.207-1.079c0.271,0,0.502,0.11,0.633,0.302c0.131,0.193,0.146,0.445,0.042,0.711
			c-0.024,0.057-0.049,0.113-0.077,0.169c0.642-0.232,1.074-0.117,1.233,0.226c0.097,0.21,0.105,0.585-0.402,1.177
			c-0.631,0.776-1.23,1.813-1.108,2.112c0.005,0.014,0.02,0.048,0.129,0.061c0,0,0.001,0,0.001,0c0.402,0,1.115-0.477,2.275-1.498
			c0.175-0.16,0.425-0.113,0.52,0.084c0.09,0.188,0.056,0.587-0.063,0.735C44.021,16.242,42.636,17.544,41.702,17.544z
			 M42.163,13.346c0.031,0.013,0.059,0.029,0.084,0.051c0.291,0.288-0.044,0.751-0.447,1.212c-0.809,0.951-0.911,1.71-0.751,2.07
			c0.127,0.288,0.412,0.357,0.628,0.364l0.024,0.251v-0.25c0.177,0,0.403-0.08,0.654-0.214c-0.236,0.112-0.435,0.165-0.608,0.165
			l-0.083-0.004c-0.356-0.04-0.491-0.247-0.54-0.368c-0.302-0.737,0.936-2.314,1.187-2.623c0.337-0.392,0.354-0.6,0.332-0.647
			C42.621,13.307,42.411,13.275,42.163,13.346z M41.092,12.325c0.13,0,0.243,0.058,0.31,0.16c0.021,0.033,0.041,0.075,0.052,0.128
			c0.007-0.017,0.015-0.034,0.021-0.051c0.022-0.058,0.056-0.172,0.008-0.242c-0.08-0.117-0.375-0.118-0.601,0.053
			C40.954,12.342,41.025,12.325,41.092,12.325z"/>
	</g>
	<g>
		<path d="M48.395,17.389c-0.969,0.151-1.558-0.514-1.272-1.463c-1.425,1.48-1.938,1.614-2.546,1.52
			c-0.702-0.114-1.178-1.217-0.151-2.68c1.025-1.443,2.412-1.88,2.926-1.88c0.455,0,0.854,0.304,0.949,0.779
			c0.171-0.209,0.304-0.361,0.361-0.38c0.151-0.076,0.551,0.266,0.551,0.361c0,0.058-0.494,0.551-0.932,1.026
			c-1.215,1.861-0.646,2.545,1.103,1.672c0.513-0.248,1.063-0.627,1.671-1.16c0.229-0.189,0.19,0.381,0.096,0.476
			C51.054,15.754,49.592,17.198,48.395,17.389z M47.729,14.444h-0.019c0,0,0.342-0.95-0.437-0.95c-1.711,0-3.516,3.02-2.527,3.268
			c0.932,0.246,2.66-1.938,2.793-2.053L47.729,14.444z"/>
		<path d="M44.85,17.719c-0.104,0-0.207-0.01-0.312-0.026c-0.37-0.061-0.673-0.313-0.834-0.696c-0.274-0.65-0.086-1.516,0.516-2.374
			c1.029-1.447,2.467-1.986,3.131-1.986c0.43,0,0.809,0.216,1.026,0.559c0.086-0.088,0.144-0.126,0.206-0.147l0.13-0.023
			c0.271,0,0.749,0.359,0.749,0.622c0,0.135-0.048,0.189-0.569,0.739c-0.136,0.143-0.285,0.301-0.429,0.456
			c-0.548,0.847-0.643,1.359-0.549,1.532c0.08,0.15,0.345,0.252,1.356-0.253c0.506-0.245,1.034-0.612,1.617-1.124
			c0.212-0.178,0.454-0.105,0.543,0.109c0.08,0.193,0.043,0.582-0.105,0.73c-0.27,0.267-1.673,1.604-2.893,1.8
			c-0.607,0.095-1.102-0.084-1.391-0.472c-0.123-0.166-0.2-0.36-0.229-0.574C45.957,17.414,45.41,17.719,44.85,17.719z
			 M47.351,13.136c-0.477,0-1.77,0.434-2.722,1.774c-0.493,0.703-0.667,1.411-0.464,1.893c0.093,0.22,0.257,0.364,0.451,0.396
			c0.485,0.08,0.929,0.005,2.326-1.446l0.717-0.745l-0.298,0.991c-0.104,0.348-0.075,0.655,0.083,0.867
			c0.176,0.237,0.51,0.341,0.911,0.276c0.614-0.098,1.318-0.564,1.844-0.979c-0.241,0.159-0.476,0.295-0.708,0.406
			c-0.531,0.266-0.977,0.401-1.319,0.401c-0.415,0-0.608-0.195-0.697-0.358c-0.228-0.422-0.027-1.12,0.597-2.076
			c0.17-0.19,0.321-0.35,0.459-0.495c0.127-0.134,0.274-0.29,0.369-0.395c-0.051-0.043-0.112-0.086-0.158-0.108
			c-0.04,0.04-0.113,0.122-0.248,0.287l-0.303,0.37h0.006l-0.453,0.661c-0.057,0.061-0.101,0.111-0.164,0.184
			c-0.816,0.928-1.857,1.993-2.677,1.993l0,0c-0.076,0-0.149-0.01-0.219-0.027c-0.339-0.085-0.511-0.392-0.458-0.819
			c0.138-1.108,1.619-2.941,3.049-2.941c0.351,0,0.534,0.155,0.626,0.286c0.141,0.201,0.149,0.459,0.124,0.664h0.127l-0.097-0.479
			C47.985,13.369,47.702,13.136,47.351,13.136z M47.274,13.744c-1.182,0-2.453,1.7-2.553,2.503
			c-0.029,0.244,0.055,0.266,0.086,0.273c0.471,0.119,1.256-0.515,2.396-1.812c0.09-0.103,0.151-0.17,0.174-0.188l0.099-0.16
			c0.054-0.151,0.096-0.429,0.015-0.543C47.478,13.799,47.439,13.744,47.274,13.744z"/>
	</g>
	<g>
		<path d="M52.821,17.046c1.064-0.323,2.375-1.292,3.021-1.862c0.209-0.189,0.19,0.381,0.096,0.476
			c-0.817,0.817-1.957,1.672-3.097,1.862c-0.057,1.139-0.646,2.641-1.843,4.273c-1.995,2.68-4.863,3.04-3.401-0.722
			c0.761-1.956,6.308-10.676,9.006-12.937c2.108-1.748,2.925-0.646,1.329,1.539c-0.703,0.988-3.895,4.616-5.907,6.022
			C52.518,15.983,52.765,16.496,52.821,17.046z M48.509,20.656c-0.246,0.532-0.93,2.128-0.513,2.489
			c0.418,0.36,1.254-0.248,1.881-0.95c1.748-1.995,2.299-3.571,2.356-4.616c-0.608-0.02-1.16-0.247-1.444-0.816
			C49.706,18.471,48.87,19.915,48.509,20.656z M51.948,16.305c-0.399-0.569-1.026,0.152-0.342,0.703
			c0.151,0.133,0.379,0.172,0.627,0.172C52.194,16.781,52.081,16.477,51.948,16.305z M57.267,9.695
			c2.09-2.679,0.247-2.109-1.596,0.152c-1.254,1.558-2.584,3.4-3.742,5.148C53.296,14.006,55.329,12.145,57.267,9.695z"/>
		<path d="M48.068,24.102c-0.389,0-0.697-0.151-0.894-0.438c-0.36-0.527-0.297-1.43,0.188-2.681
			c0.764-1.962,6.293-10.704,9.079-13.038c1.196-0.993,2.175-1.163,2.486-0.55c0.255,0.501-0.035,1.387-0.795,2.428
			c-0.623,0.875-3.617,4.312-5.687,5.875c0.281,0.255,0.478,0.603,0.572,1.014c1.003-0.391,2.153-1.271,2.656-1.716
			c0.183-0.167,0.445-0.109,0.535,0.109c0.073,0.177,0.064,0.569-0.097,0.73c-0.595,0.595-1.756,1.603-3.038,1.894
			c-0.118,1.229-0.779,2.716-1.876,4.213C50.223,23.255,48.994,24.102,48.068,24.102z M58.271,7.523
			c-0.161,0-0.631,0.079-1.51,0.806c-2.669,2.237-8.2,10.955-8.932,12.835c-0.405,1.042-0.493,1.85-0.242,2.217
			c0.102,0.148,0.259,0.221,0.48,0.221c0.613,0,1.729-0.612,2.729-1.956c1.098-1.499,1.735-2.969,1.793-4.137l0.009-0.173
			l-0.027-0.265c-0.031-0.305-0.16-0.861-0.673-1.157l-0.34-0.197l0.321-0.225c2.023-1.413,5.206-5.062,5.847-5.962
			c0.7-0.958,0.882-1.661,0.756-1.909C58.468,7.592,58.433,7.523,58.271,7.523z M55.035,16.137
			c-0.559,0.398-1.225,0.807-1.852,1.048C53.871,16.98,54.521,16.553,55.035,16.137z M48.301,23.502L48.301,23.502
			c-0.179,0-0.341-0.059-0.468-0.168c-0.397-0.345-0.246-1.28,0.449-2.783c0.391-0.802,1.27-2.304,2.296-3.923l0.237-0.374
			l0.197,0.396c0.045,0.089,0.098,0.169,0.159,0.241c-0.14-0.235-0.144-0.475-0.081-0.649c0.155-0.443,0.751-0.524,1.063-0.081
			c0.169,0.218,0.288,0.574,0.329,0.994l0.026,0.274h-0.017l-0.009,0.162c-0.055,0.978-0.518,2.598-2.418,4.768
			C49.757,22.705,48.973,23.502,48.301,23.502z M50.795,17.221c-0.928,1.479-1.706,2.815-2.062,3.544
			c-0.604,1.308-0.7,2.081-0.573,2.191c0.022,0.019,0.062,0.046,0.141,0.046c0.311,0,0.87-0.392,1.39-0.975
			c1.713-1.954,2.168-3.412,2.271-4.221C51.468,17.744,51.072,17.544,50.795,17.221z M51.62,16.347
			c-0.021,0-0.046,0.026-0.059,0.062c-0.032,0.092,0.004,0.246,0.201,0.405c0.043,0.037,0.101,0.065,0.172,0.084
			c-0.044-0.186-0.107-0.341-0.185-0.439C51.688,16.369,51.64,16.347,51.62,16.347z M50.961,16.003l0.76-1.146
			c1.211-1.829,2.545-3.664,3.756-5.167c0.959-1.178,2.032-2.031,2.552-2.031c0.169,0,0.304,0.079,0.371,0.217
			c0.108,0.221,0.1,0.646-0.936,1.973c-1.681,2.125-3.694,4.124-5.389,5.348L50.961,16.003z M57.923,8.182
			c-0.329,0.118-1.132,0.686-2.059,1.822c-0.896,1.115-1.864,2.415-2.798,3.759c1.018-0.881,2.466-2.278,4.004-4.224
			C57.691,8.744,57.871,8.351,57.923,8.182z"/>
	</g>
	<g>
		<path d="M56.489,16.723c0.456,0.039,1.121-0.285,2.546-1.539c0.209-0.189,0.171,0.381,0.095,0.476
			c-0.095,0.095-2.09,2.165-3.248,1.349c-0.608-0.418-0.361-1.443,0.437-2.564c0.646-0.95,1.007-1.425,1.14-1.52
			c0.152-0.114,0.476,0.266,0.304,0.513c-0.133,0.209-1.196,1.596-1.462,2.241C56.015,16.325,56.091,16.686,56.489,16.723z
			 M58.693,11.5c-0.305-0.152-0.665,0-0.817,0.304c-0.133,0.266-0.114,0.646,0.171,0.741C58.636,12.753,59.206,11.727,58.693,11.5z"
			/>
		<path d="M56.508,17.449c-0.289,0-0.548-0.079-0.77-0.236c-0.228-0.155-0.375-0.39-0.426-0.677
			c-0.102-0.573,0.184-1.367,0.802-2.236c0.841-1.237,1.078-1.493,1.198-1.579c0.188-0.14,0.522-0.026,0.673,0.261
			c0.106,0.205,0.1,0.428-0.019,0.598c-0.026,0.042-0.109,0.158-0.224,0.315c-0.331,0.457-1.02,1.41-1.212,1.878
			c-0.164,0.373-0.174,0.585-0.132,0.655c0.015,0.024,0.053,0.04,0.113,0.046c0.001,0,0.002,0,0.003,0
			c0.482,0,1.194-0.456,2.354-1.478c0.175-0.16,0.424-0.113,0.52,0.084c0.09,0.188,0.055,0.587-0.065,0.735
			C58.927,16.221,57.628,17.449,56.508,17.449z M57.528,13.203c-0.119,0.134-0.391,0.48-1.003,1.381
			c-0.536,0.753-0.797,1.431-0.721,1.864c0.028,0.156,0.1,0.271,0.219,0.354c0.051,0.035,0.103,0.064,0.158,0.087
			c-0.106-0.059-0.173-0.139-0.214-0.208c-0.147-0.251-0.113-0.612,0.104-1.104c0.213-0.518,0.898-1.467,1.267-1.976
			c0.105-0.145,0.184-0.252,0.213-0.299C57.548,13.26,57.539,13.228,57.528,13.203z M58.207,12.822L58.207,12.822
			c-0.083,0-0.165-0.014-0.244-0.042c-0.161-0.054-0.291-0.175-0.359-0.341c-0.091-0.218-0.072-0.505,0.049-0.747
			c0.213-0.423,0.745-0.62,1.152-0.416c0.263,0.116,0.389,0.394,0.319,0.719C59.04,12.393,58.665,12.822,58.207,12.822z
			 M58.441,11.69c-0.139,0-0.273,0.088-0.342,0.226c-0.055,0.108-0.069,0.248-0.034,0.332c0.017,0.041,0.039,0.053,0.061,0.06
			c0.03,0.011,0.056,0.015,0.081,0.015c0.189,0,0.386-0.231,0.428-0.43c0.028-0.132-0.021-0.154-0.043-0.164
			C58.537,11.701,58.49,11.69,58.441,11.69z"/>
	</g>
	<g>
		<path d="M63.29,17.389c-0.969,0.151-1.558-0.514-1.272-1.463c-1.425,1.48-1.938,1.614-2.546,1.52
			c-0.703-0.114-1.178-1.217-0.151-2.68c1.025-1.443,2.412-1.88,2.925-1.88c0.456,0,0.855,0.304,0.95,0.779
			c0.171-0.209,0.304-0.361,0.361-0.38c0.151-0.076,0.551,0.266,0.551,0.361c0,0.058-0.494,0.551-0.932,1.026
			c-1.216,1.861-0.646,2.545,1.103,1.672c0.513-0.248,1.063-0.627,1.672-1.16c0.228-0.189,0.189,0.381,0.095,0.476
			S64.487,17.198,63.29,17.389z M62.625,14.444h-0.019c0,0,0.342-0.95-0.438-0.95c-1.709,0-3.514,3.02-2.526,3.268
			c0.931,0.246,2.66-1.938,2.793-2.053L62.625,14.444z"/>
		<path d="M59.745,17.719c-0.104,0-0.207-0.01-0.312-0.026c-0.37-0.061-0.674-0.313-0.834-0.695
			c-0.274-0.65-0.086-1.517,0.516-2.375c1.029-1.447,2.466-1.986,3.13-1.986c0.431,0,0.811,0.216,1.027,0.558
			c0.086-0.087,0.145-0.126,0.206-0.146l0.13-0.023c0.271,0,0.749,0.359,0.749,0.622c0,0.135-0.048,0.189-0.569,0.739
			c-0.136,0.143-0.285,0.301-0.429,0.456c-0.548,0.847-0.643,1.359-0.55,1.532c0.082,0.15,0.346,0.252,1.357-0.253
			c0.505-0.244,1.033-0.612,1.618-1.125c0.212-0.174,0.454-0.104,0.543,0.11c0.079,0.192,0.042,0.582-0.106,0.73
			c-0.163,0.163-1.628,1.598-2.893,1.8c-0.608,0.095-1.102-0.084-1.391-0.472c-0.123-0.166-0.2-0.36-0.229-0.574
			C60.853,17.414,60.306,17.719,59.745,17.719z M62.245,13.136c-0.477,0-1.769,0.434-2.721,1.774
			c-0.493,0.703-0.667,1.411-0.465,1.893c0.093,0.22,0.258,0.364,0.452,0.396c0.487,0.08,0.929,0.005,2.326-1.446l0.717-0.745
			l-0.298,0.991c-0.104,0.348-0.075,0.655,0.083,0.867c0.176,0.237,0.51,0.341,0.911,0.276c0.616-0.099,1.323-0.567,1.847-0.981
			c-0.242,0.16-0.479,0.296-0.711,0.408c-0.531,0.266-0.977,0.401-1.319,0.401c-0.416,0-0.608-0.195-0.697-0.359
			c-0.229-0.422-0.027-1.12,0.597-2.075c0.17-0.19,0.321-0.35,0.459-0.495c0.127-0.134,0.274-0.29,0.369-0.395
			c-0.051-0.043-0.112-0.086-0.158-0.108c-0.04,0.04-0.113,0.122-0.248,0.287l-0.303,0.37h0.006l-0.453,0.661
			c-0.057,0.061-0.101,0.111-0.164,0.184c-0.816,0.928-1.858,1.993-2.677,1.993l0,0c-0.076,0-0.149-0.01-0.219-0.028
			c-0.338-0.084-0.51-0.391-0.457-0.818c0.137-1.108,1.618-2.941,3.047-2.941c0.352,0,0.534,0.156,0.626,0.286
			c0.142,0.202,0.15,0.459,0.124,0.664h0.127l-0.096-0.479C62.881,13.368,62.598,13.136,62.245,13.136z M62.169,13.744
			c-1.181,0-2.451,1.7-2.551,2.503c-0.03,0.244,0.054,0.266,0.085,0.273c0.473,0.119,1.255-0.515,2.396-1.812
			c0.09-0.103,0.151-0.17,0.174-0.188l0.099-0.16c0.054-0.151,0.096-0.429,0.015-0.542C62.373,13.799,62.334,13.744,62.169,13.744z"
			/>
	</g>
	<g>
		<path d="M67.623,13.608c-0.114-0.266-0.152-0.532-0.096-0.817c0.133-0.703,0.932-1.292,1.368-1.216
			c0.437,0.076,0.456,0.437,0.152,1.007c-0.172,0.304-0.494,0.703-0.874,1.122c0.304,0.418,0.76,0.854,0.778,1.576
			c0.02,0.475-0.057,0.931-0.247,1.311c0.418-0.209,0.988-0.627,1.862-1.406c0.228-0.189,0.189,0.381,0.095,0.476
			c-0.076,0.095-1.443,1.481-2.488,1.634c-0.247,0.189-0.532,0.322-0.874,0.38c-1.045,0.133-1.71-0.893-1.672-1.938
			c0.019-0.987,0.551-1.103,0.722-0.894C66.711,14.52,67.186,14.064,67.623,13.608z M66.293,15.565
			c-0.361,0.531,0.057,1.558,0.778,1.615c0.114,0.018,0.209,0,0.305-0.02C66.502,16.762,66.331,15.508,66.293,15.565z
			 M68.383,15.641c0-0.627-0.305-1.121-0.551-1.596c-0.438,0.437-0.912,0.873-1.273,1.196c0.285,0.532,0.855,1.387,1.482,1.481
			C68.25,16.458,68.383,16.059,68.383,15.641z M68.63,12.259c-0.038-0.209-0.514-0.152-0.703,0.589
			c-0.058,0.152-0.038,0.304,0.019,0.437C68.363,12.829,68.668,12.411,68.63,12.259z"/>
		<path d="M67.119,17.935c-0.432,0-0.824-0.171-1.136-0.493c-0.402-0.419-0.629-1.06-0.605-1.715
			c0.019-1.051,0.571-1.32,0.943-1.195c0.318-0.291,0.682-0.644,1.012-0.983c-0.088-0.269-0.104-0.534-0.051-0.806
			c0.155-0.824,1.099-1.515,1.656-1.413c0.304,0.053,0.44,0.213,0.502,0.339c0.122,0.249,0.065,0.586-0.172,1.032
			c-0.151,0.268-0.409,0.608-0.771,1.017c0.013,0.018,0.026,0.035,0.04,0.053c0.288,0.367,0.646,0.824,0.664,1.504
			c0.011,0.261-0.007,0.512-0.05,0.748c0.34-0.242,0.749-0.578,1.249-1.023c0.214-0.179,0.455-0.106,0.544,0.108
			c0.079,0.192,0.042,0.582-0.106,0.73l0,0c0.001,0-1.393,1.477-2.564,1.693c-0.28,0.204-0.587,0.332-0.933,0.39
			C67.259,17.93,67.188,17.935,67.119,17.935z M66.158,16.856c0.055,0.087,0.117,0.167,0.186,0.238
			c0.21,0.218,0.471,0.335,0.755,0.341c-0.021-0.002-0.043-0.004-0.065-0.008C66.695,17.401,66.374,17.191,66.158,16.856z
			 M66.684,15.927c0.13,0.347,0.367,0.811,0.796,1.006l0.471,0.215c0.023-0.018,0.048-0.035,0.071-0.053l0.052-0.04l0.064-0.009
			c0.021-0.004,0.043-0.007,0.064-0.012l0.279-0.557c0.163-0.325,0.239-0.736,0.221-1.188c-0.013-0.519-0.29-0.872-0.558-1.213
			c-0.014-0.019-0.027-0.036-0.041-0.054l0.035,0.067c0.231,0.438,0.494,0.933,0.494,1.55c0,0.467-0.145,0.917-0.396,1.236
			l-0.09,0.114l-0.144-0.021C67.471,16.89,67.013,16.402,66.684,15.927z M66.874,15.294c0.288,0.493,0.683,0.99,1.06,1.142
			c0.126-0.221,0.199-0.506,0.199-0.795c0-0.439-0.176-0.818-0.365-1.182C67.448,14.77,67.13,15.063,66.874,15.294z M66.156,15
			c-0.084,0.004-0.268,0.189-0.278,0.74c-0.009,0.235,0.021,0.467,0.085,0.68c-0.101-0.363-0.059-0.728,0.123-0.996l0.075-0.109
			l0.135-0.002c0.006,0,0.012,0,0.018,0.001l-0.068-0.128l0.036-0.032L66.156,15z M68.539,11.907
			c0.174,0.02,0.306,0.138,0.337,0.307c0.008,0.03,0.019,0.072,0.006,0.142c0.159-0.331,0.12-0.448,0.109-0.469
			c-0.02-0.04-0.095-0.058-0.139-0.066C68.741,11.83,68.651,11.851,68.539,11.907z"/>
	</g>
</g>
</svg>
