<?xml version="1.0" encoding="utf-8"?>
<!-- Generator: Adobe Illustrator 16.0.0, SVG Export Plug-In . SVG Version: 6.00 Build 0)  -->
<!DOCTYPE svg PUBLIC "-//W3C//DTD SVG 1.1//EN" "http://www.w3.org/Graphics/SVG/1.1/DTD/svg11.dtd">
<svg version="1.1" id="Layer_1" xmlns="http://www.w3.org/2000/svg" xmlns:xlink="http://www.w3.org/1999/xlink" x="0px" y="0px"
	 width="83.334px" height="26.333px" viewBox="0 0 83.334 26.333" enable-background="new 0 0 83.334 26.333" xml:space="preserve">
<g>
	<path stroke="#000000" stroke-width="0.5" stroke-miterlimit="10" d="M5.744,14.649c-1.473,1.846-2.887,2.22-2.769,0.53
		c0.117-1.708,1.885-3.161,1.963-3.26c0.099-0.099,0.668,0.039,0.433,0.354c-0.216,0.274-1.276,1.375-1.591,2.278
		c-0.334,0.884-0.177,1.394,0.727,0.707c0.884-0.668,2.063-2.16,2.789-3.28c0.098-0.177,0.746-0.059,0.51,0.256
		c-0.235,0.313-1.08,1.512-1.434,2.298c-0.608,1.354,0.275,1.413,0.806,1.197c0.432-0.157,1.041-0.668,1.964-1.492
		c0.235-0.196,0.196,0.393,0.098,0.491c-0.078,0.098-1.669,1.688-2.65,1.688C5.666,16.417,5.214,15.435,5.744,14.649z"/>
	<path stroke="#000000" stroke-width="0.5" stroke-miterlimit="10" d="M15.368,12.508c-0.177-0.314-1.101,0.196-1.808,0.825
		c-0.706,0.628-2.062,2.514-2.316,2.69c-0.138,0.098-0.472,0-0.374-0.216c0.118-0.217,0.825-1.237,1.474-2.416
		c0.667-1.178-0.02-1.08-0.373-0.785c-2.082,1.708-2.867,3.024-3.182,3.397c-0.295,0.373-0.569-0.217-0.373-0.53
		c1.61-2.69,2.435-3.673,2.553-3.79c0.059-0.06,0.295,0.235,0.275,0.393c-0.021,0.235-0.433,0.746-0.727,1.158
		c0.196-0.196,1.021-1.021,1.551-1.335c0.511-0.295,1.532-0.314,1.119,1.158c0.903-0.884,2.181-1.63,2.71-1.119
		c0.295,0.255,0.217,1.179-0.687,2.219c-0.963,1.12-0.472,1.65-0.06,1.689c0.433,0.02,1.08-0.314,2.554-1.61
		c0.235-0.196,0.196,0.393,0.098,0.491c-0.098,0.098-1.61,1.649-2.671,1.688c-0.688,0.02-1.826-0.727-0.589-2.337
		C14.838,13.687,15.584,12.881,15.368,12.508z"/>
	<path stroke="#000000" stroke-width="0.5" stroke-miterlimit="10" d="M22.104,16.515c-1.001,0.156-1.61-0.53-1.315-1.513
		c-1.473,1.532-2.003,1.669-2.632,1.571c-0.727-0.118-1.217-1.257-0.157-2.77c1.061-1.492,2.494-1.943,3.024-1.943
		c0.472,0,0.884,0.313,0.982,0.805c0.177-0.216,0.314-0.373,0.373-0.393c0.157-0.079,0.569,0.274,0.569,0.373
		c0,0.059-0.511,0.569-0.962,1.061c-1.257,1.925-0.668,2.632,1.139,1.729c0.53-0.256,1.1-0.648,1.729-1.198
		c0.235-0.196,0.196,0.393,0.098,0.491C24.854,14.826,23.342,16.318,22.104,16.515z M21.418,13.471h-0.021
		c0,0,0.354-0.982-0.451-0.982c-1.768,0-3.633,3.123-2.612,3.378c0.963,0.255,2.75-2.003,2.887-2.121L21.418,13.471z"/>
	<path stroke="#000000" stroke-width="0.5" stroke-miterlimit="10" d="M29.295,15.042c0,0.609,0.216,0.786,0.55,0.806
		c0.432,0.02,1.1-0.314,2.553-1.61c0.235-0.196,0.196,0.393,0.118,0.491c-0.099,0.098-1.729,1.728-2.671,1.688
		c-1.552-0.059-1.14-2.102-0.845-3.044c0.981-3.122,3.652-5.636,4.732-6.323c0.884-0.569,1.474-0.55,1.65-0.314
		c0.903,1.237-4.321,6.107-6.01,7.62C29.314,14.59,29.295,14.826,29.295,15.042z M34.754,7.285c-0.118-0.118-0.472-0.02-1.08,0.472
		c-1.315,1.001-3.417,3.711-4.144,5.931C31.317,12.096,35.343,7.854,34.754,7.285z"/>
	<path stroke="#000000" stroke-width="0.5" stroke-miterlimit="10" d="M36.855,14.237c0.235-0.196,0.196,0.393,0.098,0.491
		c-0.078,0.098-1.61,1.61-2.848,1.787c-1.001,0.137-1.649-0.217-1.904-0.943c-0.314-0.785,0.117-1.885,1.041-2.729
		c2.18-1.983,3.652-1.139,2.062,0.707c-0.354,0.393-1.964,1.649-2.533,1.905c0.138,0.608,0.825,0.844,2.376,0.078
		C35.657,15.278,36.246,14.787,36.855,14.237z M34.558,13.51c1.375-1.336,0.707-1.669-0.668-0.452
		c-0.511,0.472-0.923,1.14-1.08,1.709C33.202,14.551,34.027,14.021,34.558,13.51z"/>
	<path stroke="#000000" stroke-width="0.5" stroke-miterlimit="10" d="M43.082,12.508c-0.177-0.314-1.101,0.196-1.808,0.825
		c-0.706,0.628-2.062,2.514-2.316,2.69c-0.138,0.098-0.472,0-0.374-0.216c0.118-0.217,0.825-1.237,1.474-2.416
		c0.667-1.178-0.02-1.08-0.373-0.785c-2.082,1.708-2.867,3.024-3.182,3.397c-0.295,0.373-0.569-0.217-0.373-0.53
		c1.61-2.69,2.435-3.673,2.553-3.79c0.059-0.06,0.295,0.235,0.275,0.393c-0.021,0.235-0.433,0.746-0.727,1.158
		c0.196-0.196,1.021-1.021,1.551-1.335c0.511-0.295,1.532-0.314,1.119,1.158c0.903-0.884,2.181-1.63,2.71-1.119
		c0.295,0.255,0.217,1.179-0.687,2.219c-0.963,1.12-0.472,1.65-0.06,1.689c0.433,0.02,1.08-0.314,2.554-1.61
		c0.235-0.196,0.196,0.393,0.098,0.491c-0.098,0.098-1.61,1.649-2.671,1.688c-0.688,0.02-1.826-0.727-0.589-2.337
		C42.552,13.687,43.298,12.881,43.082,12.508z"/>
	<path stroke="#000000" stroke-width="0.5" stroke-miterlimit="10" d="M46.382,15.847c0.491,0,1.257-0.393,2.141-1.315
		c-0.274-0.334-0.471-1.395,0.138-2.102c0.962-1.159,1.944-0.472,1.315,0.844c-0.766,1.631-2.376,3.084-3.534,3.182
		c-0.511,0.039-1.414-0.707-1.218-1.846c0.569-3.378,4.163-7.188,6.245-8.091c0.903-0.393,1.708-0.412,0.766,1.139
		c-0.569,0.982-2.926,3.81-6.402,6.814C45.616,15.297,45.754,15.828,46.382,15.847z M51.351,8.129
		c1.08-1.395,0.785-1.729-0.668-0.511c-1.925,1.61-3.81,4.223-4.595,6.068C48.66,11.193,50.978,8.6,51.351,8.129z M48.994,12.901
		c-0.295,0.57-0.138,0.924,0.078,1.002C50.094,12.626,49.426,12.018,48.994,12.901z"/>
	<path stroke="#000000" stroke-width="0.5" stroke-miterlimit="10" d="M52.765,13.471c0.413-0.472,0.59-0.786,0.491-0.884
		c-0.117-0.099-0.608,0.157-1.061,0.177c-0.511,0.687-1.197,1.434-1.885,2.101c-0.138,0.118-0.256-0.393-0.177-0.451
		c0.608-0.511,1.197-1.198,1.61-1.729c-0.256-0.138-0.433-0.393-0.334-0.844c0.295-1.237,1.807-1.12,1.453-0.217
		c-0.099,0.236-0.235,0.472-0.393,0.727c0.235-0.059,0.491-0.157,0.647-0.216c0.845-0.314,1.395,0.079,0.57,1.041
		c-0.433,0.53-1.905,2.553-0.845,2.671c0.412,0.039,1.08-0.314,2.553-1.61c0.216-0.196,0.177,0.393,0.099,0.491
		c-0.099,0.098-1.729,1.728-2.671,1.688C51.665,16.377,51.43,15.042,52.765,13.471z M52.313,11.821
		c0.196-0.451-0.412-0.333-0.491,0.157c-0.039,0.216,0.02,0.334,0.157,0.393C52.137,12.116,52.274,11.919,52.313,11.821z"/>
	<path stroke="#000000" stroke-width="0.5" stroke-miterlimit="10" d="M59.776,16.515c-1.001,0.156-1.61-0.53-1.315-1.513
		c-1.473,1.532-2.003,1.669-2.632,1.571c-0.727-0.118-1.217-1.257-0.157-2.77c1.061-1.492,2.494-1.943,3.024-1.943
		c0.472,0,0.884,0.313,0.982,0.805c0.177-0.216,0.314-0.373,0.373-0.393c0.157-0.079,0.569,0.274,0.569,0.373
		c0,0.059-0.511,0.569-0.962,1.061c-1.257,1.925-0.668,2.632,1.139,1.729c0.53-0.256,1.1-0.648,1.729-1.198
		c0.235-0.196,0.196,0.393,0.098,0.491C62.526,14.826,61.014,16.318,59.776,16.515z M59.09,13.471h-0.021
		c0,0,0.354-0.982-0.451-0.982c-1.768,0-3.633,3.123-2.612,3.378c0.963,0.255,2.75-2.003,2.887-2.121L59.09,13.471z"/>
	<path stroke="#000000" stroke-width="0.5" stroke-miterlimit="10" d="M66.356,11.861c0.55,0.333,0.118,1.374-0.707,2.415
		c-0.727,0.903-0.727,1.532-0.196,1.571c0.433,0.02,1.08-0.314,2.553-1.61c0.236-0.196,0.196,0.393,0.099,0.491
		c-0.079,0.098-1.709,1.728-2.651,1.688c-0.451-0.02-0.962-0.157-0.962-0.903c-0.02-0.864,0.864-1.826,1.178-2.356
		c0.55-0.864-0.078-1.002-1.08-0.118c-0.49,0.433-1.217,1.119-1.767,1.768c-0.394,0.707-0.728,1.257-0.786,1.315
		c-0.255,0.236-0.491-0.255-0.314-0.647c0.452-0.707,1.179-1.886,2.239-3.928c0.078-0.138,0.569,0.02,0.569,0.157
		c0,0.039-0.354,0.688-0.785,1.473C64.334,12.489,65.748,11.488,66.356,11.861z"/>
	<path stroke="#000000" stroke-width="0.5" stroke-miterlimit="10" d="M67.988,15.67c-0.295-0.53-0.53-1.748,1.218-3.162
		c1.59-1.296,3.142-0.981,2.945-0.039c-0.118,0.472-0.668,0.923-0.825,1.041c-0.098,0.078-0.471-0.275-0.177-0.511
		c0.511-0.432,0.314-1.002-0.235-0.864c-0.393,0.099-1.453,0.806-2.003,1.61c-1.414,2.102,0.746,3.279,3.889,0.491
		c0.235-0.196,0.196,0.393,0.117,0.491c-0.098,0.098-1.453,1.512-2.671,1.669c-0.059,0.02-0.098,0.02-0.157,0.02
		c0,0.059-0.039,0.216-0.078,0.255c-0.039,0.079-0.039,0.06-0.196,0.079c-0.412,0.078-0.393,0.628,0.098,0.255
		c0.079-0.078,0.177,0.079,0.138,0.118c-0.628,0.628-1.119-0.334-0.255-0.55c0.039,0,0.059-0.079,0.059-0.138
		C69.009,16.495,68.342,16.259,67.988,15.67z"/>
	<path stroke="#000000" stroke-width="0.5" stroke-miterlimit="10" d="M77.198,16.515c-1.001,0.156-1.61-0.53-1.315-1.513
		c-1.473,1.532-2.003,1.669-2.632,1.571c-0.727-0.118-1.217-1.257-0.157-2.77c1.061-1.492,2.494-1.943,3.024-1.943
		c0.472,0,0.884,0.313,0.982,0.805c0.177-0.216,0.314-0.373,0.373-0.393c0.157-0.079,0.569,0.274,0.569,0.373
		c0,0.059-0.511,0.569-0.962,1.061c-1.257,1.925-0.668,2.632,1.139,1.729c0.53-0.256,1.1-0.648,1.729-1.198
		c0.235-0.196,0.196,0.393,0.098,0.491C79.948,14.826,78.436,16.318,77.198,16.515z M76.512,13.471h-0.021
		c0,0,0.354-0.982-0.451-0.982c-1.768,0-3.633,3.123-2.612,3.378c0.963,0.255,2.75-2.003,2.887-2.121L76.512,13.471z"/>
</g>
</svg>
