<?xml version="1.0" encoding="utf-8"?>
<!-- Generator: Adobe Illustrator 16.0.0, SVG Export Plug-In . SVG Version: 6.00 Build 0)  -->
<!DOCTYPE svg PUBLIC "-//W3C//DTD SVG 1.1//EN" "http://www.w3.org/Graphics/SVG/1.1/DTD/svg11.dtd">
<svg version="1.1" id="Layer_1" xmlns="http://www.w3.org/2000/svg" xmlns:xlink="http://www.w3.org/1999/xlink" x="0px" y="0px"
	 width="132px" height="89.827px" viewBox="0 0 132 89.827" enable-background="new 0 0 132 89.827" xml:space="preserve">
<g>
	
		<line fill="none" stroke="#FFFFFF" stroke-width="2" stroke-linecap="round" stroke-linejoin="round" stroke-miterlimit="10" x1="64.958" y1="15.265" x2="71.967" y2="22.274"/>
	
		<line fill="none" stroke="#FFFFFF" stroke-width="2" stroke-linecap="round" stroke-linejoin="round" stroke-miterlimit="10" x1="64.958" y1="22.274" x2="71.967" y2="15.265"/>
</g>
<circle fill="none" stroke="#FFFFFF" stroke-width="2" stroke-linecap="round" stroke-linejoin="round" stroke-miterlimit="10" cx="31.129" cy="64.146" r="1.748"/>
<circle fill="none" stroke="#FFFFFF" stroke-width="2" stroke-linecap="round" stroke-linejoin="round" stroke-miterlimit="10" cx="22.988" cy="69.522" r="1.907"/>
<circle fill="none" stroke="#FFFFFF" stroke-width="2" stroke-linecap="round" stroke-linejoin="round" stroke-miterlimit="10" cx="30.587" cy="73.311" r="0.644"/>
<path fill="none" stroke="#FFFFFF" stroke-width="2" stroke-linecap="round" stroke-linejoin="round" stroke-miterlimit="10" d="
	M31.23,73.311c0,0,4.601-3.172,9.311-1.881c0,0-6.951-3.813-16.065-2.41"/>
<circle fill="none" stroke="#FFFFFF" stroke-width="2" stroke-linecap="round" stroke-linejoin="round" stroke-miterlimit="10" cx="102.703" cy="64.146" r="1.748"/>
<path fill="none" stroke="#FFFFFF" stroke-width="2" stroke-linecap="round" stroke-linejoin="round" stroke-miterlimit="10" d="
	M251.775-146.945"/>
<circle fill="none" stroke="#FFFFFF" stroke-width="2" stroke-linecap="round" stroke-linejoin="round" stroke-miterlimit="10" cx="110.844" cy="69.522" r="1.906"/>
<circle fill="none" stroke="#FFFFFF" stroke-width="2" stroke-linecap="round" stroke-linejoin="round" stroke-miterlimit="10" cx="103.245" cy="73.311" r="0.644"/>
<path fill="none" stroke="#FFFFFF" stroke-width="2" stroke-linecap="round" stroke-linejoin="round" stroke-miterlimit="10" d="
	M102.602,73.311c0,0-4.601-3.172-9.311-1.881c0,0,6.951-3.813,16.064-2.41"/>
<g>
	<path fill="none" stroke="#FFFFFF" stroke-width="2" stroke-linecap="round" stroke-linejoin="round" stroke-miterlimit="10" d="
		M62.581,68.709c0,0,18.002-5.17,24.059-25.535"/>
	<path fill="none" stroke="#FFFFFF" stroke-width="2" stroke-linecap="round" stroke-linejoin="round" stroke-miterlimit="10" d="
		M48.449,42.138c0,0,5.665,18.97,24.115,26.571"/>
	<path fill="none" stroke="#FFFFFF" stroke-width="2" stroke-linecap="round" stroke-linejoin="round" stroke-miterlimit="10" d="
		M57.449,58.79c0,0-9.337,5.827-13.712,1.957c-4.374-3.869-1.682-6.394,1.094-6.056C47.607,55.027,57.449,58.79,57.449,58.79z"/>
	<path fill="none" stroke="#FFFFFF" stroke-width="2" stroke-linecap="round" stroke-linejoin="round" stroke-miterlimit="10" d="
		M55.725,54.66c0,0,4.333-3.671,4.038-6.741c-0.294-3.071-2.481-3.239-3.743-2.44C54.758,46.279,55.684,54.42,55.725,54.66z"/>
	<path fill="none" stroke="#FFFFFF" stroke-width="2" stroke-linecap="round" stroke-linejoin="round" stroke-miterlimit="10" d="
		M77.166,60.072c0,0,9.338,5.827,13.711,1.957c4.375-3.87,1.683-6.394-1.094-6.058C87.008,56.309,77.166,60.072,77.166,60.072z"/>
	<path fill="none" stroke="#FFFFFF" stroke-width="2" stroke-linecap="round" stroke-linejoin="round" stroke-miterlimit="10" d="
		M82.082,51.728c0,0-4.332-3.672-4.037-6.742s2.48-3.239,3.742-2.439C83.05,43.345,82.125,51.485,82.082,51.728z"/>
	<path fill="none" stroke="#FFFFFF" stroke-width="2" stroke-linecap="round" stroke-linejoin="round" stroke-miterlimit="10" d="
		M44.327,39.569c0,0,1.514,3.26,3.764,2.377s2.271-2.629,1.662-4.333c-0.61-1.703-2.293-1.955-2.749,0.169
		c0,0-3.119-1.998-2.824,1.191L44.327,39.569z"/>
	<path fill="none" stroke="#FFFFFF" stroke-width="2" stroke-linecap="round" stroke-linejoin="round" stroke-miterlimit="10" d="
		M85.5,37.865c0,0-1.156,3.402,1.082,4.317s3.457-0.333,4.192-1.987c0.735-1.652-0.308-2.998-2.104-1.775
		c0,0-0.876-3.601-2.865-1.09L85.5,37.865z"/>
	
		<circle fill="none" stroke="#FFFFFF" stroke-width="2" stroke-linecap="round" stroke-linejoin="round" stroke-miterlimit="10" cx="68.301" cy="54.114" r="1.402"/>
	<path fill="none" stroke="#FFFFFF" stroke-width="2" stroke-linecap="round" stroke-linejoin="round" stroke-miterlimit="10" d="
		M72.564,62.852c0,0-4.264-1.193-4.264-7.335"/>
</g>
</svg>
